<?xml version="1.0" encoding="UTF-8" standalone="no"?>
<svg
   inkscape:version="1.1.2 (0a00cf5339, 2022-02-04)"
   sodipodi:docname="umask-file.svg"
   version="1.1"
   viewBox="0 0 468.30899 106.479"
   height="106.479"
   width="468.30899"
   data-name="Layer 1"
   id="uuid-25916dd8-fd11-4a02-a594-b1acc67aa251"
   xmlns:inkscape="http://www.inkscape.org/namespaces/inkscape"
   xmlns:sodipodi="http://sodipodi.sourceforge.net/DTD/sodipodi-0.dtd"
   xmlns="http://www.w3.org/2000/svg"
   xmlns:svg="http://www.w3.org/2000/svg"
   xmlns:rdf="http://www.w3.org/1999/02/22-rdf-syntax-ns#"
   xmlns:cc="http://creativecommons.org/ns#"
   xmlns:dc="http://purl.org/dc/elements/1.1/">
  <metadata
     id="metadata413">
    <rdf:RDF>
      <cc:Work
         rdf:about="">
        <dc:format>image/svg+xml</dc:format>
        <dc:type
           rdf:resource="http://purl.org/dc/dcmitype/StillImage" />
        <dc:subject>
          <rdf:Bag>
            <rdf:li>umask</rdf:li>
            <rdf:li>permissions</rdf:li>
          </rdf:Bag>
        </dc:subject>
      </cc:Work>
    </rdf:RDF>
  </metadata>
  <sodipodi:namedview
     inkscape:current-layer="uuid-25916dd8-fd11-4a02-a594-b1acc67aa251"
     inkscape:window-maximized="1"
     inkscape:window-y="0"
     inkscape:window-x="0"
     inkscape:cy="54.270175"
     inkscape:cx="237.99733"
     inkscape:zoom="1.7689274"
     showgrid="false"
     id="namedview411"
     inkscape:window-height="1000"
     inkscape:window-width="1920"
     inkscape:pageshadow="2"
     inkscape:pageopacity="0"
     guidetolerance="10"
     gridtolerance="10"
     objecttolerance="10"
     borderopacity="1"
     bordercolor="#666666"
     pagecolor="#ffffff"
     inkscape:pagecheckerboard="0"
     fit-margin-top="0"
     fit-margin-left="0"
     fit-margin-right="0"
     fit-margin-bottom="0" />
  <defs
     id="defs12">
    <style
       id="style10">
      .uuid-97d11063-7913-4d3a-b022-4b2cab9391a5 {
        fill: #06c;
      }

      .uuid-bfa07f14-680d-40c6-9ecf-4e9872cdd31f {
        fill: #fff;
      }

      .uuid-ed3d24ad-c6f0-451e-8f95-6cbc8b72eb56 {
        fill: #dbe8f5;
      }
    </style>
  </defs>
  <rect
     id="rect14"
     height="23.559"
     width="82.195"
     y="0"
     x="162.15399"
     class="uuid-97d11063-7913-4d3a-b022-4b2cab9391a5" />
  <g
     id="g32"
     transform="translate(-63.483002,-13.859)">
    <path
       id="path16"
       d="m 246.592,27.468 0.792,-1.143 c 0.873,0.612 1.422,0.837 2.043,0.837 0.666,0 1.071,-0.271 1.071,-0.667 0,-0.369 -0.216,-0.549 -0.828,-0.657 l -1.341,-0.234 c -1,-0.171 -1.548,-0.801 -1.548,-1.692 0,-1.225 0.936,-1.99 2.502,-1.99 0.972,0 1.936,0.315 2.584,0.828 l -0.783,1.125 c -0.612,-0.468 -1.215,-0.693 -1.882,-0.693 -0.612,0 -0.963,0.252 -0.963,0.594 0,0.324 0.207,0.486 0.711,0.576 l 1.26,0.216 c 1.18,0.198 1.801,0.819 1.801,1.782 0,1.233 -1.044,2.071 -2.692,2.071 -1,0 -1.891,-0.333 -2.728,-0.955 z"
       class="uuid-bfa07f14-680d-40c6-9ecf-4e9872cdd31f" />
    <path
       id="path18"
       d="m 252.649,30.223 v -1.224 c 0.108,0.018 0.261,0.036 0.432,0.036 0.396,0 0.612,-0.162 0.756,-0.468 l 0.072,-0.153 -1.71,-4.735 h 1.611 l 0.927,2.998 1.062,-2.998 h 1.575 l -2.088,5.167 c -0.432,1.062 -0.963,1.45 -2.035,1.45 -0.171,0 -0.405,-0.027 -0.603,-0.072 z"
       class="uuid-bfa07f14-680d-40c6-9ecf-4e9872cdd31f" />
    <path
       id="path20"
       d="m 258.005,23.678 h 1.458 v 0.738 c 0.342,-0.531 0.811,-0.81 1.377,-0.81 0.604,0 1.081,0.333 1.306,0.864 0.36,-0.558 0.882,-0.864 1.521,-0.864 0.855,0 1.458,0.675 1.458,1.629 v 3.088 h -1.458 v -2.8 c 0,-0.468 -0.279,-0.774 -0.693,-0.774 -0.27,0 -0.486,0.108 -0.675,0.351 v 3.223 h -1.458 v -2.8 c 0,-0.468 -0.279,-0.774 -0.693,-0.774 -0.27,0 -0.495,0.117 -0.685,0.36 v 3.214 h -1.458 v -4.646 z"
       class="uuid-bfa07f14-680d-40c6-9ecf-4e9872cdd31f" />
    <path
       id="path22"
       d="m 266.222,21.914 1.458,-0.225 v 2.583 c 0.306,-0.378 0.811,-0.621 1.36,-0.621 1.143,0 2.052,1.053 2.052,2.359 0,1.306 -0.954,2.34 -2.161,2.34 -0.504,0 -0.954,-0.216 -1.269,-0.594 v 0.567 h -1.44 v -6.41 z m 3.439,4.087 c 0,-0.657 -0.478,-1.143 -1.107,-1.143 -0.36,0 -0.639,0.126 -0.874,0.378 v 1.548 c 0.225,0.234 0.531,0.369 0.874,0.369 0.639,0 1.107,-0.486 1.107,-1.152 z"
       class="uuid-bfa07f14-680d-40c6-9ecf-4e9872cdd31f" />
    <path
       id="path24"
       d="m 271.81,26.01 c 0,-1.369 1.044,-2.404 2.422,-2.404 1.378,0 2.422,1.035 2.422,2.404 0,1.369 -1.044,2.403 -2.422,2.403 -1.378,0 -2.422,-1.035 -2.422,-2.403 z m 3.421,0 c 0,-0.693 -0.414,-1.188 -1,-1.188 -0.586,0 -0.999,0.495 -0.999,1.188 0,0.693 0.414,1.188 0.999,1.188 0.585,0 1,-0.495 1,-1.188 z"
       class="uuid-bfa07f14-680d-40c6-9ecf-4e9872cdd31f" />
    <path
       id="path26"
       d="m 277.58,21.914 1.458,-0.225 v 6.635 h -1.458 z"
       class="uuid-bfa07f14-680d-40c6-9ecf-4e9872cdd31f" />
    <path
       id="path28"
       d="m 280.081,22.148 c 0,-0.45 0.369,-0.819 0.819,-0.819 0.45,0 0.819,0.369 0.819,0.819 0,0.45 -0.369,0.819 -0.819,0.819 -0.45,0 -0.819,-0.369 -0.819,-0.819 z m 0.09,1.53 h 1.458 v 4.646 h -1.458 z"
       class="uuid-bfa07f14-680d-40c6-9ecf-4e9872cdd31f" />
    <path
       id="path30"
       d="m 282.556,26.01 c 0,-1.359 1.045,-2.404 2.404,-2.404 0.765,0 1.467,0.306 1.936,0.855 l -0.892,0.892 c -0.297,-0.351 -0.594,-0.504 -0.99,-0.504 -0.576,0 -1.009,0.495 -1.009,1.162 0,0.667 0.433,1.161 1.009,1.161 0.396,0 0.693,-0.153 0.99,-0.504 l 0.892,0.891 c -0.469,0.549 -1.171,0.855 -1.936,0.855 -1.359,0 -2.404,-1.044 -2.404,-2.403 z"
       class="uuid-bfa07f14-680d-40c6-9ecf-4e9872cdd31f" />
  </g>
  <rect
     id="rect34"
     height="23.559"
     width="82.195"
     y="0"
     x="247.48999"
     class="uuid-97d11063-7913-4d3a-b022-4b2cab9391a5" />
  <g
     id="g60"
     transform="translate(-63.483002,-13.859)">
    <path
       id="path36"
       d="m 321.781,22.022 h 1.459 l 2.8,3.817 -0.027,-3.817 h 1.459 v 6.302 h -1.369 l -2.89,-3.943 0.027,3.943 h -1.459 z"
       class="uuid-bfa07f14-680d-40c6-9ecf-4e9872cdd31f" />
    <path
       id="path38"
       d="m 328.702,26.811 v -3.133 h 1.459 v 2.71 c 0,0.522 0.306,0.864 0.773,0.864 0.315,0 0.567,-0.126 0.774,-0.387 v -3.187 h 1.459 v 4.646 h -1.459 v -0.756 c -0.36,0.541 -0.864,0.829 -1.467,0.829 -0.9,0 -1.54,-0.657 -1.54,-1.585 z"
       class="uuid-bfa07f14-680d-40c6-9ecf-4e9872cdd31f" />
    <path
       id="path40"
       d="m 334.3,23.678 h 1.458 v 0.738 c 0.342,-0.531 0.811,-0.81 1.377,-0.81 0.604,0 1.081,0.333 1.306,0.864 0.36,-0.558 0.883,-0.864 1.521,-0.864 0.855,0 1.459,0.675 1.459,1.629 v 3.088 h -1.459 v -2.8 c 0,-0.468 -0.279,-0.774 -0.693,-0.774 -0.27,0 -0.486,0.108 -0.675,0.351 v 3.223 h -1.459 v -2.8 c 0,-0.468 -0.278,-0.774 -0.692,-0.774 -0.271,0 -0.495,0.117 -0.685,0.36 v 3.214 H 334.3 v -4.646 z"
       class="uuid-bfa07f14-680d-40c6-9ecf-4e9872cdd31f" />
    <path
       id="path42"
       d="m 342.31,26.01 c 0,-1.359 1.009,-2.404 2.341,-2.404 1.341,0 2.286,1.017 2.286,2.458 v 0.315 h -3.195 c 0.135,0.522 0.558,0.873 1.089,0.873 0.388,0 0.712,-0.135 0.919,-0.387 l 0.963,0.801 c -0.604,0.531 -1.17,0.747 -1.953,0.747 -1.369,0 -2.449,-1.053 -2.449,-2.403 z m 3.277,-0.459 c -0.126,-0.495 -0.478,-0.81 -0.945,-0.81 -0.459,0 -0.783,0.297 -0.9,0.81 h 1.846 z"
       class="uuid-bfa07f14-680d-40c6-9ecf-4e9872cdd31f" />
    <path
       id="path44"
       d="m 347.845,23.678 h 1.458 v 1.053 c 0.297,-0.774 0.711,-1.143 1.261,-1.143 0.207,0.009 0.306,0.027 0.485,0.117 v 1.251 c -0.18,-0.09 -0.432,-0.144 -0.684,-0.144 -0.433,0 -0.828,0.225 -1.062,0.576 v 2.935 h -1.458 v -4.646 z"
       class="uuid-bfa07f14-680d-40c6-9ecf-4e9872cdd31f" />
    <path
       id="path46"
       d="m 351.733,22.148 c 0,-0.45 0.369,-0.819 0.819,-0.819 0.45,0 0.819,0.369 0.819,0.819 0,0.45 -0.369,0.819 -0.819,0.819 -0.45,0 -0.819,-0.369 -0.819,-0.819 z m 0.09,1.53 h 1.458 v 4.646 h -1.458 z"
       class="uuid-bfa07f14-680d-40c6-9ecf-4e9872cdd31f" />
    <path
       id="path48"
       d="m 354.208,26.01 c 0,-1.359 1.044,-2.404 2.403,-2.404 0.766,0 1.468,0.306 1.936,0.855 l -0.891,0.892 c -0.297,-0.351 -0.595,-0.504 -0.99,-0.504 -0.576,0 -1.009,0.495 -1.009,1.162 0,0.667 0.433,1.161 1.009,1.161 0.396,0 0.693,-0.153 0.99,-0.504 l 0.891,0.891 c -0.468,0.549 -1.17,0.855 -1.936,0.855 -1.359,0 -2.403,-1.044 -2.403,-2.403 z"
       class="uuid-bfa07f14-680d-40c6-9ecf-4e9872cdd31f" />
    <path
       id="path50"
       d="m 360.994,26.01 c 0,-1.369 1.044,-2.404 2.422,-2.404 1.378,0 2.422,1.035 2.422,2.404 0,1.369 -1.045,2.403 -2.422,2.403 -1.377,0 -2.422,-1.035 -2.422,-2.403 z m 3.421,0 c 0,-0.693 -0.414,-1.188 -0.999,-1.188 -0.585,0 -0.999,0.495 -0.999,1.188 0,0.693 0.414,1.188 0.999,1.188 0.585,0 0.999,-0.495 0.999,-1.188 z"
       class="uuid-bfa07f14-680d-40c6-9ecf-4e9872cdd31f" />
    <path
       id="path52"
       d="m 366.556,26.01 c 0,-1.359 1.044,-2.404 2.403,-2.404 0.766,0 1.468,0.306 1.936,0.855 l -0.891,0.892 c -0.298,-0.351 -0.595,-0.504 -0.991,-0.504 -0.576,0 -1.008,0.495 -1.008,1.162 0,0.667 0.432,1.161 1.008,1.161 0.396,0 0.693,-0.153 0.991,-0.504 l 0.891,0.891 c -0.468,0.549 -1.17,0.855 -1.936,0.855 -1.359,0 -2.403,-1.044 -2.403,-2.403 z"
       class="uuid-bfa07f14-680d-40c6-9ecf-4e9872cdd31f" />
    <path
       id="path54"
       d="m 372.316,26.92 v -2.116 h -0.9 v -1.125 h 0.9 v -1.287 l 1.458,-0.297 v 1.584 h 1.242 v 1.125 h -1.242 v 1.828 c 0,0.414 0.162,0.558 0.612,0.558 0.171,0 0.306,-0.018 0.594,-0.099 v 1.179 c -0.27,0.081 -0.702,0.144 -0.999,0.144 -1.099,0 -1.665,-0.504 -1.665,-1.494 z"
       class="uuid-bfa07f14-680d-40c6-9ecf-4e9872cdd31f" />
    <path
       id="path56"
       d="m 375.61,26.991 c 0,-0.855 0.666,-1.35 1.81,-1.35 0.333,0 0.666,0.063 1.08,0.216 v -0.378 c 0,-0.45 -0.297,-0.675 -0.919,-0.675 -0.351,0 -0.765,0.099 -1.305,0.324 l -0.505,-1.018 c 0.766,-0.342 1.45,-0.504 2.134,-0.504 1.288,0 2.035,0.639 2.035,1.747 v 2.971 h -1.44 v -0.405 c -0.405,0.342 -0.793,0.478 -1.288,0.478 -0.944,0 -1.602,-0.576 -1.602,-1.405 z m 2.052,0.441 c 0.307,0 0.586,-0.081 0.838,-0.234 v -0.594 c -0.271,-0.063 -0.531,-0.099 -0.802,-0.099 -0.477,0 -0.747,0.162 -0.747,0.459 0,0.297 0.261,0.468 0.711,0.468 z"
       class="uuid-bfa07f14-680d-40c6-9ecf-4e9872cdd31f" />
    <path
       id="path58"
       d="m 381.037,21.914 1.458,-0.225 v 6.635 h -1.458 z"
       class="uuid-bfa07f14-680d-40c6-9ecf-4e9872cdd31f" />
  </g>
  <rect
     id="rect62"
     height="23.559"
     width="135.375"
     y="0"
     x="332.93399"
     class="uuid-97d11063-7913-4d3a-b022-4b2cab9391a5" />
  <rect
     id="rect64"
     height="24.525"
     width="82.195"
     y="26.674"
     x="162.15399"
     class="uuid-ed3d24ad-c6f0-451e-8f95-6cbc8b72eb56" />
  <rect
     id="rect66"
     height="24.525"
     width="82.195"
     y="26.674"
     x="247.48999"
     class="uuid-ed3d24ad-c6f0-451e-8f95-6cbc8b72eb56" />
  <rect
     id="rect68"
     height="24.525"
     width="135.375"
     y="26.674"
     x="332.93399"
     class="uuid-ed3d24ad-c6f0-451e-8f95-6cbc8b72eb56" />
  <rect
     id="rect70"
     height="24.525"
     width="82.195"
     y="54.313995"
     x="162.15399"
     class="uuid-ed3d24ad-c6f0-451e-8f95-6cbc8b72eb56" />
  <rect
     id="rect72"
     height="24.525"
     width="82.195"
     y="54.313995"
     x="247.48999"
     class="uuid-ed3d24ad-c6f0-451e-8f95-6cbc8b72eb56" />
  <rect
     id="rect74"
     height="24.525"
     width="135.375"
     y="54.313995"
     x="332.93399"
     class="uuid-ed3d24ad-c6f0-451e-8f95-6cbc8b72eb56" />
  <rect
     id="rect76"
     height="24.525"
     width="82.195"
     y="81.954002"
     x="162.15399"
     class="uuid-ed3d24ad-c6f0-451e-8f95-6cbc8b72eb56" />
  <rect
     id="rect78"
     height="24.525"
     width="82.195"
     y="81.954002"
     x="247.48999"
     class="uuid-ed3d24ad-c6f0-451e-8f95-6cbc8b72eb56" />
  <rect
     id="rect80"
     height="24.525"
     width="135.375"
     y="81.954002"
     x="332.93399"
     class="uuid-ed3d24ad-c6f0-451e-8f95-6cbc8b72eb56" />
  <rect
     id="rect82"
     height="24.525"
     width="159.15401"
     y="26.674"
     x="0"
     class="uuid-ed3d24ad-c6f0-451e-8f95-6cbc8b72eb56" />
  <rect
     id="rect84"
     height="24.525"
     width="159.15401"
     y="54.313995"
     x="0"
     class="uuid-ed3d24ad-c6f0-451e-8f95-6cbc8b72eb56" />
  <rect
     id="rect86"
     height="24.525"
     width="159.15401"
     y="81.954002"
     x="0"
     class="uuid-ed3d24ad-c6f0-451e-8f95-6cbc8b72eb56" />
  <g
     id="g114"
     transform="translate(-63.483002,-13.859)">
    <path
       id="path88"
       d="m 430.788,22.022 h 1.459 l 2.8,3.817 -0.027,-3.817 h 1.459 v 6.302 h -1.369 l -2.89,-3.943 0.027,3.943 h -1.459 z"
       class="uuid-bfa07f14-680d-40c6-9ecf-4e9872cdd31f" />
    <path
       id="path90"
       d="m 437.708,26.811 v -3.133 h 1.459 v 2.71 c 0,0.522 0.306,0.864 0.773,0.864 0.315,0 0.567,-0.126 0.774,-0.387 v -3.187 h 1.459 v 4.646 h -1.459 v -0.756 c -0.36,0.541 -0.864,0.829 -1.467,0.829 -0.9,0 -1.54,-0.657 -1.54,-1.585 z"
       class="uuid-bfa07f14-680d-40c6-9ecf-4e9872cdd31f" />
    <path
       id="path92"
       d="m 443.307,23.678 h 1.458 v 0.738 c 0.342,-0.531 0.811,-0.81 1.377,-0.81 0.604,0 1.081,0.333 1.306,0.864 0.36,-0.558 0.883,-0.864 1.521,-0.864 0.855,0 1.459,0.675 1.459,1.629 v 3.088 h -1.459 v -2.8 c 0,-0.468 -0.279,-0.774 -0.693,-0.774 -0.27,0 -0.486,0.108 -0.675,0.351 v 3.223 h -1.459 v -2.8 c 0,-0.468 -0.278,-0.774 -0.692,-0.774 -0.271,0 -0.495,0.117 -0.685,0.36 v 3.214 h -1.458 v -4.646 z"
       class="uuid-bfa07f14-680d-40c6-9ecf-4e9872cdd31f" />
    <path
       id="path94"
       d="m 451.317,26.01 c 0,-1.359 1.009,-2.404 2.341,-2.404 1.341,0 2.286,1.017 2.286,2.458 v 0.315 h -3.195 c 0.135,0.522 0.558,0.873 1.089,0.873 0.388,0 0.712,-0.135 0.919,-0.387 l 0.963,0.801 c -0.604,0.531 -1.17,0.747 -1.953,0.747 -1.369,0 -2.449,-1.053 -2.449,-2.403 z m 3.277,-0.459 c -0.126,-0.495 -0.478,-0.81 -0.945,-0.81 -0.459,0 -0.783,0.297 -0.9,0.81 h 1.846 z"
       class="uuid-bfa07f14-680d-40c6-9ecf-4e9872cdd31f" />
    <path
       id="path96"
       d="m 456.852,23.678 h 1.458 v 1.053 c 0.297,-0.774 0.711,-1.143 1.261,-1.143 0.207,0.009 0.306,0.027 0.485,0.117 v 1.251 c -0.18,-0.09 -0.432,-0.144 -0.684,-0.144 -0.433,0 -0.828,0.225 -1.062,0.576 v 2.935 h -1.458 v -4.646 z"
       class="uuid-bfa07f14-680d-40c6-9ecf-4e9872cdd31f" />
    <path
       id="path98"
       d="m 460.74,22.148 c 0,-0.45 0.369,-0.819 0.819,-0.819 0.45,0 0.819,0.369 0.819,0.819 0,0.45 -0.369,0.819 -0.819,0.819 -0.45,0 -0.819,-0.369 -0.819,-0.819 z m 0.09,1.53 h 1.458 v 4.646 h -1.458 z"
       class="uuid-bfa07f14-680d-40c6-9ecf-4e9872cdd31f" />
    <path
       id="path100"
       d="m 463.214,26.01 c 0,-1.359 1.044,-2.404 2.403,-2.404 0.766,0 1.468,0.306 1.936,0.855 l -0.891,0.892 c -0.297,-0.351 -0.595,-0.504 -0.99,-0.504 -0.576,0 -1.009,0.495 -1.009,1.162 0,0.667 0.433,1.161 1.009,1.161 0.396,0 0.693,-0.153 0.99,-0.504 l 0.891,0.891 c -0.468,0.549 -1.17,0.855 -1.936,0.855 -1.359,0 -2.403,-1.044 -2.403,-2.403 z"
       class="uuid-bfa07f14-680d-40c6-9ecf-4e9872cdd31f" />
    <path
       id="path102"
       d="m 470.208,21.914 1.458,-0.225 v 2.583 c 0.307,-0.378 0.811,-0.621 1.36,-0.621 1.143,0 2.052,1.053 2.052,2.359 0,1.306 -0.954,2.34 -2.16,2.34 -0.504,0 -0.954,-0.216 -1.27,-0.594 v 0.567 h -1.44 v -6.41 z m 3.439,4.087 c 0,-0.657 -0.478,-1.143 -1.107,-1.143 -0.36,0 -0.64,0.126 -0.874,0.378 v 1.548 c 0.226,0.234 0.531,0.369 0.874,0.369 0.639,0 1.107,-0.486 1.107,-1.152 z"
       class="uuid-bfa07f14-680d-40c6-9ecf-4e9872cdd31f" />
    <path
       id="path104"
       d="m 475.914,22.148 c 0,-0.45 0.369,-0.819 0.819,-0.819 0.45,0 0.819,0.369 0.819,0.819 0,0.45 -0.369,0.819 -0.819,0.819 -0.45,0 -0.819,-0.369 -0.819,-0.819 z m 0.09,1.53 h 1.458 v 4.646 h -1.458 z"
       class="uuid-bfa07f14-680d-40c6-9ecf-4e9872cdd31f" />
    <path
       id="path106"
       d="m 478.595,23.678 h 1.458 v 0.756 c 0.36,-0.54 0.865,-0.828 1.468,-0.828 0.9,0 1.54,0.657 1.54,1.584 v 3.133 h -1.459 v -2.71 c 0,-0.522 -0.306,-0.864 -0.773,-0.864 -0.315,0 -0.567,0.126 -0.775,0.387 v 3.187 h -1.458 v -4.646 z"
       class="uuid-bfa07f14-680d-40c6-9ecf-4e9872cdd31f" />
    <path
       id="path108"
       d="m 483.942,26.991 c 0,-0.855 0.666,-1.35 1.81,-1.35 0.333,0 0.666,0.063 1.08,0.216 v -0.378 c 0,-0.45 -0.297,-0.675 -0.919,-0.675 -0.351,0 -0.765,0.099 -1.305,0.324 l -0.505,-1.018 c 0.766,-0.342 1.45,-0.504 2.134,-0.504 1.288,0 2.035,0.639 2.035,1.747 v 2.971 h -1.44 v -0.405 c -0.405,0.342 -0.793,0.478 -1.288,0.478 -0.944,0 -1.602,-0.576 -1.602,-1.405 z m 2.052,0.441 c 0.307,0 0.586,-0.081 0.838,-0.234 v -0.594 c -0.271,-0.063 -0.531,-0.099 -0.802,-0.099 -0.477,0 -0.747,0.162 -0.747,0.459 0,0.297 0.261,0.468 0.711,0.468 z"
       class="uuid-bfa07f14-680d-40c6-9ecf-4e9872cdd31f" />
    <path
       id="path110"
       d="m 489.369,23.678 h 1.458 v 1.053 c 0.297,-0.774 0.712,-1.143 1.261,-1.143 0.207,0.009 0.306,0.027 0.486,0.117 v 1.251 c -0.181,-0.09 -0.433,-0.144 -0.685,-0.144 -0.432,0 -0.828,0.225 -1.062,0.576 v 2.935 h -1.458 v -4.646 z"
       class="uuid-bfa07f14-680d-40c6-9ecf-4e9872cdd31f" />
    <path
       id="path112"
       d="m 493.336,30.223 v -1.224 c 0.108,0.018 0.262,0.036 0.433,0.036 0.396,0 0.612,-0.162 0.756,-0.468 l 0.072,-0.153 -1.711,-4.735 h 1.612 l 0.927,2.998 1.062,-2.998 h 1.575 l -2.089,5.167 c -0.432,1.062 -0.963,1.45 -2.034,1.45 -0.171,0 -0.405,-0.027 -0.604,-0.072 z"
       class="uuid-bfa07f14-680d-40c6-9ecf-4e9872cdd31f" />
  </g>
  <g
     id="g160"
     transform="translate(-63.483002,-13.859)">
    <path
       id="path116"
       d="M 69.852,49.264 H 71.4 v 6.302 h -1.548 z" />
    <path
       id="path118"
       d="m 72.579,50.92 h 1.458 v 0.756 c 0.36,-0.54 0.864,-0.828 1.468,-0.828 0.9,0 1.54,0.657 1.54,1.584 v 3.133 h -1.458 v -2.71 c 0,-0.522 -0.306,-0.864 -0.774,-0.864 -0.315,0 -0.567,0.126 -0.774,0.387 v 3.187 h -1.458 v -4.646 z" />
    <path
       id="path120"
       d="m 78.051,49.39 c 0,-0.45 0.369,-0.819 0.819,-0.819 0.45,0 0.819,0.369 0.819,0.819 0,0.45 -0.369,0.819 -0.819,0.819 -0.45,0 -0.819,-0.369 -0.819,-0.819 z m 0.09,1.53 h 1.458 v 4.646 h -1.458 z" />
    <path
       id="path122"
       d="m 81.345,54.161 v -2.116 h -0.9 V 50.92 h 0.9 v -1.287 l 1.458,-0.297 v 1.584 h 1.243 v 1.125 h -1.243 v 1.828 c 0,0.414 0.162,0.558 0.612,0.558 0.171,0 0.306,-0.018 0.594,-0.099 v 1.179 c -0.27,0.081 -0.702,0.144 -1,0.144 -1.098,0 -1.666,-0.504 -1.666,-1.494 z" />
    <path
       id="path124"
       d="m 84.765,49.39 c 0,-0.45 0.369,-0.819 0.819,-0.819 0.45,0 0.819,0.369 0.819,0.819 0,0.45 -0.369,0.819 -0.819,0.819 -0.45,0 -0.819,-0.369 -0.819,-0.819 z m 0.09,1.53 h 1.458 v 4.646 h -1.458 z" />
    <path
       id="path126"
       d="m 87.23,54.233 c 0,-0.855 0.666,-1.35 1.81,-1.35 0.333,0 0.666,0.063 1.081,0.216 v -0.378 c 0,-0.45 -0.297,-0.675 -0.918,-0.675 -0.351,0 -0.765,0.099 -1.306,0.324 l -0.504,-1.018 c 0.765,-0.342 1.449,-0.504 2.134,-0.504 1.287,0 2.035,0.639 2.035,1.747 v 2.971 h -1.44 v -0.405 c -0.405,0.342 -0.792,0.478 -1.288,0.478 -0.945,0 -1.603,-0.576 -1.603,-1.405 z m 2.053,0.441 c 0.306,0 0.585,-0.081 0.837,-0.234 v -0.594 c -0.271,-0.063 -0.531,-0.099 -0.801,-0.099 -0.478,0 -0.748,0.162 -0.748,0.459 0,0.297 0.261,0.468 0.711,0.468 z" />
    <path
       id="path128"
       d="m 92.658,49.155 1.458,-0.225 v 6.635 h -1.458 z" />
    <path
       id="path130"
       d="m 97.869,52.046 h -0.963 v -1.125 h 0.963 v -0.612 c 0,-1.107 0.657,-1.71 1.854,-1.71 0.252,0 0.585,0.036 0.774,0.09 v 1.197 c -0.261,-0.045 -0.396,-0.054 -0.559,-0.054 -0.414,0 -0.612,0.162 -0.612,0.504 v 0.585 h 1.17 v 1.125 h -1.17 v 3.52 h -1.458 v -3.52 z" />
    <path
       id="path132"
       d="m 101.234,49.39 c 0,-0.45 0.369,-0.819 0.819,-0.819 0.45,0 0.819,0.369 0.819,0.819 0,0.45 -0.369,0.819 -0.819,0.819 -0.45,0 -0.819,-0.369 -0.819,-0.819 z m 0.09,1.53 h 1.458 v 4.646 h -1.458 z" />
    <path
       id="path134"
       d="m 103.917,49.155 1.458,-0.225 v 6.635 h -1.458 z" />
    <path
       id="path136"
       d="m 106.301,53.252 c 0,-1.359 1.009,-2.404 2.341,-2.404 1.341,0 2.287,1.017 2.287,2.458 v 0.315 h -3.196 c 0.135,0.522 0.558,0.873 1.089,0.873 0.387,0 0.711,-0.135 0.918,-0.387 l 0.963,0.801 c -0.603,0.531 -1.17,0.747 -1.953,0.747 -1.369,0 -2.449,-1.053 -2.449,-2.403 z m 3.277,-0.459 c -0.126,-0.495 -0.477,-0.81 -0.945,-0.81 -0.459,0 -0.783,0.297 -0.9,0.81 h 1.846 z" />
    <path
       id="path138"
       d="m 113.771,50.92 h 1.44 v 0.648 c 0.306,-0.414 0.819,-0.675 1.377,-0.675 1.143,0 2.052,1.053 2.052,2.359 0,1.306 -0.954,2.34 -2.161,2.34 -0.504,0 -0.945,-0.189 -1.251,-0.54 v 2.395 H 113.77 V 50.92 Z m 3.439,2.323 c 0,-0.657 -0.478,-1.143 -1.107,-1.143 -0.36,0 -0.639,0.126 -0.874,0.378 v 1.548 c 0.225,0.234 0.531,0.369 0.874,0.369 0.639,0 1.107,-0.486 1.107,-1.152 z" />
    <path
       id="path140"
       d="m 119.36,53.252 c 0,-1.359 1.009,-2.404 2.341,-2.404 1.341,0 2.287,1.017 2.287,2.458 v 0.315 h -3.196 c 0.135,0.522 0.558,0.873 1.089,0.873 0.387,0 0.711,-0.135 0.918,-0.387 l 0.963,0.801 c -0.603,0.531 -1.17,0.747 -1.953,0.747 -1.369,0 -2.449,-1.053 -2.449,-2.403 z m 3.277,-0.459 c -0.126,-0.495 -0.477,-0.81 -0.945,-0.81 -0.459,0 -0.783,0.297 -0.9,0.81 h 1.846 z" />
    <path
       id="path142"
       d="m 124.896,50.92 h 1.458 v 1.053 c 0.297,-0.774 0.711,-1.143 1.261,-1.143 0.207,0.009 0.306,0.027 0.486,0.117 v 1.251 c -0.18,-0.09 -0.432,-0.144 -0.684,-0.144 -0.432,0 -0.828,0.225 -1.062,0.576 v 2.935 h -1.458 v -4.646 z" />
    <path
       id="path144"
       d="m 128.874,50.92 h 1.458 v 0.738 c 0.342,-0.531 0.811,-0.81 1.377,-0.81 0.604,0 1.081,0.333 1.306,0.864 0.36,-0.558 0.882,-0.864 1.521,-0.864 0.855,0 1.458,0.675 1.458,1.629 v 3.088 h -1.458 v -2.8 c 0,-0.468 -0.279,-0.774 -0.693,-0.774 -0.27,0 -0.486,0.108 -0.675,0.351 v 3.223 h -1.458 v -2.8 c 0,-0.468 -0.279,-0.774 -0.693,-0.774 -0.27,0 -0.495,0.117 -0.685,0.36 v 3.214 h -1.458 v -4.646 z" />
    <path
       id="path146"
       d="m 137,49.39 c 0,-0.45 0.369,-0.819 0.819,-0.819 0.45,0 0.819,0.369 0.819,0.819 0,0.45 -0.369,0.819 -0.819,0.819 -0.45,0 -0.819,-0.369 -0.819,-0.819 z m 0.09,1.53 h 1.458 v 4.646 h -1.458 z" />
    <path
       id="path148"
       d="m 139.304,55.089 0.639,-0.972 c 0.667,0.351 1.044,0.468 1.495,0.468 0.414,0 0.666,-0.144 0.666,-0.378 0,-0.18 -0.135,-0.279 -0.432,-0.333 l -0.891,-0.162 c -0.9,-0.171 -1.369,-0.63 -1.369,-1.351 0,-0.945 0.729,-1.512 1.945,-1.512 0.648,0 1.288,0.18 1.891,0.531 l -0.667,0.927 c -0.468,-0.271 -0.9,-0.396 -1.332,-0.396 -0.351,0 -0.558,0.117 -0.558,0.315 0,0.189 0.117,0.27 0.477,0.333 l 0.873,0.162 c 0.918,0.171 1.396,0.639 1.396,1.341 0,0.909 -0.855,1.593 -1.999,1.593 -0.846,0 -1.594,-0.198 -2.134,-0.567 z" />
    <path
       id="path150"
       d="m 143.903,55.089 0.639,-0.972 c 0.667,0.351 1.044,0.468 1.495,0.468 0.414,0 0.666,-0.144 0.666,-0.378 0,-0.18 -0.135,-0.279 -0.432,-0.333 l -0.891,-0.162 c -0.9,-0.171 -1.369,-0.63 -1.369,-1.351 0,-0.945 0.729,-1.512 1.945,-1.512 0.648,0 1.287,0.18 1.891,0.531 l -0.667,0.927 c -0.468,-0.271 -0.9,-0.396 -1.332,-0.396 -0.351,0 -0.558,0.117 -0.558,0.315 0,0.189 0.117,0.27 0.477,0.333 l 0.873,0.162 c 0.918,0.171 1.396,0.639 1.396,1.341 0,0.909 -0.855,1.593 -1.999,1.593 -0.846,0 -1.594,-0.198 -2.134,-0.567 z" />
    <path
       id="path152"
       d="m 148.79,49.39 c 0,-0.45 0.369,-0.819 0.819,-0.819 0.45,0 0.819,0.369 0.819,0.819 0,0.45 -0.369,0.819 -0.819,0.819 -0.45,0 -0.819,-0.369 -0.819,-0.819 z m 0.09,1.53 h 1.458 v 4.646 h -1.458 z" />
    <path
       id="path154"
       d="m 151.265,53.252 c 0,-1.369 1.044,-2.404 2.421,-2.404 1.377,0 2.422,1.035 2.422,2.404 0,1.369 -1.044,2.403 -2.422,2.403 -1.378,0 -2.421,-1.035 -2.421,-2.403 z m 3.421,0 c 0,-0.693 -0.414,-1.188 -1,-1.188 -0.586,0 -0.999,0.495 -0.999,1.188 0,0.693 0.414,1.188 0.999,1.188 0.585,0 1,-0.495 1,-1.188 z" />
    <path
       id="path156"
       d="m 157.034,50.92 h 1.458 v 0.756 c 0.36,-0.54 0.864,-0.828 1.468,-0.828 0.9,0 1.54,0.657 1.54,1.584 v 3.133 h -1.458 v -2.71 c 0,-0.522 -0.306,-0.864 -0.774,-0.864 -0.315,0 -0.567,0.126 -0.774,0.387 v 3.187 h -1.458 v -4.646 z" />
    <path
       id="path158"
       d="m 162.217,55.089 0.639,-0.972 c 0.667,0.351 1.044,0.468 1.495,0.468 0.414,0 0.666,-0.144 0.666,-0.378 0,-0.18 -0.135,-0.279 -0.432,-0.333 l -0.891,-0.162 c -0.9,-0.171 -1.369,-0.63 -1.369,-1.351 0,-0.945 0.729,-1.512 1.945,-1.512 0.648,0 1.287,0.18 1.891,0.531 l -0.667,0.927 c -0.468,-0.271 -0.9,-0.396 -1.332,-0.396 -0.351,0 -0.558,0.117 -0.558,0.315 0,0.189 0.117,0.27 0.477,0.333 l 0.873,0.162 c 0.918,0.171 1.396,0.639 1.396,1.341 0,0.909 -0.855,1.593 -1.999,1.593 -0.846,0 -1.594,-0.198 -2.134,-0.567 z" />
  </g>
  <g
     id="g180"
     transform="translate(-63.483002,-13.859)">
    <path
       id="path162"
       d="m 244.537,50.778 h 1.017 v 0.972 c 0.252,-0.684 0.684,-1.053 1.242,-1.053 0.171,0.009 0.288,0.027 0.441,0.09 v 0.892 c -0.162,-0.063 -0.369,-0.108 -0.558,-0.108 -0.495,0 -0.9,0.279 -1.125,0.748 v 2.971 h -1.017 v -4.51 z" />
    <path
       id="path164"
       d="m 247.695,50.778 h 0.972 l 0.792,3.178 0.936,-3.178 h 0.855 l 0.927,3.178 0.792,-3.178 h 0.945 l -1.215,4.51 h -0.972 l -0.918,-3.178 -0.909,3.178 h -0.99 z" />
    <path
       id="path166"
       d="m 254.616,52.3 h 3.997 v 0.864 h -3.997 z" />
    <path
       id="path168"
       d="m 259.755,50.778 h 1.017 v 0.972 c 0.252,-0.684 0.684,-1.053 1.242,-1.053 0.171,0.009 0.288,0.027 0.441,0.09 v 0.892 c -0.162,-0.063 -0.369,-0.108 -0.558,-0.108 -0.495,0 -0.9,0.279 -1.125,0.748 v 2.971 h -1.017 v -4.51 z" />
    <path
       id="path170"
       d="m 262.914,50.778 h 0.972 l 0.792,3.178 0.936,-3.178 h 0.855 l 0.927,3.178 0.792,-3.178 h 0.945 l -1.215,4.51 h -0.972 l -0.918,-3.178 -0.909,3.178 h -0.99 z" />
    <path
       id="path172"
       d="m 269.835,52.3 h 3.997 v 0.864 h -3.997 z" />
    <path
       id="path174"
       d="m 274.974,50.778 h 1.017 v 0.972 c 0.252,-0.684 0.684,-1.053 1.242,-1.053 0.171,0.009 0.288,0.027 0.441,0.09 v 0.892 c -0.162,-0.063 -0.369,-0.108 -0.558,-0.108 -0.495,0 -0.9,0.279 -1.125,0.748 v 2.971 h -1.017 v -4.51 z" />
    <path
       id="path176"
       d="m 278.132,50.778 h 0.972 l 0.792,3.178 0.936,-3.178 h 0.855 l 0.927,3.178 0.792,-3.178 h 0.945 l -1.215,4.51 h -0.972 l -0.918,-3.178 -0.909,3.178 h -0.99 z" />
    <path
       id="path178"
       d="m 285.054,52.3 h 3.997 v 0.864 h -3.997 z" />
  </g>
  <g
     id="g200"
     transform="translate(-63.483002,-13.859)">
    <path
       id="path182"
       d="m 245.432,106.059 h 1.017 v 0.972 c 0.252,-0.684 0.684,-1.053 1.242,-1.053 0.171,0.009 0.288,0.027 0.441,0.09 v 0.892 c -0.162,-0.063 -0.369,-0.108 -0.558,-0.108 -0.495,0 -0.9,0.279 -1.125,0.748 v 2.971 h -1.017 v -4.51 z" />
    <path
       id="path184"
       d="m 248.591,106.059 h 0.972 l 0.792,3.178 0.936,-3.178 h 0.855 l 0.927,3.178 0.792,-3.178 h 0.945 l -1.215,4.51 h -0.972 l -0.918,-3.178 -0.909,3.178 h -0.99 z" />
    <path
       id="path186"
       d="m 255.512,107.58 h 3.997 v 0.864 h -3.997 z" />
    <path
       id="path188"
       d="m 260.651,106.059 h 1.017 v 0.972 c 0.252,-0.684 0.684,-1.053 1.242,-1.053 0.171,0.009 0.288,0.027 0.441,0.09 v 0.892 c -0.162,-0.063 -0.369,-0.108 -0.558,-0.108 -0.495,0 -0.9,0.279 -1.125,0.748 v 2.971 h -1.017 v -4.51 z" />
    <path
       id="path190"
       d="m 263.809,106.059 h 0.972 l 0.792,3.178 0.936,-3.178 h 0.855 l 0.927,3.178 0.792,-3.178 h 0.945 l -1.215,4.51 h -0.972 l -0.918,-3.178 -0.909,3.178 h -0.99 z" />
    <path
       id="path192"
       d="m 270.73,107.58 h 3.997 v 0.864 h -3.997 z" />
    <path
       id="path194"
       d="m 275.87,106.059 h 1.017 v 0.972 c 0.252,-0.684 0.684,-1.053 1.242,-1.053 0.171,0.009 0.288,0.027 0.441,0.09 v 0.892 c -0.162,-0.063 -0.369,-0.108 -0.558,-0.108 -0.495,0 -0.9,0.279 -1.125,0.748 v 2.971 h -1.017 v -4.51 z" />
    <path
       id="path196"
       d="m 279.146,107.58 h 3.997 v 0.864 h -3.997 z" />
    <path
       id="path198"
       d="m 284.158,107.58 h 3.997 v 0.864 h -3.997 z" />
  </g>
  <g
     id="g220"
     transform="translate(-63.483002,-13.859)">
    <path
       id="path202"
       d="m 243.875,79.94 h 3.997 v 0.864 h -3.997 z" />
    <path
       id="path204"
       d="m 248.888,79.94 h 3.997 v 0.864 h -3.997 z" />
    <path
       id="path206"
       d="m 253.9,79.94 h 3.998 v 0.864 H 253.9 Z" />
    <path
       id="path208"
       d="m 258.913,79.94 h 3.998 v 0.864 h -3.998 z" />
    <path
       id="path210"
       d="m 263.927,79.94 h 3.997 v 0.864 h -3.997 z" />
    <path
       id="path212"
       d="m 268.939,79.94 h 3.997 v 0.864 h -3.997 z" />
    <path
       id="path214"
       d="m 273.952,79.94 h 3.998 v 0.864 h -3.998 z" />
    <path
       id="path216"
       d="m 278.668,78.419 h 0.972 l 0.792,3.178 0.936,-3.178 h 0.855 l 0.927,3.178 0.792,-3.178 h 0.945 l -1.215,4.51 H 282.7 l -0.918,-3.178 -0.909,3.178 h -0.99 z" />
    <path
       id="path218"
       d="m 285.589,79.94 h 3.998 v 0.864 h -3.998 z" />
  </g>
  <g
     id="g230"
     transform="translate(-63.483002,-13.859)">
    <path
       id="path222"
       d="m 340.942,52.138 c 0,-1.936 1.053,-3.25 2.583,-3.25 1.53,0 2.575,1.314 2.575,3.25 0,1.936 -1.044,3.241 -2.575,3.241 -1.531,0 -2.583,-1.314 -2.583,-3.241 z m 4.177,0 c 0,-1.45 -0.621,-2.377 -1.594,-2.377 -0.973,0 -1.602,0.927 -1.602,2.377 0,1.44 0.63,2.368 1.602,2.368 0.972,0 1.594,-0.927 1.594,-2.368 z" />
    <path
       id="path224"
       d="m 347.007,52.3 c 0,-2.053 1.171,-3.412 2.935,-3.412 0.604,0 1.261,0.207 1.675,0.54 l -0.54,0.729 c -0.36,-0.261 -0.756,-0.387 -1.215,-0.387 -1.171,0 -1.855,0.936 -1.873,2.521 0.433,-0.594 1.071,-0.927 1.737,-0.927 1.233,0 2.116,0.811 2.116,1.936 0,1.198 -0.945,2.08 -2.224,2.08 -1.549,0 -2.611,-1.251 -2.611,-3.079 z m 1.026,0.594 c 0.162,0.99 0.747,1.638 1.549,1.638 0.738,0 1.287,-0.513 1.287,-1.215 0,-0.684 -0.531,-1.179 -1.296,-1.179 -0.595,0 -1.144,0.288 -1.54,0.756 z" />
    <path
       id="path226"
       d="m 352.705,52.3 c 0,-2.053 1.17,-3.412 2.935,-3.412 0.604,0 1.261,0.207 1.675,0.54 l -0.54,0.729 c -0.36,-0.261 -0.757,-0.387 -1.216,-0.387 -1.17,0 -1.854,0.936 -1.872,2.521 0.432,-0.594 1.071,-0.927 1.737,-0.927 1.233,0 2.115,0.811 2.115,1.936 0,1.198 -0.945,2.08 -2.224,2.08 -1.549,0 -2.61,-1.251 -2.61,-3.079 z m 1.026,0.594 c 0.162,0.99 0.747,1.638 1.548,1.638 0.738,0 1.288,-0.513 1.288,-1.215 0,-0.684 -0.531,-1.179 -1.297,-1.179 -0.594,0 -1.144,0.288 -1.539,0.756 z" />
    <path
       id="path228"
       d="m 358.402,52.3 c 0,-2.053 1.17,-3.412 2.935,-3.412 0.604,0 1.261,0.207 1.675,0.54 l -0.54,0.729 c -0.36,-0.261 -0.757,-0.387 -1.216,-0.387 -1.17,0 -1.854,0.936 -1.872,2.521 0.432,-0.594 1.071,-0.927 1.737,-0.927 1.233,0 2.115,0.811 2.115,1.936 0,1.198 -0.945,2.08 -2.224,2.08 -1.549,0 -2.61,-1.251 -2.61,-3.079 z m 1.026,0.594 c 0.162,0.99 0.747,1.638 1.548,1.638 0.738,0 1.288,-0.513 1.288,-1.215 0,-0.684 -0.531,-1.179 -1.297,-1.179 -0.594,0 -1.144,0.288 -1.539,0.756 z" />
  </g>
  <g
     id="g238"
     transform="translate(-63.483002,-13.859)">
    <path
       id="path232"
       d="m 418.548,52.138 c 0,-1.936 1.053,-3.25 2.583,-3.25 1.53,0 2.575,1.314 2.575,3.25 0,1.936 -1.044,3.241 -2.575,3.241 -1.531,0 -2.583,-1.314 -2.583,-3.241 z m 4.177,0 c 0,-1.45 -0.621,-2.377 -1.594,-2.377 -0.973,0 -1.602,0.927 -1.602,2.377 0,1.44 0.63,2.368 1.602,2.368 0.972,0 1.594,-0.927 1.594,-2.368 z" />
    <path
       id="path234"
       d="m 424.614,52.138 c 0,-1.936 1.054,-3.25 2.584,-3.25 1.53,0 2.575,1.314 2.575,3.25 0,1.936 -1.045,3.241 -2.575,3.241 -1.53,0 -2.584,-1.314 -2.584,-3.241 z m 4.178,0 c 0,-1.45 -0.621,-2.377 -1.594,-2.377 -0.973,0 -1.603,0.927 -1.603,2.377 0,1.44 0.63,2.368 1.603,2.368 0.973,0 1.594,-0.927 1.594,-2.368 z" />
    <path
       id="path236"
       d="m 430.68,52.138 c 0,-1.936 1.053,-3.25 2.583,-3.25 1.53,0 2.575,1.314 2.575,3.25 0,1.936 -1.044,3.241 -2.575,3.241 -1.531,0 -2.583,-1.314 -2.583,-3.241 z m 4.177,0 c 0,-1.45 -0.621,-2.377 -1.594,-2.377 -0.973,0 -1.602,0.927 -1.602,2.377 0,1.44 0.63,2.368 1.602,2.368 0.972,0 1.594,-0.927 1.594,-2.368 z" />
  </g>
  <g
     id="g246"
     transform="translate(-63.483002,-13.859)">
    <path
       id="path240"
       d="m 445.294,50.022 -1.116,0.477 v -0.873 l 1.477,-0.639 h 0.621 v 6.302 h -0.981 v -5.267 z" />
    <path
       id="path242"
       d="m 450.398,50.022 -1.117,0.477 v -0.873 l 1.477,-0.639 h 0.621 v 6.302 h -0.98 v -5.267 z" />
    <path
       id="path244"
       d="m 454.501,52.138 c 0,-1.936 1.053,-3.25 2.583,-3.25 1.53,0 2.575,1.314 2.575,3.25 0,1.936 -1.045,3.241 -2.575,3.241 -1.53,0 -2.583,-1.314 -2.583,-3.241 z m 4.177,0 c 0,-1.45 -0.621,-2.377 -1.594,-2.377 -0.973,0 -1.603,0.927 -1.603,2.377 0,1.44 0.631,2.368 1.603,2.368 0.972,0 1.594,-0.927 1.594,-2.368 z" />
  </g>
  <g
     id="g254"
     transform="translate(-63.483002,-13.859)">
    <path
       id="path248"
       d="m 470.079,50.022 -1.116,0.477 v -0.873 l 1.477,-0.639 h 0.621 v 6.302 h -0.981 v -5.267 z" />
    <path
       id="path250"
       d="m 475.181,50.022 -1.116,0.477 v -0.873 l 1.477,-0.639 h 0.621 v 6.302 h -0.981 v -5.267 z" />
    <path
       id="path252"
       d="m 479.285,52.138 c 0,-1.936 1.054,-3.25 2.584,-3.25 1.53,0 2.575,1.314 2.575,3.25 0,1.936 -1.045,3.241 -2.575,3.241 -1.53,0 -2.584,-1.314 -2.584,-3.241 z m 4.178,0 c 0,-1.45 -0.621,-2.377 -1.594,-2.377 -0.973,0 -1.603,0.927 -1.603,2.377 0,1.44 0.63,2.368 1.603,2.368 0.973,0 1.594,-0.927 1.594,-2.368 z" />
  </g>
  <g
     id="g262"
     transform="translate(-63.483002,-13.859)">
    <path
       id="path256"
       d="m 494.862,50.022 -1.116,0.477 v -0.873 l 1.477,-0.639 h 0.621 v 6.302 h -0.981 v -5.267 z" />
    <path
       id="path258"
       d="m 499.965,50.022 -1.116,0.477 v -0.873 l 1.477,-0.639 h 0.621 v 6.302 h -0.981 v -5.267 z" />
    <path
       id="path260"
       d="m 504.069,52.138 c 0,-1.936 1.053,-3.25 2.583,-3.25 1.53,0 2.575,1.314 2.575,3.25 0,1.936 -1.044,3.241 -2.575,3.241 -1.531,0 -2.583,-1.314 -2.583,-3.241 z m 4.177,0 c 0,-1.45 -0.621,-2.377 -1.594,-2.377 -0.973,0 -1.602,0.927 -1.602,2.377 0,1.44 0.63,2.368 1.602,2.368 0.972,0 1.594,-0.927 1.594,-2.368 z" />
  </g>
  <g
     id="g270"
     transform="translate(-63.483002,-13.859)">
    <path
       id="path264"
       d="m 418.548,79.778 c 0,-1.936 1.053,-3.25 2.583,-3.25 1.53,0 2.575,1.314 2.575,3.25 0,1.926 -1.044,3.24 -2.575,3.24 -1.531,0 -2.583,-1.314 -2.583,-3.24 z m 4.177,0 c 0,-1.45 -0.621,-2.377 -1.594,-2.377 -0.973,0 -1.602,0.927 -1.602,2.377 0,1.44 0.63,2.367 1.602,2.367 0.972,0 1.594,-0.927 1.594,-2.367 z" />
    <path
       id="path266"
       d="m 424.614,79.778 c 0,-1.936 1.054,-3.25 2.584,-3.25 1.53,0 2.575,1.314 2.575,3.25 0,1.926 -1.045,3.24 -2.575,3.24 -1.53,0 -2.584,-1.314 -2.584,-3.24 z m 4.178,0 c 0,-1.45 -0.621,-2.377 -1.594,-2.377 -0.973,0 -1.603,0.927 -1.603,2.377 0,1.44 0.63,2.367 1.603,2.367 0.973,0 1.594,-0.927 1.594,-2.367 z" />
    <path
       id="path268"
       d="m 430.68,79.778 c 0,-1.936 1.053,-3.25 2.583,-3.25 1.53,0 2.575,1.314 2.575,3.25 0,1.926 -1.044,3.24 -2.575,3.24 -1.531,0 -2.583,-1.314 -2.583,-3.24 z m 4.177,0 c 0,-1.45 -0.621,-2.377 -1.594,-2.377 -0.973,0 -1.602,0.927 -1.602,2.377 0,1.44 0.63,2.367 1.602,2.367 0.972,0 1.594,-0.927 1.594,-2.367 z" />
  </g>
  <g
     id="g278"
     transform="translate(-63.483002,-13.859)">
    <path
       id="path272"
       d="m 443.332,79.778 c 0,-1.936 1.054,-3.25 2.584,-3.25 1.53,0 2.575,1.314 2.575,3.25 0,1.926 -1.044,3.24 -2.575,3.24 -1.531,0 -2.584,-1.314 -2.584,-3.24 z m 4.178,0 c 0,-1.45 -0.621,-2.377 -1.594,-2.377 -0.973,0 -1.602,0.927 -1.602,2.377 0,1.44 0.629,2.367 1.602,2.367 0.973,0 1.594,-0.927 1.594,-2.367 z" />
    <path
       id="path274"
       d="m 449.398,79.778 c 0,-1.936 1.053,-3.25 2.584,-3.25 1.531,0 2.574,1.314 2.574,3.25 0,1.926 -1.044,3.24 -2.574,3.24 -1.53,0 -2.584,-1.314 -2.584,-3.24 z m 4.178,0 c 0,-1.45 -0.621,-2.377 -1.594,-2.377 -0.973,0 -1.603,0.927 -1.603,2.377 0,1.44 0.63,2.367 1.603,2.367 0.973,0 1.594,-0.927 1.594,-2.367 z" />
    <path
       id="path276"
       d="m 455.464,79.778 c 0,-1.936 1.053,-3.25 2.583,-3.25 1.53,0 2.575,1.314 2.575,3.25 0,1.926 -1.045,3.24 -2.575,3.24 -1.53,0 -2.583,-1.314 -2.583,-3.24 z m 4.177,0 c 0,-1.45 -0.621,-2.377 -1.594,-2.377 -0.973,0 -1.603,0.927 -1.603,2.377 0,1.44 0.631,2.367 1.603,2.367 0.972,0 1.594,-0.927 1.594,-2.367 z" />
  </g>
  <g
     id="g286"
     transform="translate(-63.483002,-13.859)">
    <path
       id="path280"
       d="m 468.116,79.778 c 0,-1.936 1.054,-3.25 2.584,-3.25 1.53,0 2.575,1.314 2.575,3.25 0,1.926 -1.045,3.24 -2.575,3.24 -1.53,0 -2.584,-1.314 -2.584,-3.24 z m 4.178,0 c 0,-1.45 -0.621,-2.377 -1.594,-2.377 -0.973,0 -1.603,0.927 -1.603,2.377 0,1.44 0.63,2.367 1.603,2.367 0.973,0 1.594,-0.927 1.594,-2.367 z" />
    <path
       id="path282"
       d="m 474.182,79.778 c 0,-1.936 1.053,-3.25 2.583,-3.25 1.53,0 2.575,1.314 2.575,3.25 0,1.926 -1.044,3.24 -2.575,3.24 -1.531,0 -2.583,-1.314 -2.583,-3.24 z m 4.177,0 c 0,-1.45 -0.621,-2.377 -1.594,-2.377 -0.973,0 -1.602,0.927 -1.602,2.377 0,1.44 0.63,2.367 1.602,2.367 0.972,0 1.594,-0.927 1.594,-2.367 z" />
    <path
       id="path284"
       d="m 480.248,79.778 c 0,-1.936 1.054,-3.25 2.584,-3.25 1.53,0 2.575,1.314 2.575,3.25 0,1.926 -1.045,3.24 -2.575,3.24 -1.53,0 -2.584,-1.314 -2.584,-3.24 z m 4.178,0 c 0,-1.45 -0.621,-2.377 -1.594,-2.377 -0.973,0 -1.603,0.927 -1.603,2.377 0,1.44 0.63,2.367 1.603,2.367 0.973,0 1.594,-0.927 1.594,-2.367 z" />
  </g>
  <g
     id="g294"
     transform="translate(-63.483002,-13.859)">
    <path
       id="path288"
       d="m 494.417,79.778 c 0,-1.936 1.053,-3.25 2.583,-3.25 1.53,0 2.575,1.314 2.575,3.25 0,1.936 -1.044,3.241 -2.575,3.241 -1.531,0 -2.583,-1.314 -2.583,-3.241 z m 4.177,0 c 0,-1.45 -0.621,-2.377 -1.594,-2.377 -0.973,0 -1.602,0.927 -1.602,2.377 0,1.44 0.63,2.368 1.602,2.368 0.972,0 1.594,-0.927 1.594,-2.368 z" />
    <path
       id="path290"
       d="m 501.436,77.662 -1.116,0.477 v -0.873 l 1.477,-0.639 h 0.621 v 6.302 h -0.981 v -5.267 z" />
    <path
       id="path292"
       d="m 503.515,79.778 c 0,-1.936 1.054,-3.25 2.584,-3.25 1.53,0 2.575,1.314 2.575,3.25 0,1.936 -1.045,3.241 -2.575,3.241 -1.53,0 -2.584,-1.314 -2.584,-3.241 z m 4.178,0 c 0,-1.45 -0.621,-2.377 -1.594,-2.377 -0.973,0 -1.603,0.927 -1.603,2.377 0,1.44 0.63,2.368 1.603,2.368 0.973,0 1.594,-0.927 1.594,-2.368 z" />
  </g>
  <g
     id="g302"
     transform="translate(-63.483002,-13.859)">
    <path
       id="path296"
       d="m 418.548,107.418 c 0,-1.936 1.053,-3.25 2.583,-3.25 1.53,0 2.575,1.314 2.575,3.25 0,1.936 -1.044,3.241 -2.575,3.241 -1.531,0 -2.583,-1.314 -2.583,-3.241 z m 4.177,0 c 0,-1.45 -0.621,-2.377 -1.594,-2.377 -0.973,0 -1.602,0.927 -1.602,2.377 0,1.44 0.63,2.368 1.602,2.368 0.972,0 1.594,-0.927 1.594,-2.368 z" />
    <path
       id="path298"
       d="m 424.614,107.418 c 0,-1.936 1.054,-3.25 2.584,-3.25 1.53,0 2.575,1.314 2.575,3.25 0,1.936 -1.045,3.241 -2.575,3.241 -1.53,0 -2.584,-1.314 -2.584,-3.241 z m 4.178,0 c 0,-1.45 -0.621,-2.377 -1.594,-2.377 -0.973,0 -1.603,0.927 -1.603,2.377 0,1.44 0.63,2.368 1.603,2.368 0.973,0 1.594,-0.927 1.594,-2.368 z" />
    <path
       id="path300"
       d="m 430.68,107.418 c 0,-1.936 1.053,-3.25 2.583,-3.25 1.53,0 2.575,1.314 2.575,3.25 0,1.936 -1.044,3.241 -2.575,3.241 -1.531,0 -2.583,-1.314 -2.583,-3.241 z m 4.177,0 c 0,-1.45 -0.621,-2.377 -1.594,-2.377 -0.973,0 -1.602,0.927 -1.602,2.377 0,1.44 0.63,2.368 1.602,2.368 0.972,0 1.594,-0.927 1.594,-2.368 z" />
  </g>
  <g
     id="g310"
     transform="translate(-63.483002,-13.859)">
    <path
       id="path304"
       d="m 445.294,105.302 -1.116,0.477 v -0.873 l 1.477,-0.639 h 0.621 v 6.302 h -0.981 v -5.267 z" />
    <path
       id="path306"
       d="m 450.398,105.302 -1.117,0.477 v -0.873 l 1.477,-0.639 h 0.621 v 6.302 h -0.98 v -5.267 z" />
    <path
       id="path308"
       d="m 454.501,107.418 c 0,-1.936 1.053,-3.25 2.583,-3.25 1.53,0 2.575,1.314 2.575,3.25 0,1.936 -1.045,3.241 -2.575,3.241 -1.53,0 -2.583,-1.314 -2.583,-3.241 z m 4.177,0 c 0,-1.45 -0.621,-2.377 -1.594,-2.377 -0.973,0 -1.603,0.927 -1.603,2.377 0,1.44 0.631,2.368 1.603,2.368 0.972,0 1.594,-0.927 1.594,-2.368 z" />
  </g>
  <g
     id="g318"
     transform="translate(-63.483002,-13.859)">
    <path
       id="path312"
       d="m 470.079,105.302 -1.116,0.477 v -0.873 l 1.477,-0.639 h 0.621 v 6.302 h -0.981 v -5.267 z" />
    <path
       id="path314"
       d="m 475.181,105.302 -1.116,0.477 v -0.873 l 1.477,-0.639 h 0.621 v 6.302 h -0.981 v -5.267 z" />
    <path
       id="path316"
       d="m 479.285,107.418 c 0,-1.936 1.054,-3.25 2.584,-3.25 1.53,0 2.575,1.314 2.575,3.25 0,1.936 -1.045,3.241 -2.575,3.241 -1.53,0 -2.584,-1.314 -2.584,-3.241 z m 4.178,0 c 0,-1.45 -0.621,-2.377 -1.594,-2.377 -0.973,0 -1.603,0.927 -1.603,2.377 0,1.44 0.63,2.368 1.603,2.368 0.973,0 1.594,-0.927 1.594,-2.368 z" />
  </g>
  <g
     id="g326"
     transform="translate(-63.483002,-13.859)">
    <path
       id="path320"
       d="m 495.393,105.302 -1.116,0.477 v -0.873 l 1.477,-0.639 h 0.621 v 6.302 h -0.981 v -5.267 z" />
    <path
       id="path322"
       d="m 497.472,107.418 c 0,-1.936 1.053,-3.25 2.583,-3.25 1.53,0 2.575,1.314 2.575,3.25 0,1.936 -1.044,3.241 -2.575,3.241 -1.531,0 -2.583,-1.314 -2.583,-3.241 z m 4.177,0 c 0,-1.45 -0.621,-2.377 -1.594,-2.377 -0.973,0 -1.602,0.927 -1.602,2.377 0,1.44 0.63,2.368 1.602,2.368 0.972,0 1.594,-0.927 1.594,-2.368 z" />
    <path
       id="path324"
       d="m 503.538,107.418 c 0,-1.936 1.054,-3.25 2.584,-3.25 1.53,0 2.575,1.314 2.575,3.25 0,1.936 -1.045,3.241 -2.575,3.241 -1.53,0 -2.584,-1.314 -2.584,-3.241 z m 4.178,0 c 0,-1.45 -0.621,-2.377 -1.594,-2.377 -0.973,0 -1.603,0.927 -1.603,2.377 0,1.44 0.63,2.368 1.603,2.368 0.973,0 1.594,-0.927 1.594,-2.368 z" />
  </g>
  <g
     id="g336"
     transform="translate(-63.483002,-13.859)">
    <path
       id="path328"
       d="m 340.862,107.418 c 0,-1.936 1.053,-3.25 2.583,-3.25 1.53,0 2.575,1.314 2.575,3.25 0,1.936 -1.044,3.241 -2.575,3.241 -1.531,0 -2.583,-1.314 -2.583,-3.241 z m 4.177,0 c 0,-1.45 -0.621,-2.377 -1.594,-2.377 -0.973,0 -1.602,0.927 -1.602,2.377 0,1.44 0.63,2.368 1.602,2.368 0.972,0 1.594,-0.927 1.594,-2.368 z" />
    <path
       id="path330"
       d="m 346.927,107.58 c 0,-2.053 1.171,-3.412 2.936,-3.412 0.603,0 1.26,0.207 1.674,0.54 l -0.54,0.729 c -0.36,-0.261 -0.756,-0.387 -1.215,-0.387 -1.171,0 -1.855,0.936 -1.873,2.521 0.433,-0.594 1.071,-0.927 1.737,-0.927 1.233,0 2.116,0.811 2.116,1.936 0,1.198 -0.945,2.08 -2.224,2.08 -1.549,0 -2.611,-1.251 -2.611,-3.079 z m 1.026,0.594 c 0.162,0.99 0.747,1.638 1.549,1.638 0.738,0 1.287,-0.513 1.287,-1.215 0,-0.684 -0.531,-1.179 -1.296,-1.179 -0.595,0 -1.144,0.288 -1.54,0.756 z" />
    <path
       id="path332"
       d="m 352.625,107.58 c 0,-2.053 1.17,-3.412 2.935,-3.412 0.604,0 1.261,0.207 1.675,0.54 l -0.54,0.729 c -0.36,-0.261 -0.757,-0.387 -1.216,-0.387 -1.17,0 -1.854,0.936 -1.872,2.521 0.432,-0.594 1.071,-0.927 1.737,-0.927 1.233,0 2.115,0.811 2.115,1.936 0,1.198 -0.945,2.08 -2.224,2.08 -1.548,0 -2.61,-1.251 -2.61,-3.079 z m 1.026,0.594 c 0.162,0.99 0.747,1.638 1.548,1.638 0.738,0 1.288,-0.513 1.288,-1.215 0,-0.684 -0.531,-1.179 -1.297,-1.179 -0.594,0 -1.144,0.288 -1.539,0.756 z" />
    <path
       id="path334"
       d="m 361.625,109.011 h -3.394 v -0.801 l 3.276,-3.943 h 1.071 v 3.898 h 0.838 v 0.846 h -0.838 v 1.558 h -0.954 v -1.558 z m 0,-0.846 v -2.818 l -2.322,2.818 z" />
  </g>
  <g
     id="g346"
     transform="translate(-63.483002,-13.859)">
    <path
       id="path338"
       d="m 340.947,79.778 c 0,-1.936 1.053,-3.25 2.583,-3.25 1.53,0 2.575,1.314 2.575,3.25 0,1.936 -1.044,3.241 -2.575,3.241 -1.531,0 -2.583,-1.314 -2.583,-3.241 z m 4.177,0 c 0,-1.45 -0.621,-2.377 -1.594,-2.377 -0.973,0 -1.602,0.927 -1.602,2.377 0,1.44 0.63,2.368 1.602,2.368 0.972,0 1.594,-0.927 1.594,-2.368 z" />
    <path
       id="path340"
       d="m 347.012,79.778 c 0,-1.936 1.054,-3.25 2.584,-3.25 1.53,0 2.575,1.314 2.575,3.25 0,1.936 -1.045,3.241 -2.575,3.241 -1.53,0 -2.584,-1.314 -2.584,-3.241 z m 4.178,0 c 0,-1.45 -0.621,-2.377 -1.594,-2.377 -0.973,0 -1.603,0.927 -1.603,2.377 0,1.44 0.63,2.368 1.603,2.368 0.973,0 1.594,-0.927 1.594,-2.368 z" />
    <path
       id="path342"
       d="m 353.079,79.778 c 0,-1.936 1.053,-3.25 2.583,-3.25 1.53,0 2.575,1.314 2.575,3.25 0,1.936 -1.044,3.241 -2.575,3.241 -1.531,0 -2.583,-1.314 -2.583,-3.241 z m 4.177,0 c 0,-1.45 -0.621,-2.377 -1.594,-2.377 -0.973,0 -1.602,0.927 -1.602,2.377 0,1.44 0.63,2.368 1.602,2.368 0.972,0 1.594,-0.927 1.594,-2.368 z" />
    <path
       id="path344"
       d="m 358.973,82.217 2.584,-2.701 c 0.459,-0.486 0.612,-0.801 0.612,-1.206 0,-0.522 -0.486,-0.918 -1.144,-0.918 -0.585,0 -1.035,0.207 -1.639,0.765 l -0.558,-0.675 c 0.693,-0.639 1.422,-0.954 2.215,-0.954 1.233,0 2.079,0.702 2.079,1.729 0,0.612 -0.216,1.053 -0.891,1.765 l -2.008,2.07 3.016,-0.009 v 0.846 h -4.268 v -0.711 z" />
  </g>
  <g
     id="g358"
     transform="translate(-63.483002,-13.859)">
    <path
       id="path348"
       d="M 69.771,81.693 V 78.56 h 1.458 v 2.71 c 0,0.522 0.306,0.864 0.774,0.864 0.315,0 0.567,-0.126 0.774,-0.387 V 78.56 h 1.458 v 4.646 H 72.777 V 82.45 c -0.36,0.541 -0.864,0.829 -1.467,0.829 -0.9,0 -1.54,-0.657 -1.54,-1.585 z" />
    <path
       id="path350"
       d="m 75.369,78.56 h 1.458 v 0.738 c 0.342,-0.531 0.811,-0.81 1.377,-0.81 0.604,0 1.081,0.333 1.306,0.864 0.36,-0.558 0.882,-0.864 1.521,-0.864 0.855,0 1.458,0.675 1.458,1.629 v 3.088 h -1.458 v -2.8 c 0,-0.468 -0.279,-0.774 -0.693,-0.774 -0.27,0 -0.486,0.108 -0.675,0.351 v 3.223 h -1.458 v -2.8 c 0,-0.468 -0.279,-0.774 -0.693,-0.774 -0.27,0 -0.495,0.117 -0.685,0.36 v 3.214 h -1.458 v -4.646 z" />
    <path
       id="path352"
       d="m 83.37,81.873 c 0,-0.855 0.666,-1.35 1.81,-1.35 0.333,0 0.666,0.063 1.08,0.216 v -0.378 c 0,-0.45 -0.297,-0.675 -0.918,-0.675 -0.351,0 -0.765,0.099 -1.306,0.324 l -0.504,-1.018 c 0.765,-0.342 1.449,-0.504 2.134,-0.504 1.287,0 2.034,0.639 2.034,1.747 v 2.971 h -1.44 v -0.405 c -0.405,0.342 -0.792,0.478 -1.287,0.478 -0.945,0 -1.603,-0.576 -1.603,-1.405 z m 2.053,0.441 c 0.306,0 0.585,-0.081 0.837,-0.234 v -0.594 c -0.27,-0.063 -0.531,-0.099 -0.801,-0.099 -0.478,0 -0.748,0.162 -0.748,0.459 0,0.297 0.261,0.468 0.711,0.468 z" />
    <path
       id="path354"
       d="m 88.418,82.729 0.639,-0.972 c 0.667,0.351 1.044,0.468 1.495,0.468 0.414,0 0.666,-0.144 0.666,-0.378 0,-0.18 -0.135,-0.279 -0.432,-0.333 l -0.891,-0.162 c -0.9,-0.171 -1.369,-0.63 -1.369,-1.351 0,-0.945 0.729,-1.512 1.945,-1.512 0.648,0 1.287,0.18 1.891,0.531 l -0.667,0.927 c -0.468,-0.271 -0.9,-0.396 -1.332,-0.396 -0.351,0 -0.558,0.117 -0.558,0.315 0,0.189 0.117,0.27 0.477,0.333 l 0.873,0.162 c 0.918,0.171 1.396,0.639 1.396,1.341 0,0.909 -0.855,1.593 -1.999,1.593 -0.846,0 -1.594,-0.198 -2.134,-0.567 z" />
    <path
       id="path356"
       d="m 93.396,76.769 1.458,-0.225 v 3.862 l 1.621,-1.846 h 1.612 l -1.891,2.08 2.025,2.566 h -1.818 l -1.549,-2.053 v 2.053 h -1.458 z" />
  </g>
  <g
     id="g408"
     transform="translate(-63.483002,-13.859)">
    <path
       id="path360"
       d="m 69.942,104.544 h 3.061 c 1.296,0 2.224,0.837 2.224,2.007 0,0.801 -0.459,1.45 -1.17,1.765 l 1.323,2.53 h -1.729 l -1.143,-2.313 H 71.49 v 2.313 h -1.548 z m 2.917,2.772 c 0.477,0 0.801,-0.297 0.801,-0.747 0,-0.45 -0.324,-0.747 -0.801,-0.747 H 71.49 v 1.494 z" />
    <path
       id="path362"
       d="m 75.702,108.532 c 0,-1.359 1.009,-2.404 2.341,-2.404 1.341,0 2.287,1.017 2.287,2.458 v 0.315 h -3.196 c 0.135,0.522 0.558,0.873 1.089,0.873 0.387,0 0.711,-0.135 0.918,-0.387 l 0.963,0.801 c -0.603,0.531 -1.17,0.747 -1.953,0.747 -1.369,0 -2.449,-1.053 -2.449,-2.403 z m 3.277,-0.459 c -0.126,-0.495 -0.477,-0.81 -0.945,-0.81 -0.459,0 -0.783,0.297 -0.9,0.81 h 1.846 z" />
    <path
       id="path364"
       d="m 80.903,110.368 0.639,-0.972 c 0.667,0.351 1.044,0.468 1.495,0.468 0.414,0 0.666,-0.144 0.666,-0.378 0,-0.18 -0.135,-0.279 -0.432,-0.333 l -0.891,-0.162 c -0.9,-0.171 -1.369,-0.63 -1.369,-1.351 0,-0.945 0.729,-1.512 1.945,-1.512 0.648,0 1.288,0.18 1.891,0.531 l -0.667,0.927 c -0.468,-0.271 -0.9,-0.396 -1.332,-0.396 -0.351,0 -0.558,0.117 -0.558,0.315 0,0.189 0.117,0.27 0.477,0.333 L 83.64,108 c 0.918,0.171 1.396,0.639 1.396,1.341 0,0.909 -0.855,1.593 -1.999,1.593 -0.846,0 -1.594,-0.198 -2.134,-0.567 z" />
    <path
       id="path366"
       d="M 85.845,109.333 V 106.2 h 1.458 v 2.71 c 0,0.522 0.306,0.864 0.774,0.864 0.315,0 0.567,-0.126 0.774,-0.387 V 106.2 h 1.458 v 4.646 h -1.458 v -0.756 c -0.36,0.541 -0.864,0.829 -1.467,0.829 -0.9,0 -1.54,-0.657 -1.54,-1.585 z" />
    <path
       id="path368"
       d="m 91.443,104.435 1.458,-0.225 v 6.635 h -1.458 z" />
    <path
       id="path370"
       d="m 94.646,109.441 v -2.116 h -0.9 V 106.2 h 0.9 v -1.287 l 1.458,-0.297 v 1.584 h 1.243 v 1.125 h -1.243 v 1.828 c 0,0.414 0.162,0.558 0.612,0.558 0.171,0 0.306,-0.018 0.594,-0.099 v 1.179 c -0.27,0.081 -0.702,0.144 -1,0.144 -1.098,0 -1.666,-0.504 -1.666,-1.494 z" />
    <path
       id="path372"
       d="m 98.066,104.67 c 0,-0.45 0.369,-0.819 0.819,-0.819 0.45,0 0.819,0.369 0.819,0.819 0,0.45 -0.369,0.819 -0.819,0.819 -0.45,0 -0.819,-0.369 -0.819,-0.819 z m 0.09,1.53 h 1.458 v 4.646 h -1.458 z" />
    <path
       id="path374"
       d="m 100.749,106.2 h 1.458 v 0.756 c 0.36,-0.54 0.864,-0.828 1.468,-0.828 0.9,0 1.54,0.657 1.54,1.584 v 3.133 h -1.458 v -2.71 c 0,-0.522 -0.306,-0.864 -0.774,-0.864 -0.315,0 -0.567,0.126 -0.774,0.387 v 3.187 h -1.458 v -4.646 z" />
    <path
       id="path376"
       d="m 106.581,112.403 0.45,-1.054 c 0.513,0.243 0.972,0.36 1.422,0.36 0.693,0 1.053,-0.288 1.053,-0.855 v -0.63 c -0.306,0.378 -0.811,0.612 -1.351,0.612 -1.143,0 -2.053,-1.044 -2.053,-2.341 0,-1.297 0.955,-2.323 2.161,-2.323 0.495,0 0.945,0.207 1.26,0.585 v -0.558 h 1.431 v 4.672 c 0,1.251 -0.864,1.945 -2.449,1.945 -0.702,0 -1.368,-0.144 -1.926,-0.414 z m 2.926,-3.124 v -1.548 c -0.225,-0.234 -0.531,-0.36 -0.864,-0.36 -0.639,0 -1.107,0.477 -1.107,1.134 0,0.657 0.477,1.144 1.107,1.144 0.351,0 0.639,-0.126 0.864,-0.369 z" />
    <path
       id="path378"
       d="m 114.708,107.325 h -0.963 V 106.2 h 0.963 v -0.612 c 0,-1.107 0.657,-1.71 1.854,-1.71 0.252,0 0.585,0.036 0.774,0.09 v 1.197 c -0.261,-0.045 -0.396,-0.054 -0.559,-0.054 -0.414,0 -0.612,0.162 -0.612,0.504 v 0.585 h 1.17 v 1.125 h -1.17 v 3.52 h -1.458 v -3.52 z" />
    <path
       id="path380"
       d="m 118.073,104.67 c 0,-0.45 0.369,-0.819 0.819,-0.819 0.45,0 0.819,0.369 0.819,0.819 0,0.45 -0.369,0.819 -0.819,0.819 -0.45,0 -0.819,-0.369 -0.819,-0.819 z m 0.09,1.53 h 1.458 v 4.646 h -1.458 z" />
    <path
       id="path382"
       d="m 120.755,104.435 1.458,-0.225 v 6.635 h -1.458 z" />
    <path
       id="path384"
       d="m 123.14,108.532 c 0,-1.359 1.008,-2.404 2.34,-2.404 1.341,0 2.287,1.017 2.287,2.458 v 0.315 h -3.196 c 0.135,0.522 0.558,0.873 1.089,0.873 0.387,0 0.711,-0.135 0.918,-0.387 l 0.963,0.801 c -0.603,0.531 -1.17,0.747 -1.954,0.747 -1.368,0 -2.448,-1.053 -2.448,-2.403 z m 3.277,-0.459 c -0.126,-0.495 -0.477,-0.81 -0.945,-0.81 -0.459,0 -0.783,0.297 -0.9,0.81 h 1.846 z" />
    <path
       id="path386"
       d="m 130.61,106.2 h 1.44 v 0.648 c 0.306,-0.414 0.819,-0.675 1.377,-0.675 1.143,0 2.052,1.053 2.052,2.359 0,1.306 -0.954,2.34 -2.161,2.34 -0.504,0 -0.945,-0.189 -1.251,-0.54 v 2.395 h -1.458 V 106.2 Z m 3.439,2.323 c 0,-0.657 -0.478,-1.143 -1.107,-1.143 -0.36,0 -0.639,0.126 -0.874,0.378 v 1.548 c 0.225,0.234 0.531,0.369 0.874,0.369 0.639,0 1.107,-0.486 1.107,-1.152 z" />
    <path
       id="path388"
       d="m 136.199,108.532 c 0,-1.359 1.009,-2.404 2.341,-2.404 1.341,0 2.287,1.017 2.287,2.458 v 0.315 h -3.196 c 0.135,0.522 0.558,0.873 1.089,0.873 0.387,0 0.711,-0.135 0.918,-0.387 l 0.963,0.801 c -0.603,0.531 -1.17,0.747 -1.953,0.747 -1.369,0 -2.449,-1.053 -2.449,-2.403 z m 3.277,-0.459 c -0.126,-0.495 -0.477,-0.81 -0.945,-0.81 -0.459,0 -0.783,0.297 -0.9,0.81 h 1.846 z" />
    <path
       id="path390"
       d="m 141.734,106.2 h 1.458 v 1.053 c 0.297,-0.774 0.711,-1.143 1.261,-1.143 0.207,0.009 0.306,0.027 0.486,0.117 v 1.251 c -0.18,-0.09 -0.432,-0.144 -0.684,-0.144 -0.432,0 -0.828,0.225 -1.062,0.576 v 2.935 h -1.458 v -4.646 z" />
    <path
       id="path392"
       d="m 145.712,106.2 h 1.458 v 0.738 c 0.342,-0.531 0.811,-0.81 1.377,-0.81 0.604,0 1.081,0.333 1.306,0.864 0.36,-0.558 0.882,-0.864 1.521,-0.864 0.855,0 1.458,0.675 1.458,1.629 v 3.088 h -1.458 v -2.8 c 0,-0.468 -0.279,-0.774 -0.693,-0.774 -0.27,0 -0.486,0.108 -0.675,0.351 v 3.223 h -1.458 v -2.8 c 0,-0.468 -0.279,-0.774 -0.693,-0.774 -0.27,0 -0.495,0.117 -0.685,0.36 v 3.214 h -1.458 v -4.646 z" />
    <path
       id="path394"
       d="m 153.839,104.67 c 0,-0.45 0.369,-0.819 0.819,-0.819 0.45,0 0.819,0.369 0.819,0.819 0,0.45 -0.369,0.819 -0.819,0.819 -0.45,0 -0.819,-0.369 -0.819,-0.819 z m 0.09,1.53 h 1.458 v 4.646 h -1.458 z" />
    <path
       id="path396"
       d="m 156.143,110.368 0.639,-0.972 c 0.667,0.351 1.044,0.468 1.495,0.468 0.414,0 0.666,-0.144 0.666,-0.378 0,-0.18 -0.135,-0.279 -0.432,-0.333 l -0.891,-0.162 c -0.9,-0.171 -1.369,-0.63 -1.369,-1.351 0,-0.945 0.729,-1.512 1.945,-1.512 0.648,0 1.288,0.18 1.891,0.531 l -0.667,0.927 c -0.468,-0.271 -0.9,-0.396 -1.332,-0.396 -0.351,0 -0.558,0.117 -0.558,0.315 0,0.189 0.117,0.27 0.477,0.333 L 158.88,108 c 0.918,0.171 1.396,0.639 1.396,1.341 0,0.909 -0.855,1.593 -1.999,1.593 -0.846,0 -1.594,-0.198 -2.134,-0.567 z" />
    <path
       id="path398"
       d="m 160.741,110.368 0.639,-0.972 c 0.667,0.351 1.044,0.468 1.495,0.468 0.414,0 0.666,-0.144 0.666,-0.378 0,-0.18 -0.135,-0.279 -0.432,-0.333 l -0.891,-0.162 c -0.9,-0.171 -1.369,-0.63 -1.369,-1.351 0,-0.945 0.729,-1.512 1.945,-1.512 0.648,0 1.288,0.18 1.891,0.531 l -0.667,0.927 c -0.468,-0.271 -0.9,-0.396 -1.332,-0.396 -0.351,0 -0.558,0.117 -0.558,0.315 0,0.189 0.117,0.27 0.477,0.333 l 0.873,0.162 c 0.918,0.171 1.396,0.639 1.396,1.341 0,0.909 -0.855,1.593 -1.999,1.593 -0.846,0 -1.594,-0.198 -2.134,-0.567 z" />
    <path
       id="path400"
       d="m 165.628,104.67 c 0,-0.45 0.369,-0.819 0.819,-0.819 0.45,0 0.819,0.369 0.819,0.819 0,0.45 -0.369,0.819 -0.819,0.819 -0.45,0 -0.819,-0.369 -0.819,-0.819 z m 0.09,1.53 h 1.458 v 4.646 h -1.458 z" />
    <path
       id="path402"
       d="m 168.103,108.532 c 0,-1.369 1.044,-2.404 2.422,-2.404 1.378,0 2.422,1.035 2.422,2.404 0,1.369 -1.044,2.403 -2.422,2.403 -1.378,0 -2.422,-1.035 -2.422,-2.403 z m 3.421,0 c 0,-0.693 -0.414,-1.188 -1,-1.188 -0.586,0 -0.999,0.495 -0.999,1.188 0,0.693 0.414,1.188 0.999,1.188 0.585,0 1,-0.495 1,-1.188 z" />
    <path
       id="path404"
       d="m 173.873,106.2 h 1.458 v 0.756 c 0.36,-0.54 0.864,-0.828 1.468,-0.828 0.9,0 1.54,0.657 1.54,1.584 v 3.133 h -1.458 v -2.71 c 0,-0.522 -0.306,-0.864 -0.774,-0.864 -0.315,0 -0.567,0.126 -0.774,0.387 v 3.187 h -1.458 v -4.646 z" />
    <path
       id="path406"
       d="m 179.056,110.368 0.639,-0.972 c 0.667,0.351 1.044,0.468 1.495,0.468 0.414,0 0.666,-0.144 0.666,-0.378 0,-0.18 -0.135,-0.279 -0.432,-0.333 l -0.891,-0.162 c -0.9,-0.171 -1.369,-0.63 -1.369,-1.351 0,-0.945 0.729,-1.512 1.945,-1.512 0.648,0 1.287,0.18 1.891,0.531 l -0.667,0.927 c -0.468,-0.271 -0.9,-0.396 -1.332,-0.396 -0.351,0 -0.558,0.117 -0.558,0.315 0,0.189 0.117,0.27 0.477,0.333 l 0.873,0.162 c 0.918,0.171 1.396,0.639 1.396,1.341 0,0.909 -0.855,1.593 -1.999,1.593 -0.846,0 -1.594,-0.198 -2.134,-0.567 z" />
  </g>
</svg>
