<?xml version="1.0" encoding="UTF-8" standalone="no"?>
<svg
   xmlns:dc="http://purl.org/dc/elements/1.1/"
   xmlns:cc="http://creativecommons.org/ns#"
   xmlns:rdf="http://www.w3.org/1999/02/22-rdf-syntax-ns#"
   xmlns:svg="http://www.w3.org/2000/svg"
   xmlns="http://www.w3.org/2000/svg"
   xmlns:sodipodi="http://sodipodi.sourceforge.net/DTD/sodipodi-0.dtd"
   xmlns:inkscape="http://www.inkscape.org/namespaces/inkscape"
   inkscape:version="1.0 (4035a4f, 2020-05-01)"
   sodipodi:docname="user-perms.svg"
   version="1.1"
   viewBox="0 0 595.276 186.307"
   height="186.307"
   width="595.276"
   data-name="Layer 1"
   id="bbed2673-d48d-4966-bc80-a90d4db7ad75">
  <metadata
     id="metadata275">
    <rdf:RDF>
      <cc:Work
         rdf:about="">
        <dc:format>image/svg+xml</dc:format>
        <dc:type
           rdf:resource="http://purl.org/dc/dcmitype/StillImage" />
        <dc:title></dc:title>
        <dc:language></dc:language>
        <dc:subject>
          <rdf:Bag>
            <rdf:li>user</rdf:li>
            <rdf:li>permissions</rdf:li>
            <rdf:li>binary</rdf:li>
          </rdf:Bag>
        </dc:subject>
      </cc:Work>
    </rdf:RDF>
  </metadata>
  <sodipodi:namedview
     inkscape:current-layer="bbed2673-d48d-4966-bc80-a90d4db7ad75"
     inkscape:window-maximized="0"
     inkscape:window-y="25"
     inkscape:window-x="0"
     inkscape:cy="93.153503"
     inkscape:cx="297.638"
     inkscape:zoom="1.8428426"
     showgrid="false"
     id="namedview273"
     inkscape:window-height="480"
     inkscape:window-width="709"
     inkscape:pageshadow="2"
     inkscape:pageopacity="0"
     guidetolerance="10"
     gridtolerance="10"
     objecttolerance="10"
     borderopacity="1"
     bordercolor="#666666"
     pagecolor="#ffffff" />
  <defs
     id="defs12">
    <style
       id="style10">
      .edbea9a6-5916-43b9-810f-9fa229fd40c0 {
        fill: #dbe8f5;
      }

      .fa4c7e73-5edd-41f2-a91a-6356ac54bb7e {
        fill: #a1c2e7;
      }

      .a9a07b4f-185a-4606-a76f-a66e61bdd1b4 {
        fill: #fff;
      }

      .e092d05b-34dd-4a9e-9f9b-890e40a3fd17 {
        fill: none;
        stroke: #000;
        stroke-miterlimit: 10;
        stroke-width: 0.5px;
      }
    </style>
  </defs>
  <rect
     id="rect14"
     height="145.263"
     width="150.244"
     y="20.522"
     x="22.653"
     class="edbea9a6-5916-43b9-810f-9fa229fd40c0" />
  <rect
     id="rect16"
     height="145.263"
     width="394.149"
     y="20.522"
     x="178.473"
     class="fa4c7e73-5edd-41f2-a91a-6356ac54bb7e" />
  <rect
     id="rect18"
     height="131.6"
     width="121.779"
     y="26.353"
     x="185.537"
     class="a9a07b4f-185a-4606-a76f-a66e61bdd1b4" />
  <g
     id="g52">
    <path
       id="path20"
       d="M35.255,29.516h3.807c1.5,0,2.563.88,2.563,2.1A1.921,1.921,0,0,1,40.5,33.29a1.949,1.949,0,0,1,1.343,1.771c0,1.265-1.078,2.156-2.608,2.156H35.255Zm3.587,3.092a.794.794,0,0,0,.88-.792.783.783,0,0,0-.88-.793H37.148v1.585ZM39,35.71a.851.851,0,1,0,0-1.694H37.148V35.71Z" />
    <path
       id="path22"
       d="M43,29.67a1,1,0,1,1,1,1A1.005,1.005,0,0,1,43,29.67Zm.109,1.871h1.783v5.676H43.109Z" />
    <path
       id="path24"
       d="M46.277,31.541H48.06v.923a2.094,2.094,0,0,1,1.793-1.011,1.834,1.834,0,0,1,1.881,1.936v3.828H49.952V33.906a.945.945,0,0,0-.946-1.056,1.144,1.144,0,0,0-.946.473v3.894H46.277Z" />
    <path
       id="path26"
       d="M52.812,35.589c0-1.046.813-1.65,2.211-1.65a3.7,3.7,0,0,1,1.32.264v-.462c0-.55-.363-.825-1.122-.825a4.237,4.237,0,0,0-1.6.4l-.616-1.243a6.287,6.287,0,0,1,2.608-.616c1.573,0,2.486.781,2.486,2.133v3.631h-1.76v-.495a2.261,2.261,0,0,1-1.573.583A1.766,1.766,0,0,1,52.812,35.589Zm2.508.539a1.938,1.938,0,0,0,1.023-.286v-.726a4.259,4.259,0,0,0-.979-.121c-.583,0-.913.2-.913.561S54.77,36.128,55.32,36.128Z" />
    <path
       id="path28"
       d="M59.444,31.541h1.783v1.287c.362-.947.868-1.4,1.54-1.4a1.217,1.217,0,0,1,.594.144V33.1a1.953,1.953,0,0,0-.837-.177,1.569,1.569,0,0,0-1.3.7v3.587H59.444Z" />
    <path
       id="path30"
       d="M64.3,39.539v-1.5a3.273,3.273,0,0,0,.528.044.911.911,0,0,0,.925-.572l.087-.186-2.09-5.787h1.969L66.848,35.2l1.3-3.663h1.925l-2.552,6.314a2.338,2.338,0,0,1-2.487,1.771A3.693,3.693,0,0,1,64.3,39.539Z" />
    <path
       id="path32"
       d="M73.007,33.367a4.044,4.044,0,0,1,7.184-2.476L78.915,32.1a2.243,2.243,0,0,0-1.849-1.022,2.3,2.3,0,0,0,0,4.576,2.244,2.244,0,0,0,1.849-1.023l1.276,1.21a4.044,4.044,0,0,1-7.184-2.475Z" />
    <path
       id="path34"
       d="M80.707,34.39a2.959,2.959,0,1,1,2.959,2.938A2.887,2.887,0,0,1,80.707,34.39Zm4.18,0a1.239,1.239,0,1,0-1.221,1.452A1.3,1.3,0,0,0,84.887,34.39Z" />
    <path
       id="path36"
       d="M87.758,31.541h1.783v.923a2.092,2.092,0,0,1,1.792-1.011,1.834,1.834,0,0,1,1.882,1.936v3.828H91.433V33.906a.945.945,0,0,0-.947-1.056,1.143,1.143,0,0,0-.945.473v3.894H87.758Z" />
    <path
       id="path38"
       d="M93.665,31.541H95.6L96.888,35.1l1.3-3.564h1.837L97.7,37.217H95.964Z" />
    <path
       id="path40"
       d="M100.375,34.39a2.845,2.845,0,0,1,2.86-2.937,2.786,2.786,0,0,1,2.794,3v.385h-3.905a1.362,1.362,0,0,0,1.331,1.067,1.4,1.4,0,0,0,1.122-.473l1.177.98a3.312,3.312,0,0,1-2.387.913A2.935,2.935,0,0,1,100.375,34.39Zm4-.561a1.192,1.192,0,0,0-1.155-.991,1.118,1.118,0,0,0-1.1.991Z" />
    <path
       id="path42"
       d="M107.14,31.541h1.782v1.287c.363-.947.87-1.4,1.54-1.4a1.223,1.223,0,0,1,.595.144V33.1a1.96,1.96,0,0,0-.837-.177,1.571,1.571,0,0,0-1.3.7v3.587H107.14Z" />
    <path
       id="path44"
       d="M111.65,36.634l.78-1.188a3.682,3.682,0,0,0,1.827.572c.506,0,.814-.176.814-.462,0-.22-.165-.341-.529-.407l-1.088-.2c-1.1-.209-1.672-.77-1.672-1.651,0-1.154.89-1.847,2.376-1.847a4.562,4.562,0,0,1,2.31.648l-.814,1.134a3.213,3.213,0,0,0-1.628-.485c-.429,0-.683.144-.683.385s.144.33.584.407l1.067.2c1.122.209,1.7.781,1.7,1.639a2.184,2.184,0,0,1-2.442,1.948A4.639,4.639,0,0,1,111.65,36.634Z" />
    <path
       id="path46"
       d="M117.623,29.67a1,1,0,1,1,1,1A1.005,1.005,0,0,1,117.623,29.67Zm.11,1.871h1.782v5.676h-1.782Z" />
    <path
       id="path48"
       d="M120.648,34.39a2.96,2.96,0,1,1,2.959,2.938A2.886,2.886,0,0,1,120.648,34.39Zm4.181,0a1.24,1.24,0,1,0-1.222,1.452A1.3,1.3,0,0,0,124.829,34.39Z" />
    <path
       id="path50"
       d="M127.7,31.541h1.782v.923a2.092,2.092,0,0,1,1.793-1.011,1.833,1.833,0,0,1,1.881,1.936v3.828h-1.782V33.906a.945.945,0,0,0-.946-1.056,1.144,1.144,0,0,0-.946.473v3.894H127.7Z" />
  </g>
  <g
     id="g68">
    <path
       id="path54"
       d="M194.316,38.551a5.75,5.75,0,0,1,2.75-5.149l.947,1.089a4.927,4.927,0,0,0,0,8.119l-.947,1.09A5.749,5.749,0,0,1,194.316,38.551Z" />
    <path
       id="path56"
       d="M199.024,39.376V35.548h1.782v3.311a.945.945,0,0,0,.946,1.056,1.145,1.145,0,0,0,.947-.473V35.548h1.782v5.677H202.7V40.3a2.094,2.094,0,0,1-1.794,1.011A1.834,1.834,0,0,1,199.024,39.376Z" />
    <path
       id="path58"
       d="M209.232,38.551a5.749,5.749,0,0,1-2.75,5.149l-.946-1.09a4.928,4.928,0,0,0,0-8.119l.946-1.089A5.75,5.75,0,0,1,209.232,38.551Z" />
    <path
       id="path60"
       d="M212.917,39.376V35.548H214.7v3.311a.945.945,0,0,0,.946,1.056,1.144,1.144,0,0,0,.946-.473V35.548h1.783v5.677h-1.783V40.3a2.094,2.094,0,0,1-1.793,1.011A1.834,1.834,0,0,1,212.917,39.376Z" />
    <path
       id="path62"
       d="M219.3,40.642l.781-1.189a3.666,3.666,0,0,0,1.826.572c.506,0,.814-.175.814-.462,0-.219-.165-.34-.528-.407l-1.089-.2c-1.1-.209-1.672-.77-1.672-1.65,0-1.155.891-1.848,2.376-1.848a4.576,4.576,0,0,1,2.311.648l-.814,1.134a3.217,3.217,0,0,0-1.629-.484c-.429,0-.682.143-.682.385s.143.33.583.407l1.068.2c1.122.209,1.705.781,1.705,1.64a2.184,2.184,0,0,1-2.443,1.947A4.639,4.639,0,0,1,219.3,40.642Z" />
    <path
       id="path64"
       d="M225.182,38.4a2.845,2.845,0,0,1,2.86-2.937,2.786,2.786,0,0,1,2.794,3v.386h-3.905a1.362,1.362,0,0,0,1.331,1.066,1.4,1.4,0,0,0,1.122-.473l1.178.98a3.316,3.316,0,0,1-2.388.913A2.935,2.935,0,0,1,225.182,38.4Zm4.005-.561a1.192,1.192,0,0,0-1.156-.99,1.117,1.117,0,0,0-1.1.99Z" />
    <path
       id="path66"
       d="M231.946,35.548h1.783v1.287c.363-.946.869-1.4,1.54-1.4a1.216,1.216,0,0,1,.594.143V37.11a1.952,1.952,0,0,0-.836-.176,1.568,1.568,0,0,0-1.3.7v3.587h-1.783Z" />
  </g>
  <path
     id="path70"
     d="M212.741,66.019l-1.365.583V65.534l1.805-.781h.758v7.7h-1.2Z" />
  <path
     id="path72"
     d="M211.458,87.628H212.7v1.189a1.654,1.654,0,0,1,1.518-1.287,1.473,1.473,0,0,1,.539.109v1.089a2,2,0,0,0-.682-.132,1.5,1.5,0,0,0-1.375.913V93.14h-1.244Z" />
  <line
     id="line74"
     y2="76.89"
     x2="225.993"
     y1="76.89"
     x1="199.707"
     class="e092d05b-34dd-4a9e-9f9b-890e40a3fd17" />
  <path
     id="path76"
     d="M246.142,66.019l-1.365.583V65.534l1.805-.781h.758v7.7h-1.2Z" />
  <path
     id="path78"
     d="M242.456,87.628h1.189l.967,3.884,1.145-3.884H246.8l1.133,3.884.968-3.884h1.155l-1.485,5.512h-1.188l-1.122-3.884-1.112,3.884h-1.21Z" />
  <line
     id="line80"
     y2="76.89"
     x2="259.394"
     y1="76.89"
     x1="233.108"
     class="e092d05b-34dd-4a9e-9f9b-890e40a3fd17" />
  <g
     id="g110">
    <path
       id="path82"
       d="M243.144,126.035c0-2.453,1.5-4.093,3.74-4.093a3.643,3.643,0,0,1,2.344.836l-.98,1.211a2.144,2.144,0,0,0-1.5-.529c-1.254,0-1.925.947-1.925,2.629A2.406,2.406,0,0,1,246.8,125a2.368,2.368,0,0,1,2.585,2.333,2.639,2.639,0,0,1-2.849,2.552C244.508,129.885,243.144,128.333,243.144,126.035Zm1.782.957a1.647,1.647,0,0,0,1.518,1.441,1.155,1.155,0,0,0,1.276-1.067,1.085,1.085,0,0,0-1.21-1.045A2.141,2.141,0,0,0,244.926,126.992Z" />
    <g
       id="g108">
      <path
         id="path84"
         d="M213.846,138.744a5.758,5.758,0,0,1,2.608-5.127l.418.561a5.749,5.749,0,0,0,0,9.132l-.418.549A5.737,5.737,0,0,1,213.846,138.744Z" />
      <path
         id="path86"
         d="M218.257,136.081h.8v1.1a1.6,1.6,0,0,1,1.5-1.189,1.55,1.55,0,0,1,.506.077v.727a1.973,1.973,0,0,0-.561-.1,1.531,1.531,0,0,0-1.441,1.09v3.663h-.8Z" />
      <path
         id="path88"
         d="M221.557,138.766a2.613,2.613,0,0,1,2.53-2.773,2.536,2.536,0,0,1,2.464,2.707v.241h-4.213a1.958,1.958,0,0,0,1.914,1.915,2.193,2.193,0,0,0,1.474-.55l.506.539a3.135,3.135,0,0,1-2.013.716A2.683,2.683,0,0,1,221.557,138.766Zm4.2-.4a1.772,1.772,0,0,0-1.683-1.683,1.793,1.793,0,0,0-1.716,1.683Z" />
      <path
         id="path90"
         d="M227.53,139.91c0-.957.8-1.6,2.013-1.6a3.108,3.108,0,0,1,1.639.418V138a1.209,1.209,0,0,0-1.386-1.332,3.547,3.547,0,0,0-1.628.463l-.3-.616a4.588,4.588,0,0,1,2.024-.518c1.332,0,2.08.671,2.08,1.893v3.564h-.793v-.627a2.3,2.3,0,0,1-1.7.726A1.733,1.733,0,0,1,227.53,139.91Zm2.112,1.024a2.126,2.126,0,0,0,1.54-.617v-1.034a2.834,2.834,0,0,0-1.518-.386c-.825,0-1.364.4-1.364.991C228.3,140.515,228.839,140.934,229.642,140.934Z" />
      <path
         id="path92"
         d="M233.359,138.776a2.614,2.614,0,0,1,2.52-2.76,2.183,2.183,0,0,1,1.672.748v-3.257l.8-.165v8.108h-.8v-.715a2.115,2.115,0,0,1-1.716.792A2.592,2.592,0,0,1,233.359,138.776Zm4.192,1.332v-2.663a1.986,1.986,0,1,0-1.518,3.378A1.839,1.839,0,0,0,237.551,140.108Z" />
      <path
         id="path94"
         d="M244.7,137.863h-1.838v-.66H244.7v-1.991h.682V137.2h1.837v.66h-1.837v1.991H244.7Z" />
      <path
         id="path96"
         d="M251.212,136.081h.781l1.122,4.291,1.287-4.291h.715l1.288,4.291,1.111-4.291h.759l-1.463,5.369h-.781l-1.277-4.335-1.276,4.335h-.792Z" />
      <path
         id="path98"
         d="M259.407,136.081h.8v1.1a1.6,1.6,0,0,1,1.5-1.189,1.544,1.544,0,0,1,.5.077v.727a1.961,1.961,0,0,0-.561-.1,1.531,1.531,0,0,0-1.441,1.09v3.663h-.8Z" />
      <path
         id="path100"
         d="M263.092,134.178a.583.583,0,1,1,.583.572A.585.585,0,0,1,263.092,134.178Zm.176,1.9h.8v5.369h-.8Z" />
      <path
         id="path102"
         d="M266.359,140.251v-3.51h-1.111v-.66h1.111v-1.474l.8-.187v1.661h1.54v.66h-1.54v3.3c0,.572.22.8.781.8a1.928,1.928,0,0,0,.759-.143v.715a2.987,2.987,0,0,1-.935.144C266.843,141.561,266.359,141.109,266.359,140.251Z" />
      <path
         id="path104"
         d="M269.527,138.766a2.613,2.613,0,0,1,2.53-2.773,2.536,2.536,0,0,1,2.464,2.707v.241h-4.213a1.958,1.958,0,0,0,1.914,1.915,2.2,2.2,0,0,0,1.475-.55l.506.539a3.138,3.138,0,0,1-2.014.716A2.683,2.683,0,0,1,269.527,138.766Zm4.2-.4a1.772,1.772,0,0,0-1.683-1.683,1.793,1.793,0,0,0-1.716,1.683Z" />
      <path
         id="path106"
         d="M278.657,138.744a5.757,5.757,0,0,1-2.607,5.126l-.418-.56a5.75,5.75,0,0,0,0-9.132l.418-.55A5.739,5.739,0,0,1,278.657,138.744Z" />
    </g>
  </g>
  <g
     id="g126">
    <path
       id="path112"
       d="M73.044,128H68.9v-.98l4-4.818H74.21v4.764h1.023V128H74.21v1.9H73.044Zm0-1.034v-3.444l-2.839,3.444Z" />
    <path
       id="path114"
       d="M80.9,126.461H79.082V125.5H80.9v-1.959h.99V125.5H83.7v.957H81.887v1.958H80.9Z" />
    <path
       id="path116"
       d="M87.728,129.035l3.157-3.3a2.037,2.037,0,0,0,.748-1.473,1.25,1.25,0,0,0-1.4-1.122,2.763,2.763,0,0,0-2,.934l-.682-.825a3.915,3.915,0,0,1,2.706-1.166c1.507,0,2.541.858,2.541,2.112a2.926,2.926,0,0,1-1.089,2.157l-2.453,2.53,3.685-.011V129.9H87.728Z" />
    <path
       id="path118"
       d="M98.717,126.461H96.9V125.5h1.815v-1.959h.99V125.5h1.815v.957H99.707v1.958h-.99Z" />
    <path
       id="path120"
       d="M106.758,123.469l-1.364.583v-1.068l1.8-.781h.759v7.7h-1.2Z" />
    <path
       id="path122"
       d="M112.213,124.535h4.621v.957h-4.621Zm0,1.981h4.621v.957h-4.621Z" />
    <path
       id="path124"
       d="M124.875,123.7h-4.181v-1.5h6.018v1.266l-3.1,6.435h-2.035Z" />
  </g>
  <path
     id="path128"
     d="M276.5,68.6c0-2.366,1.287-3.972,3.157-3.972S282.8,66.238,282.8,68.6s-1.277,3.96-3.147,3.96S276.5,70.958,276.5,68.6Zm5.105,0c0-1.772-.76-2.905-1.948-2.905s-1.958,1.133-1.958,2.905.77,2.893,1.958,2.893S281.6,70.364,281.6,68.6Z" />
  <path
     id="path130"
     d="M278.926,90.3l-1.991-2.673H278.4l1.287,1.816,1.288-1.816h1.4l-2.014,2.706,2.1,2.806h-1.453l-1.386-1.925-1.386,1.925h-1.386Z" />
  <line
     id="line132"
     y2="76.89"
     x2="292.795"
     y1="76.89"
     x1="266.509"
     class="e092d05b-34dd-4a9e-9f9b-890e40a3fd17" />
  <path
     id="path134"
     d="M64.265,67.019,62.9,67.6V66.534l1.8-.781h.759v7.7h-1.2Z" />
  <path
     id="path136"
     d="M65.382,92.237H61.234v-.98l4.005-4.818h1.309V91.2h1.023v1.034H66.548v1.9H65.382Zm0-1.034V87.759L62.543,91.2Z" />
  <line
     id="line138"
     y2="77.89"
     x2="77.517"
     y1="77.89"
     x1="51.232"
     class="e092d05b-34dd-4a9e-9f9b-890e40a3fd17" />
  <g
     id="g146">
    <path
       id="path140"
       d="M97.666,67.019,96.3,67.6V66.534l1.8-.781h.759v7.7h-1.2Z" />
    <path
       id="path142"
       d="M95.2,93.271l3.157-3.3a2.039,2.039,0,0,0,.748-1.473,1.25,1.25,0,0,0-1.4-1.122,2.76,2.76,0,0,0-2,.934l-.682-.825a3.917,3.917,0,0,1,2.706-1.166c1.507,0,2.541.858,2.541,2.112a2.922,2.922,0,0,1-1.089,2.156l-2.453,2.531,3.686-.011V94.14H95.2Z" />
    <line
       id="line144"
       y2="77.89"
       x2="110.918"
       y1="77.89"
       x1="84.633"
       class="e092d05b-34dd-4a9e-9f9b-890e40a3fd17" />
  </g>
  <path
     id="path148"
     d="M131.067,67.019,129.7,67.6V66.534l1.8-.781h.759v7.7h-1.2Z" />
  <path
     id="path150"
     d="M131.067,87.705l-1.364.583V87.22l1.8-.781h.759v7.7h-1.2Z" />
  <line
     id="line152"
     y2="77.89"
     x2="144.319"
     y1="77.89"
     x1="118.034"
     class="e092d05b-34dd-4a9e-9f9b-890e40a3fd17" />
  <path
     id="path154"
     d="M194.12,100.411V104.2a2,2,0,0,0,2,2h44.607a2,2,0,0,1,1.414.586l4.68,4.679,3.092-4.638a2,2,0,0,1,1.664-.89h45.155a2,2,0,0,0,2-2v-3.529"
     class="e092d05b-34dd-4a9e-9f9b-890e40a3fd17" />
  <rect
     id="rect156"
     height="131.6"
     width="121.779"
     y="26.353"
     x="314.516"
     class="a9a07b4f-185a-4606-a76f-a66e61bdd1b4" />
  <g
     id="g174">
    <path
       id="path158"
       d="M323.3,38.551a5.751,5.751,0,0,1,2.751-5.149l.946,1.089a4.927,4.927,0,0,0,0,8.119l-.946,1.09A5.749,5.749,0,0,1,323.3,38.551Z" />
    <path
       id="path160"
       d="M328.268,43.128l.549-1.287a4.02,4.02,0,0,0,1.739.439c.847,0,1.287-.351,1.287-1.045v-.769a2.13,2.13,0,0,1-1.651.748,2.691,2.691,0,0,1-2.507-2.86,2.724,2.724,0,0,1,2.64-2.839,1.976,1.976,0,0,1,1.54.714v-.681h1.749v5.71c0,1.529-1.055,2.376-2.992,2.376A5.432,5.432,0,0,1,328.268,43.128Zm3.575-3.817V37.418a1.445,1.445,0,0,0-1.056-.44,1.327,1.327,0,0,0-1.353,1.386,1.343,1.343,0,0,0,1.353,1.4A1.383,1.383,0,0,0,331.843,39.311Z" />
    <path
       id="path162"
       d="M338.366,38.551a5.749,5.749,0,0,1-2.751,5.149l-.945-1.09a4.928,4.928,0,0,0,0-8.119l.945-1.089A5.751,5.751,0,0,1,338.366,38.551Z" />
    <path
       id="path164"
       d="M342.424,43.128l.551-1.287a4.013,4.013,0,0,0,1.738.439c.847,0,1.287-.351,1.287-1.045v-.769a2.13,2.13,0,0,1-1.65.748,2.691,2.691,0,0,1-2.509-2.86,2.725,2.725,0,0,1,2.64-2.839,1.973,1.973,0,0,1,1.54.714v-.681h1.75v5.71c0,1.529-1.056,2.376-2.993,2.376A5.439,5.439,0,0,1,342.424,43.128ZM346,39.311V37.418a1.445,1.445,0,0,0-1.057-.44,1.326,1.326,0,0,0-1.352,1.386,1.343,1.343,0,0,0,1.352,1.4A1.384,1.384,0,0,0,346,39.311Z" />
    <path
       id="path166"
       d="M349.156,35.548h1.782v1.287c.364-.946.87-1.4,1.541-1.4a1.219,1.219,0,0,1,.594.143V37.11a1.954,1.954,0,0,0-.837-.176,1.571,1.571,0,0,0-1.3.7v3.587h-1.782Z" />
    <path
       id="path168"
       d="M353.6,38.4a2.96,2.96,0,1,1,2.96,2.938A2.887,2.887,0,0,1,353.6,38.4Zm4.18,0a1.24,1.24,0,1,0-1.22,1.453A1.3,1.3,0,0,0,357.78,38.4Z" />
    <path
       id="path170"
       d="M360.606,39.376V35.548h1.783v3.311a.945.945,0,0,0,.946,1.056,1.143,1.143,0,0,0,.946-.473V35.548h1.782v5.677h-1.782V40.3a2.091,2.091,0,0,1-1.793,1.011A1.835,1.835,0,0,1,360.606,39.376Z" />
    <path
       id="path172"
       d="M367.448,35.548h1.761v.792a2.1,2.1,0,0,1,1.684-.825A2.7,2.7,0,0,1,373.4,38.4a2.738,2.738,0,0,1-2.64,2.861,1.983,1.983,0,0,1-1.529-.66v2.926h-1.783Zm4.2,2.838a1.342,1.342,0,0,0-1.353-1.4,1.375,1.375,0,0,0-1.067.462v1.893a1.464,1.464,0,0,0,1.067.45A1.339,1.339,0,0,0,371.651,38.386Z" />
  </g>
  <path
     id="path176"
     d="M341.721,66.019l-1.365.583V65.534l1.8-.781h.759v7.7h-1.2Z" />
  <path
     id="path178"
     d="M340.438,87.628h1.244v1.189A1.653,1.653,0,0,1,343.2,87.53a1.473,1.473,0,0,1,.539.109v1.089a2,2,0,0,0-.682-.132,1.5,1.5,0,0,0-1.375.913V93.14h-1.244Z" />
  <line
     id="line180"
     y2="76.89"
     x2="354.972"
     y1="76.89"
     x1="328.687"
     class="e092d05b-34dd-4a9e-9f9b-890e40a3fd17" />
  <path
     id="path182"
     d="M372.074,68.6c0-2.366,1.287-3.972,3.157-3.972s3.147,1.606,3.147,3.972-1.276,3.96-3.147,3.96S372.074,70.958,372.074,68.6Zm5.1,0c0-1.772-.76-2.905-1.948-2.905s-1.959,1.133-1.959,2.905.771,2.893,1.959,2.893S377.179,70.364,377.179,68.6Z" />
  <path
     id="path184"
     d="M371.436,87.628h1.188l.968,3.884,1.144-3.884h1.045l1.134,3.884.968-3.884h1.155l-1.485,5.512h-1.189l-1.122-3.884-1.111,3.884h-1.21Z" />
  <line
     id="line186"
     y2="76.89"
     x2="388.373"
     y1="76.89"
     x1="362.088"
     class="e092d05b-34dd-4a9e-9f9b-890e40a3fd17" />
  <g
     id="g204">
    <path
       id="path188"
       d="M376.007,128.037h-4.114v-1.4l3.883-4.577h1.87V126.6h.968v1.442h-.968v1.727h-1.639Zm0-1.442v-2.771l-2.355,2.771Z" />
    <g
       id="g202">
      <path
         id="path190"
         d="M360.771,138.744a5.758,5.758,0,0,1,2.608-5.127l.418.561a5.75,5.75,0,0,0,0,9.132l-.418.549A5.737,5.737,0,0,1,360.771,138.744Z" />
      <path
         id="path192"
         d="M365.183,136.081h.8v1.1a1.606,1.606,0,0,1,1.5-1.189,1.546,1.546,0,0,1,.506.077v.727a1.961,1.961,0,0,0-.56-.1,1.533,1.533,0,0,0-1.442,1.09v3.663h-.8Z" />
      <path
         id="path194"
         d="M368.482,138.766a2.613,2.613,0,0,1,2.531-2.773,2.536,2.536,0,0,1,2.464,2.707v.241h-4.213a1.958,1.958,0,0,0,1.914,1.915,2.2,2.2,0,0,0,1.474-.55l.506.539a3.135,3.135,0,0,1-2.013.716A2.684,2.684,0,0,1,368.482,138.766Zm4.2-.4A1.773,1.773,0,0,0,371,136.687a1.794,1.794,0,0,0-1.717,1.683Z" />
      <path
         id="path196"
         d="M374.455,139.91c0-.957.8-1.6,2.014-1.6a3.1,3.1,0,0,1,1.638.418V138a1.208,1.208,0,0,0-1.385-1.332,3.547,3.547,0,0,0-1.628.463l-.3-.616a4.584,4.584,0,0,1,2.023-.518c1.332,0,2.08.671,2.08,1.893v3.564h-.793v-.627a2.3,2.3,0,0,1-1.705.726A1.734,1.734,0,0,1,374.455,139.91Zm2.112,1.024a2.123,2.123,0,0,0,1.54-.617v-1.034a2.831,2.831,0,0,0-1.517-.386c-.825,0-1.364.4-1.364.991C375.226,140.515,375.765,140.934,376.567,140.934Z" />
      <path
         id="path198"
         d="M380.285,138.776a2.614,2.614,0,0,1,2.52-2.76,2.183,2.183,0,0,1,1.672.748v-3.257l.8-.165v8.108h-.8v-.715a2.117,2.117,0,0,1-1.716.792A2.591,2.591,0,0,1,380.285,138.776Zm4.192,1.332v-2.663a1.986,1.986,0,1,0-1.519,3.378A1.839,1.839,0,0,0,384.477,140.108Z" />
      <path
         id="path200"
         d="M389.69,138.744a5.755,5.755,0,0,1-2.607,5.126l-.418-.56a5.75,5.75,0,0,0,0-9.132l.418-.55A5.737,5.737,0,0,1,389.69,138.744Z" />
    </g>
  </g>
  <path
     id="path206"
     d="M405.475,68.6c0-2.366,1.287-3.972,3.157-3.972s3.146,1.606,3.146,3.972-1.276,3.96-3.146,3.96S405.475,70.958,405.475,68.6Zm5.1,0c0-1.772-.759-2.905-1.947-2.905s-1.958,1.133-1.958,2.905.77,2.893,1.958,2.893S410.579,70.364,410.579,68.6Z" />
  <path
     id="path208"
     d="M407.906,90.3l-1.991-2.673h1.463l1.287,1.816,1.287-1.816h1.4l-2.014,2.706,2.1,2.806h-1.453L408.6,91.215l-1.386,1.925h-1.387Z" />
  <line
     id="line210"
     y2="76.89"
     x2="421.774"
     y1="76.89"
     x1="395.489"
     class="e092d05b-34dd-4a9e-9f9b-890e40a3fd17" />
  <path
     id="path212"
     d="M323.1,100.411V104.2a2,2,0,0,0,2,2h44.606a2,2,0,0,1,1.415.586l4.679,4.679,3.092-4.638a2,2,0,0,1,1.664-.89h45.155a2,2,0,0,0,2-2v-3.529"
     class="e092d05b-34dd-4a9e-9f9b-890e40a3fd17" />
  <rect
     id="rect214"
     height="131.6"
     width="121.779"
     y="26.353"
     x="443.88"
     class="a9a07b4f-185a-4606-a76f-a66e61bdd1b4" />
  <g
     id="g232">
    <path
       id="path216"
       d="M452.659,38.551A5.751,5.751,0,0,1,455.41,33.4l.946,1.089a4.928,4.928,0,0,0,0,8.119l-.946,1.09A5.749,5.749,0,0,1,452.659,38.551Z" />
    <path
       id="path218"
       d="M457.049,38.4a2.96,2.96,0,1,1,2.959,2.938A2.887,2.887,0,0,1,457.049,38.4Zm4.18,0a1.24,1.24,0,1,0-1.221,1.453A1.3,1.3,0,0,0,461.229,38.4Z" />
    <path
       id="path220"
       d="M467.356,38.551a5.747,5.747,0,0,1-2.751,5.149l-.945-1.09a4.928,4.928,0,0,0,0-8.119l.945-1.089A5.748,5.748,0,0,1,467.356,38.551Z" />
    <path
       id="path222"
       d="M470.831,38.4a2.96,2.96,0,1,1,2.96,2.938A2.887,2.887,0,0,1,470.831,38.4Zm4.181,0a1.24,1.24,0,1,0-1.221,1.453A1.3,1.3,0,0,0,475.012,38.4Z" />
    <path
       id="path224"
       d="M478.466,39.509V36.923h-1.1V35.548h1.1V33.975l1.782-.364v1.937h1.518v1.375h-1.518v2.233c0,.506.2.683.748.683a2.419,2.419,0,0,0,.726-.121v1.44a4.919,4.919,0,0,1-1.221.177C479.158,41.335,478.466,40.719,478.466,39.509Z" />
    <path
       id="path226"
       d="M482.755,33.392l1.783-.276v3.356a2.1,2.1,0,0,1,1.793-1.012,1.834,1.834,0,0,1,1.881,1.936v3.829H486.43V37.913a.945.945,0,0,0-.947-1.056,1.147,1.147,0,0,0-.945.473v3.9h-1.783Z" />
    <path
       id="path228"
       d="M489.3,38.4a2.845,2.845,0,0,1,2.86-2.937,2.786,2.786,0,0,1,2.795,3v.386h-3.9a1.361,1.361,0,0,0,1.331,1.066,1.4,1.4,0,0,0,1.122-.473l1.177.98a3.313,3.313,0,0,1-2.387.913A2.935,2.935,0,0,1,489.3,38.4Zm4-.561a1.192,1.192,0,0,0-1.156-.99,1.116,1.116,0,0,0-1.1.99Z" />
    <path
       id="path230"
       d="M496.065,35.548h1.783v1.287c.363-.946.869-1.4,1.54-1.4a1.216,1.216,0,0,1,.594.143V37.11a1.952,1.952,0,0,0-.836-.176,1.568,1.568,0,0,0-1.3.7v3.587h-1.783Z" />
  </g>
  <path
     id="path234"
     d="M471.084,66.019l-1.364.583V65.534l1.8-.781h.759v7.7h-1.2Z" />
  <path
     id="path236"
     d="M469.8,87.628h1.243v1.189a1.655,1.655,0,0,1,1.518-1.287,1.478,1.478,0,0,1,.54.109v1.089a2.012,2.012,0,0,0-.682-.132,1.5,1.5,0,0,0-1.376.913V93.14H469.8Z" />
  <line
     id="line238"
     y2="76.89"
     x2="484.337"
     y1="76.89"
     x1="458.051"
     class="e092d05b-34dd-4a9e-9f9b-890e40a3fd17" />
  <path
     id="path240"
     d="M501.438,68.6c0-2.366,1.287-3.972,3.157-3.972s3.146,1.606,3.146,3.972-1.276,3.96-3.146,3.96S501.438,70.958,501.438,68.6Zm5.1,0c0-1.772-.759-2.905-1.947-2.905s-1.958,1.133-1.958,2.905.77,2.893,1.958,2.893S506.542,70.364,506.542,68.6Z" />
  <path
     id="path242"
     d="M500.8,87.628h1.188l.968,3.884,1.145-3.884h1.045l1.132,3.884.969-3.884H508.4l-1.484,5.512h-1.188l-1.123-3.884L503.5,93.14h-1.21Z" />
  <line
     id="line244"
     y2="76.89"
     x2="517.737"
     y1="76.89"
     x1="491.452"
     class="e092d05b-34dd-4a9e-9f9b-890e40a3fd17" />
  <g
     id="g262">
    <path
       id="path246"
       d="M505.371,128.037h-4.115v-1.4l3.884-4.577h1.87V126.6h.969v1.442h-.969v1.727h-1.639Zm0-1.442v-2.771l-2.354,2.771Z" />
    <g
       id="g260">
      <path
         id="path248"
         d="M490.136,138.744a5.759,5.759,0,0,1,2.607-5.127l.418.561a5.749,5.749,0,0,0,0,9.132l-.418.549A5.738,5.738,0,0,1,490.136,138.744Z" />
      <path
         id="path250"
         d="M494.546,136.081h.8v1.1a1.6,1.6,0,0,1,1.5-1.189,1.554,1.554,0,0,1,.506.077v.727a1.974,1.974,0,0,0-.562-.1,1.529,1.529,0,0,0-1.44,1.09v3.663h-.8Z" />
      <path
         id="path252"
         d="M497.846,138.766a2.613,2.613,0,0,1,2.53-2.773,2.537,2.537,0,0,1,2.465,2.707v.241h-4.214a1.959,1.959,0,0,0,1.914,1.915,2.2,2.2,0,0,0,1.475-.55l.5.539a3.132,3.132,0,0,1-2.012.716A2.683,2.683,0,0,1,497.846,138.766Zm4.2-.4a1.773,1.773,0,0,0-1.684-1.683,1.794,1.794,0,0,0-1.716,1.683Z" />
      <path
         id="path254"
         d="M503.819,139.91c0-.957.8-1.6,2.013-1.6a3.112,3.112,0,0,1,1.64.418V138a1.209,1.209,0,0,0-1.387-1.332,3.55,3.55,0,0,0-1.628.463l-.3-.616a4.588,4.588,0,0,1,2.025-.518c1.331,0,2.079.671,2.079,1.893v3.564h-.792v-.627a2.3,2.3,0,0,1-1.7.726A1.733,1.733,0,0,1,503.819,139.91Zm2.113,1.024a2.129,2.129,0,0,0,1.54-.617v-1.034a2.835,2.835,0,0,0-1.519-.386c-.825,0-1.364.4-1.364.991C504.589,140.515,505.128,140.934,505.932,140.934Z" />
      <path
         id="path256"
         d="M509.648,138.776a2.615,2.615,0,0,1,2.52-2.76,2.187,2.187,0,0,1,1.673.748v-3.257l.8-.165v8.108h-.8v-.715a2.117,2.117,0,0,1-1.717.792A2.592,2.592,0,0,1,509.648,138.776Zm4.193,1.332v-2.663a1.987,1.987,0,1,0-1.519,3.378A1.842,1.842,0,0,0,513.841,140.108Z" />
      <path
         id="path258"
         d="M519.054,138.744a5.756,5.756,0,0,1-2.608,5.126l-.418-.56a5.749,5.749,0,0,0,0-9.132l.418-.55A5.738,5.738,0,0,1,519.054,138.744Z" />
    </g>
  </g>
  <path
     id="path264"
     d="M534.839,68.6c0-2.366,1.287-3.972,3.157-3.972s3.147,1.606,3.147,3.972-1.277,3.96-3.147,3.96S534.839,70.958,534.839,68.6Zm5.1,0c0-1.772-.759-2.905-1.947-2.905s-1.959,1.133-1.959,2.905S536.808,71.5,538,71.5,539.943,70.364,539.943,68.6Z" />
  <path
     id="path266"
     d="M537.27,90.3l-1.992-2.673h1.463l1.287,1.816,1.288-1.816h1.4L538.7,90.334l2.1,2.806h-1.452l-1.386-1.925-1.387,1.925H535.19Z" />
  <line
     id="line268"
     y2="76.89"
     x2="551.138"
     y1="76.89"
     x1="524.853"
     class="e092d05b-34dd-4a9e-9f9b-890e40a3fd17" />
  <path
     id="path270"
     d="M452.464,100.411V104.2a2,2,0,0,0,2,2H499.07a2,2,0,0,1,1.415.586l4.679,4.679,3.092-4.638a2,2,0,0,1,1.664-.89h45.155a2,2,0,0,0,2-2v-3.529"
     class="e092d05b-34dd-4a9e-9f9b-890e40a3fd17" />
</svg>
