<?xml version="1.0" encoding="UTF-8" standalone="no"?>
<svg
   xmlns:dc="http://purl.org/dc/elements/1.1/"
   xmlns:cc="http://creativecommons.org/ns#"
   xmlns:rdf="http://www.w3.org/1999/02/22-rdf-syntax-ns#"
   xmlns:svg="http://www.w3.org/2000/svg"
   xmlns="http://www.w3.org/2000/svg"
   xmlns:sodipodi="http://sodipodi.sourceforge.net/DTD/sodipodi-0.dtd"
   xmlns:inkscape="http://www.inkscape.org/namespaces/inkscape"
   inkscape:version="1.0 (4035a4f, 2020-05-01)"
   sodipodi:docname="combine-overwrite.svg"
   version="1.1"
   viewBox="0 0 3070.6 764.7"
   height="269.769mm"
   width="1083.239mm"
   data-name="Layer 1"
   id="Layer_1">
  <metadata
     id="metadata119">
    <rdf:RDF>
      <cc:Work
         rdf:about="">
        <dc:format>image/svg+xml</dc:format>
        <dc:type
           rdf:resource="http://purl.org/dc/dcmitype/StillImage" />
        <dc:title></dc:title>
        <dc:subject>
          <rdf:Bag>
            <rdf:li>stdin</rdf:li>
            <rdf:li>stdout</rdf:li>
            <rdf:li>stderr</rdf:li>
            <rdf:li>redirect</rdf:li>
            <rdf:li>pipe</rdf:li>
            <rdf:li>append</rdf:li>
          </rdf:Bag>
        </dc:subject>
      </cc:Work>
    </rdf:RDF>
  </metadata>
  <sodipodi:namedview
     inkscape:current-layer="Layer_1"
     inkscape:window-maximized="0"
     inkscape:window-y="25"
     inkscape:window-x="0"
     inkscape:cy="509.79971"
     inkscape:cx="2047.0659"
     inkscape:zoom="0.26794448"
     showgrid="false"
     id="namedview117"
     inkscape:window-height="480"
     inkscape:window-width="705"
     inkscape:pageshadow="2"
     inkscape:pageopacity="0"
     guidetolerance="10"
     gridtolerance="10"
     objecttolerance="10"
     borderopacity="1"
     bordercolor="#666666"
     pagecolor="#ffffff" />
  <defs
     id="defs12">
    <style
       id="style10">
      .cls-1, .cls-2 {
        fill: #fff;
      }

      .cls-2 {
        stroke: #0088ce;
      }

      .cls-2, .cls-3, .cls-6 {
        stroke-miterlimit: 10;
      }

      .cls-2, .cls-6 {
        stroke-width: 6px;
      }

      .cls-3 {
        fill: #0088ce;
        stroke: #fff;
      }

      .cls-4, .cls-6 {
        fill: none;
      }

      .cls-5 {
        fill: #4c4c4c;
      }

      .cls-6 {
        stroke: #4c4c4c;
      }
    </style>
  </defs>
  <rect
     height="764.7"
     width="3070.6"
     class="cls-1"
     id="rect14" />
  <path
     transform="translate(0 0)"
     d="M1533,671.6H857.1c-38.1,0-68.9-25.4-68.9-56.7V97.8c0-31.3,30.9-56.7,68.9-56.7H1533c38.1,0,68.9,25.4,68.9,56.7V614.9C1601.9,646.2,1571.1,671.6,1533,671.6Z"
     class="cls-2"
     id="path16" />
  <circle
     r="72"
     cy="259.6"
     cx="788.2"
     class="cls-3"
     id="circle18" />
  <circle
     r="72"
     cy="152.6"
     cx="1600.1"
     class="cls-3"
     id="circle20" />
  <circle
     r="72"
     cy="560.1"
     cx="1601.9"
     class="cls-3"
     id="circle22" />
  <path
     transform="translate(0 0)"
     d="M787.6,286.7c-13.6,0-20.6-11.1-20.6-27s7.2-27.1,20.8-27.1,20.6,11.1,20.6,27S801.2,286.7,787.6,286.7Zm0-46.5c-9.1,0-12.7,8.3-12.7,19.3s3.7,19.5,12.8,19.5c9.2,0,12.7-8.3,12.7-19.3S796.8,240.2,787.6,240.2Z"
     class="cls-1"
     id="path24" />
  <path
     transform="translate(0 0)"
     d="M1597.5,172.3V132.1h-9.3v-5.5c5.4-.4,9.8-2.2,10.8-6.8h6.4v52.5Z"
     class="cls-1"
     id="path26" />
  <path
     transform="translate(0 0)"
     d="M1581.3,579.8c.5-15.4,9.8-22.2,20.2-28.3,7.1-4.2,8.9-6.5,8.9-10.2,0-4.2-2.8-6.9-10-6.9a19.511,19.511,0,0,0-12.7,5.2l-5-6a27.093,27.093,0,0,1,17.9-7.1c10.9,0,17.8,4.6,17.8,14.3,0,8.1-4,11.5-13.2,17-10,5.9-12.9,9.3-14.1,14.3h27.8v7.6l-37.6.1Z"
     class="cls-1"
     id="path28" />
  <g
     id="g46">
    <rect
       height="78"
       width="544"
       y="317.3"
       x="923"
       class="cls-4"
       id="rect30" />
    <path
       transform="translate(0 0)"
       d="M1044.9,353.9h-11.7v18.8h-10.6V319.5h23.3c10,0,18.3,5.5,18.3,16.9C1064.1,348.8,1055.9,353.9,1044.9,353.9Zm.5-24.1h-12.2v13.7h12.4c4.9,0,7.6-2.3,7.6-6.9C1053.1,332,1050.1,329.8,1045.4,329.8Z"
       class="cls-5"
       id="path32" />
    <path
       transform="translate(0 0)"
       d="M1105.1,372.8l-9.5-19.2h-10.7v19.2h-10.6V319.6h24.8c10,0,18.3,5.5,18.3,16.9,0,8-3.4,13-10.2,15.7l10.2,20.7-12.3-.1Zm-6.3-43h-13.9v13.7h13.9c4.9,0,7.6-2.3,7.6-6.9,0-4.8-3-6.8-7.6-6.8Z"
       class="cls-5"
       id="path34" />
    <path
       transform="translate(0 0)"
       d="M1148.8,373.5c-14.5,0-23.1-11.2-23.1-27.4s8.6-27.4,23.1-27.4,23.1,11.2,23.1,27.4S1163.2,373.5,1148.8,373.5Zm0-44.3c-8.6,0-12.2,7.4-12.2,16.9s3.6,16.9,12.2,16.9,12.2-7.4,12.2-16.9S1157.4,329.2,1148.8,329.2Z"
       class="cls-5"
       id="path36" />
    <path
       transform="translate(0 0)"
       d="M1213.1,335a10.253,10.253,0,0,0-9.7-5.8c-8,0-12.5,7-12.5,16.9,0,9.6,4.6,16.9,12.6,16.9,4.8,0,7.6-2.1,10.4-6.8l9,5.3c-3.6,7.5-10,12-19.7,12-13.9,0-23.3-10.6-23.3-27.4,0-16.2,9.7-27.4,23.6-27.4,10,0,16.1,4.9,19.5,11.8Z"
       class="cls-5"
       id="path38" />
    <path
       transform="translate(0 0)"
       d="M1233.6,372.8V319.6h36.9V330h-26.3v9.2h15.3v10.3h-15.3v12.8h27.4v10.4Z"
       class="cls-5"
       id="path40" />
    <path
       transform="translate(0 0)"
       d="M1300.1,373.5c-8.9,0-16.6-3.7-20.7-9.7l7.7-6.8a17.378,17.378,0,0,0,13.6,6.1c6.3,0,9.3-1.7,9.3-5.8,0-3.4-1.8-4.9-11.9-7.2-9.8-2.3-16.6-5.4-16.6-15.9,0-9.7,8.5-15.6,19-15.6a25.1,25.1,0,0,1,19.4,8.4l-7.7,7.4c-3.4-3.5-7.2-5.5-12.1-5.5-5.7,0-7.6,2.4-7.6,4.8,0,3.3,2.3,4.4,10.7,6.4s17.8,4.9,17.8,16.4C1320.9,366.8,1314.6,373.5,1300.1,373.5Z"
       class="cls-5"
       id="path42" />
    <path
       transform="translate(0 0)"
       d="M1349.1,373.5c-8.9,0-16.6-3.7-20.7-9.7l7.7-6.8a17.378,17.378,0,0,0,13.6,6.1c6.3,0,9.3-1.7,9.3-5.8,0-3.4-1.8-4.9-11.9-7.2-9.8-2.3-16.6-5.4-16.6-15.9,0-9.7,8.5-15.6,19-15.6a25.1,25.1,0,0,1,19.4,8.4l-7.7,7.4c-3.4-3.5-7.2-5.5-12.1-5.5-5.7,0-7.6,2.4-7.6,4.8,0,3.3,2.3,4.4,10.7,6.4s17.8,4.9,17.8,16.4C1370.1,366.8,1363.6,373.5,1349.1,373.5Z"
       class="cls-5"
       id="path44" />
  </g>
  <g
     id="g60">
    <rect
       height="78"
       width="438"
       y="172.3"
       x="187.9"
       class="cls-4"
       id="rect48" />
    <path
       transform="translate(0 0)"
       d="M206.6,228.5a27.229,27.229,0,0,1-15.3-5.1l3.6-5.9a20.319,20.319,0,0,0,11.6,4c4.9,0,7.3-1.6,7.3-4.4,0-3-3.5-4.5-9.3-6.7-8.6-3.3-11.7-6.2-11.7-12.5,0-7.1,5.6-10.9,13.6-10.9a23.4,23.4,0,0,1,13.5,4.4l-3.4,6a17.414,17.414,0,0,0-10.3-3.4c-3.8,0-5.5,1.5-5.5,3.6,0,2,1.4,3.4,7.4,5.8,8.9,3.4,13.5,5.9,13.5,13.4C221.6,225.6,214.4,228.5,206.6,228.5Z"
       class="cls-5"
       id="path50" />
    <path
       transform="translate(0 0)"
       d="M249.9,226.7a15.871,15.871,0,0,1-7.7,1.8c-5.5,0-9-3.4-9-10.6v-23h-5.7v-7.1h5.7V176.4l7.7-4.1v15.5h9.9v7.1h-9.9v21.7c0,3.7,1.2,4.8,4.1,4.8a13.268,13.268,0,0,0,5.8-1.6Z"
       class="cls-5"
       id="path52" />
    <path
       transform="translate(0 0)"
       d="M283.6,227.7v-3.8c-2.9,2.7-6.2,4.6-10.4,4.6-8.6,0-15.4-6.2-15.4-21.4,0-13.7,7.4-20.1,15.7-20.1a14.224,14.224,0,0,1,10,4.6V176.3l7.8-4v55.4Zm.1-28.3c-1.7-2.4-5.4-5.2-9.3-5.2-5.6,0-8.7,4.3-8.7,12.7,0,10,3.2,14.4,9,14.4,3.7,0,7-2.5,9-5.1Z"
       class="cls-5"
       id="path54" />
    <path
       transform="translate(0 0)"
       d="M307.2,182.6a5.05,5.05,0,1,1,5-5.1v.1A5.015,5.015,0,0,1,307.2,182.6Zm-3.9,45.1V187.8h7.8v39.9Z"
       class="cls-5"
       id="path56" />
    <path
       transform="translate(0 0)"
       d="M347.3,227.7V205.1c0-8.1-3-10.9-8.2-10.9s-8.2,3.7-8.2,10.2v23.3h-7.8V187.8h7.8v3.8c2-2.9,5.9-4.6,10-4.6,9.3,0,14.2,6.1,14.2,17.9v22.9l-7.8-.1Z"
       class="cls-5"
       id="path58" />
  </g>
  <g
     id="g66">
    <line
       y2="259.6"
       x2="627.2"
       y1="259.6"
       x1="139.4"
       class="cls-6"
       id="line62" />
    <polygon
       points="617.7 289.5 674.5 259.6 617.7 229.7 617.7 289.5"
       class="cls-5"
       id="polygon64" />
  </g>
  <g
     id="g158">
    <path
       transform="translate(0 0)"
       d="M712.8,697.3c-2,.1-4,.4-5.9.4H87.2v-245H383c-1.2-5.8-2.5-10.9-3.4-16-3.4-19.9,6.4-37.7,24.9-45.7,15.5-6.8,31.8-8.4,48.3-8.5,17.2-.2,34.3.6,51.4-.4,9-.5,18.1-3.1,26.5-6.4,11.2-4.4,15.7-14.8,14.9-28.9-1.1-18.1-1.9-36.2-2.8-54.4-.1-1.6.2-3.3.3-5.5,5.6.5,10.8.9,16.5,1.3,0,4.2-.2,8.3,0,12.3.8,15.3,2,30.6,2.5,45.9.8,23.6-6.6,38.3-30.8,47.1-14.3,5.2-29.1,6.4-44.2,6.4-17.8,0-35.7-.3-53.4.8-8.2.5-16.6,3.4-24.2,6.9-15.1,6.9-15.4,20.3-12.3,32.2,3.4,12.8,3.6,12.7,16.7,12.7H705.8c2.3,0,4.6-.2,7-.3ZM400.5,669.4q97.5,0,194.9.1c4.3,0,5.9-1,5.7-5.6-.3-8.7-.4-17.3,0-26,.3-5.2-1.5-6.4-6.5-6.3-53.8.2-107.6.1-161.4.1q-113.7,0-227.4-.1c-4.6,0-6.1,1.2-6,5.9.3,8.5.1,17,.1,25.5,0,6.4,0,6.5,6.7,6.5Q303.5,669.35,400.5,669.4Zm14.9-47.6v-37H384.3v37Zm198.5,47.3c1.7.1,3,.3,4.3.3,8.2,0,16.3.1,24.4-.2,1,0,2.7-2.2,2.8-3.4.3-7,.1-14,.1-21,0-13.1,0-13.1-12.9-13.1H613.8c.1,12.8.1,24.8.1,37.4Zm-428.5.2V631.6c-9.7,0-19-.1-28.3.1-1.1,0-2.9,2.1-3,3.3-.2,10.3-.2,20.6,0,31,0,1.1,1.9,3.1,3,3.2,9.3.3,18.6.1,28.3.1ZM475.8,622c10.2,0,19.7.1,29.1-.1,1,0,2.7-1.9,2.7-3,.2-10.5.2-20.9,0-31.4,0-1-1.8-2.9-2.8-2.9-8.6-.2-17.3-.2-25.9,0-1,0-2.9,1.8-2.9,2.8C475.7,598.6,475.8,609.9,475.8,622ZM154,531.4c0,11.9-.1,23.4.1,34.8,0,.9,1.4,2.5,2.2,2.5,9.7.2,19.5.1,29.2.1V531.4Zm460.1,0v37.5h28.2c2.7,0,3.4-1.3,3.3-3.7-.1-7.1,0-14.3,0-21.4V531.4Zm-229.9.1v37.1h31.1V531.5Zm45.5,0c0,11.7.1,22.9,0,34,0,3.1,1.7,3.5,4.2,3.5,7.7-.1,15.3-.2,23,.1,4.2.2,5.1-1.6,5-5.3-.2-6.7-.1-13.3-.1-20V531.5Zm46.5-.1v37.1h31.1V531.4Zm45.6,37.5c10.1,0,19.7.1,29.3-.1a3.664,3.664,0,0,0,2.4-2.3c.2-11.6.1-23.2.1-34.8H521.9C521.8,544.1,521.8,556,521.8,568.9Zm45.8-37.4c0,11.9-.1,23.3.2,34.7,0,.9,2.3,2.6,3.6,2.6,8.1.2,16.3,0,24.4.2,3.2.1,3.9-1.5,3.9-4.3-.1-5.6,0-11.3,0-16.9V531.5ZM154,621.6h31.5V584.5c-9.9,0-19.5-.1-29.1.1a3.292,3.292,0,0,0-2.3,2.4C154,598.4,154,609.8,154,621.6Zm123.9.1c0-11.9.1-23.1-.2-34.4,0-1-2.2-2.7-3.4-2.8-8.3-.2-16.6-.1-24.9-.2-2.6,0-3.5,1-3.5,3.6.1,6.8,0,13.6,0,20.5v13.3Zm45.8.3c0-12.1.1-23.3-.1-34.6,0-1-1.9-2.8-2.9-2.8-8.6-.2-17.3-.2-25.9,0-1,0-2.8,1.8-2.9,2.8-.2,10.5-.2,21,0,31.4,0,1.1,1.7,3,2.7,3,9.5.3,18.9.2,29.1.2Zm229.8-.3c0-11.9.1-23.3-.1-34.8,0-.9-2.1-2.4-3.2-2.4-8.3-.2-16.6,0-24.9-.2-2.9,0-3.7,1.2-3.6,3.9.1,4.8,0,9.6,0,14.5v19Zm46.1-18.4c0-5-.1-10,0-15,.1-2.7-.8-4-3.7-3.9-8.2.1-16.3.1-24.5,0-2.7,0-3.9.9-3.9,3.8q.15,15,0,30c0,2.7.8,4,3.7,3.9,8.2-.1,16.3-.1,24.5,0,3.2.1,4-1.5,3.9-4.3C599.5,613,599.6,608.1,599.6,603.3Zm14.1-18.8V622c10,0,19.3.1,28.6-.1,1.1,0,3-2,3-3.1.2-10.3.2-20.7,0-31,0-1.1-1.7-3.1-2.7-3.1-9.3-.3-18.8-.2-28.9-.2Zm-275.8-53c0,11.9-.1,23.3.2,34.8,0,.9,2.4,2.5,3.7,2.6,5.6.3,11.3.1,17,.1,11.1,0,11.1,0,11.1-10.9V531.6c-10.9-.1-21-.1-32-.1ZM292,568.9c10,0,19.8.1,29.5-.2.8,0,2.1-2.6,2.1-4.1.2-9,.1-18,.1-26.9v-6H292Zm-46-37.4c0,11.8-.1,23.1.1,34.4,0,1,2.1,2.8,3.3,2.9,5.8.3,11.6.1,17.4.1h10.7V531.5Zm-46.1,0c0,11.9-.1,23.3.2,34.8,0,.9,2.4,2.5,3.7,2.5,8,.2,16,0,24,.2,3.5.1,4.3-1.5,4.2-4.5-.2-4.7,0-9.3,0-14v-19Zm-91.3,0v37.4c9.7,0,19,.1,28.3-.1,1,0,2.9-1.5,2.9-2.3.2-11.6.1-23.2.1-35Zm77-53.4c-9.9,0-19.4-.1-28.8.1a3.737,3.737,0,0,0-2.7,2.6c-.2,11.4-.1,22.9-.1,34.6h31.6ZM200,515.7c10.2,0,20,.1,29.8-.2.8,0,2.1-2.3,2.1-3.6.2-10,.1-20,.1-29.9,0-2.6-.8-4-3.7-4-8.3.1-16.6-.1-24.9.1-1.1,0-3.2,1.7-3.2,2.6C199.9,492.2,200,503.6,200,515.7ZM108.2,622c10.1,0,19.4.1,28.7-.2,1.1,0,3-2.4,3-3.7.3-10,.1-20,.2-29.9,0-2.4-.7-3.7-3.4-3.7-8.5.1-17-.1-25.4.1-1,0-2.9,1.8-2.9,2.8C108.1,598.7,108.2,609.9,108.2,622ZM323.7,515.5c0-11.7.1-22.9-.1-34,0-1.1-1.9-3.2-3-3.2q-12.75-.45-25.5,0c-1.1,0-3.1,1.7-3.2,2.6-.2,11.5-.1,22.9-.1,34.7C302.5,515.5,312.8,515.5,323.7,515.5ZM199.9,603.2c0,5,.1,10,0,15-.1,2.8,1,3.9,3.8,3.8,8.2-.1,16.3-.1,24.5,0,2.9,0,3.8-1.1,3.8-3.9q-.15-15,0-30c0-2.8-1.1-3.9-3.8-3.8-8.2.1-16.3.1-24.5,0-2.8,0-3.8,1.1-3.8,3.9C200,593.2,199.9,598.2,199.9,603.2Zm307.8-87.7c0-11.7.1-22.8-.1-34,0-1.1-1.9-3.2-2.9-3.2-8.7-.3-17.3-.2-26,0-1,0-2.7,1.6-2.7,2.5-.2,11.5-.1,22.9-.1,34.7ZM108.5,669.3c9.8,0,19.1.1,28.4-.1,1.1,0,3-2.1,3-3.2.2-10.2.1-20.3.2-30.5,0-2.8-1-3.9-3.8-3.8-8.2.1-16.3.1-24.5,0-3-.1-3.6,1.4-3.6,4,.1,9.2,0,18.3,0,27.5C108.2,665,108.3,667,108.5,669.3ZM369.8,515.8c0-12.1.1-23.4-.2-34.7,0-1-2.2-2.8-3.4-2.9q-12.45-.45-24.9,0c-1.2,0-3.3,2.2-3.3,3.5-.3,10.3-.2,20.6,0,30.9a4.091,4.091,0,0,0,2.7,3C350.1,515.9,359.6,515.8,369.8,515.8Zm59.8,87.6c0,4.7.1,9.3,0,14-.1,3.3.8,4.8,4.5,4.7,7.8-.2,15.7-.2,23.5,0,3,.1,4.2-.9,4.2-4-.1-9.8-.1-19.7,0-29.5.1-3.4-1.3-4.3-4.5-4.2-7.7.1-15.3.2-23,0-3.9-.1-4.9,1.5-4.7,5C429.8,594,429.6,598.7,429.6,603.4Zm32.1-106.6c0-4.8-.1-9.6,0-14.5.1-2.8-.7-4.3-3.9-4.3-8.1.1-16.3.1-24.5,0-2.9,0-3.7,1.3-3.7,3.9.1,10,.1,20,0,29.9,0,2.7.8,3.9,3.7,3.9,8.3-.1,16.6-.1,25,0,2.6,0,3.5-1,3.5-3.6-.2-5-.1-10.2-.1-15.3ZM337.9,603c0,5,.1,10,0,15-.1,3,1,4.1,4.1,4.1q12-.3,24,0c3.1.1,4-1.2,4-4.2-.1-9.8-.1-19.6,0-29.5,0-3.1-1.2-4.1-4.1-4.1q-12,.15-24,0c-3.1-.1-4.1,1.3-4,4.2C338,593.4,337.9,598.2,337.9,603Zm215.7-87.5c0-11.8.1-22.9-.1-34.1,0-1.1-2-3.1-3.1-3.2-8.5-.3-17-.2-25.5,0-1.1,0-3.1,1.7-3.1,2.6-.2,11.4-.1,22.9-.1,34.6C532.4,515.5,542.6,515.5,553.6,515.5ZM108.7,478.1v37.2h31.4c0-11.6.1-22.7-.1-33.8,0-1.1-2-3.2-3.1-3.2C127.6,478,118.3,478.1,108.7,478.1Zm307,37.4c0-11.8.1-23.2-.1-34.7,0-.9-2-2.5-3.1-2.6-8.5-.2-17-.2-25.4,0-1,0-2.9,1.5-2.9,2.3-.2,11.6-.1,23.1-.1,35Zm198.2-37.4v37.2h31.6c0-11.6.1-22.7-.1-33.9,0-1.1-2-3.2-3.1-3.2C633,478,623.7,478.1,613.9,478.1Zm-14.3,37.7c0-12.2.1-23.5-.1-34.8,0-1-1.9-2.8-3-2.8-8.5-.2-17-.3-25.5,0-1.2,0-3.2,2-3.3,3-.3,10.5-.2,21,0,31.5,0,1,1.8,2.9,2.8,2.9,9.4.3,18.9.2,29.1.2Zm-321.8-.1c0-12,.1-23.5-.1-35,0-.9-2-2.6-3.1-2.6q-12.75-.3-25.5,0c-1.1,0-3,2.1-3,3.2-.2,10.3-.2,20.7,0,31,0,1.1,1.6,3.1,2.5,3.1C258.2,515.8,267.8,515.7,277.8,515.7ZM691.1,622c0-12.1.1-23.7-.1-35.3,0-.7-2-2.1-3.1-2.1-8.3-.2-16.7-.2-25,0-1.2,0-3.2,1.9-3.3,3q-.3,15.75,0,31.5a3.744,3.744,0,0,0,2.5,2.8C671.6,622,681,622,691.1,622Zm-31.6-90.5c0,11.7.1,22.8,0,33.9,0,3.1,1.6,3.5,4.1,3.5q11.7-.15,23.4,0c3.3.1,4.4-1,4.3-4.3-.2-8.3,0-16.6,0-24.9v-8.3C680.3,531.5,670.2,531.5,659.5,531.5ZM691.2,651c0-5.2-.1-10.3,0-15.5.1-2.6-.7-4-3.7-3.9-8.1.1-16.3.1-24.4,0-2.9,0-3.7,1.3-3.7,3.9.1,10,.1,20,0,29.9,0,2.7.9,3.9,3.7,3.9,8.1-.1,16.3-.1,24.4,0,3,0,3.7-1.3,3.6-3.9C691.1,660.7,691.2,655.8,691.2,651Zm0-135.6c0-11.7.1-23.2-.1-34.6,0-.9-2-2.5-3.1-2.6-8.3-.2-16.6-.2-25,0-1.2,0-3.3,1.6-3.3,2.5-.2,11.4-.1,22.9-.1,34.7Z"
       class="cls-5"
       id="path68" />
    <path
       transform="translate(0 0)"
       d="M400.5,669.4H206.6c-6.6,0-6.6,0-6.7-6.5,0-8.5.2-17-.1-25.5-.2-4.7,1.4-5.9,6-5.9q113.7.15,227.4.1c53.8,0,107.6.1,161.4-.1,5,0,6.8,1.1,6.5,6.3-.4,8.6-.4,17.3,0,26,.2,4.5-1.4,5.6-5.7,5.6Q498.05,669.25,400.5,669.4Z"
       class="cls-1"
       id="path70" />
    <path
       transform="translate(0 0)"
       d="M415.4,621.8H384.3v-37h31.1Z"
       class="cls-1"
       id="path72" />
    <path
       transform="translate(0 0)"
       d="M613.9,669.1V631.7h18.8c12.9,0,12.9,0,12.9,13.1,0,7,.1,14-.1,21,0,1.2-1.8,3.4-2.8,3.4-8.1.3-16.3.2-24.4.2C616.9,669.4,615.6,669.2,613.9,669.1Z"
       class="cls-1"
       id="path74" />
    <path
       transform="translate(0 0)"
       d="M185.4,669.3c-9.7,0-19,.1-28.3-.1-1.1,0-3-2-3-3.2-.2-10.3-.2-20.6,0-31,0-1.2,1.9-3.2,3-3.3,9.3-.3,18.6-.1,28.3-.1Z"
       class="cls-1"
       id="path76" />
    <path
       transform="translate(0 0)"
       d="M475.8,622c0-12.1-.1-23.4.1-34.7,0-1,1.9-2.8,2.9-2.8,8.6-.2,17.3-.2,25.9,0,1,0,2.8,1.9,2.8,2.9.2,10.5.2,20.9,0,31.4,0,1.1-1.7,3-2.7,3C495.4,622.1,486,622,475.8,622Z"
       class="cls-1"
       id="path78" />
    <path
       transform="translate(0 0)"
       d="M154,531.4h31.5v37.4c-9.7,0-19.5.1-29.2-.1-.8,0-2.2-1.6-2.2-2.5C153.9,554.8,154,543.4,154,531.4Z"
       class="cls-1"
       id="path80" />
    <path
       transform="translate(0 0)"
       d="M614.1,531.4h31.5v33.8c0,2.4-.6,3.7-3.3,3.7-9.3-.1-18.5,0-28.2,0Z"
       class="cls-1"
       id="path82" />
    <path
       transform="translate(0 0)"
       d="M384.2,531.5h31.1v37.1H384.2Z"
       class="cls-1"
       id="path84" />
    <path
       transform="translate(0 0)"
       d="M429.7,531.5h32v12.3c0,6.7-.2,13.3.1,20,.1,3.7-.8,5.4-5,5.3-7.6-.3-15.3-.1-23-.1-2.5,0-4.2-.4-4.2-3.5C429.7,554.4,429.7,543.2,429.7,531.5Z"
       class="cls-1"
       id="path86" />
    <path
       transform="translate(0 0)"
       d="M476.2,531.4h31.1v37.1H476.2Z"
       class="cls-1"
       id="path88" />
    <path
       transform="translate(0 0)"
       d="M521.8,568.9V531.7h31.7c0,11.6.1,23.2-.1,34.8a3.291,3.291,0,0,1-2.4,2.3C541.5,569,531.9,568.9,521.8,568.9Z"
       class="cls-1"
       id="path90" />
    <path
       transform="translate(0 0)"
       d="M567.6,531.5h32v16.3c0,5.6-.1,11.3,0,16.9.1,2.8-.6,4.3-3.9,4.3-8.1-.2-16.3.1-24.4-.2-1.3,0-3.6-1.7-3.6-2.6C567.5,554.8,567.6,543.4,567.6,531.5Z"
       class="cls-1"
       id="path92" />
    <path
       transform="translate(0 0)"
       d="M154,621.6c0-11.8-.1-23.2.1-34.6a3.666,3.666,0,0,1,2.3-2.4c9.6-.2,19.2-.1,29.1-.1v37.1Z"
       class="cls-1"
       id="path94" />
    <path
       transform="translate(0 0)"
       d="M277.9,621.7H246V608.4c0-6.8.1-13.6,0-20.5,0-2.5.9-3.6,3.5-3.6,8.3.1,16.6-.1,24.9.2,1.2,0,3.4,1.8,3.4,2.8C277.9,598.6,277.9,609.9,277.9,621.7Z"
       class="cls-1"
       id="path96" />
    <path
       transform="translate(0 0)"
       d="M323.7,622c-10.2,0-19.7.1-29.1-.1-1,0-2.7-1.9-2.7-3-.2-10.5-.2-21,0-31.4a3.926,3.926,0,0,1,2.9-2.8c8.6-.2,17.3-.2,25.9,0,1,0,2.9,1.8,2.9,2.8C323.8,598.6,323.7,609.9,323.7,622Z"
       class="cls-1"
       id="path98" />
    <path
       transform="translate(0 0)"
       d="M553.5,621.7H521.6v-19c0-4.8.1-9.6,0-14.5-.1-2.7.7-4,3.6-3.9,8.3.1,16.6-.1,24.9.2,1.1,0,3.2,1.6,3.2,2.4C553.6,598.4,553.5,609.8,553.5,621.7Z"
       class="cls-1"
       id="path100" />
    <path
       transform="translate(0 0)"
       d="M599.6,603.3c0,4.8-.1,9.7,0,14.5.1,2.8-.7,4.3-3.9,4.3-8.2-.2-16.3-.1-24.5,0-2.9,0-3.7-1.2-3.7-3.9q.15-15,0-30c0-2.9,1.2-3.8,3.9-3.8,8.2.1,16.3.1,24.5,0,2.9,0,3.8,1.2,3.7,3.9C599.5,593.3,599.6,598.3,599.6,603.3Z"
       class="cls-1"
       id="path102" />
    <path
       transform="translate(0 0)"
       d="M613.7,584.5c10.1,0,19.6-.1,29,.1.9,0,2.6,2,2.7,3.1.2,10.3.2,20.7,0,31,0,1.1-2,3.1-3,3.1-9.3.3-18.6.1-28.6.1V603.2C613.7,597.3,613.7,591.3,613.7,584.5Z"
       class="cls-1"
       id="path104" />
    <path
       transform="translate(0 0)"
       d="M337.9,531.5h32V558c0,10.9,0,10.9-11.1,10.9-5.7,0-11.3.2-17-.1-1.3-.1-3.7-1.6-3.7-2.6C337.8,554.8,337.9,543.4,337.9,531.5Z"
       class="cls-1"
       id="path106" />
    <path
       transform="translate(0 0)"
       d="M292,568.9V531.7h31.7v6c0,9,.1,18-.1,26.9,0,1.4-1.3,4.1-2.1,4.1C311.8,569,302.1,568.9,292,568.9Z"
       class="cls-1"
       id="path108" />
    <path
       transform="translate(0 0)"
       d="M246,531.5h31.6v37.4H266.9c-5.8,0-11.6.2-17.4-.1-1.2-.1-3.3-1.8-3.3-2.9C245.9,554.7,246,543.4,246,531.5Z"
       class="cls-1"
       id="path110" />
    <path
       transform="translate(0 0)"
       d="M199.9,531.5h32v19c0,4.7-.1,9.3,0,14,.1,3-.7,4.6-4.2,4.5-8-.2-16,.1-24-.2-1.3,0-3.7-1.6-3.7-2.5C199.9,554.9,199.9,543.4,199.9,531.5Z"
       class="cls-1"
       id="path112" />
    <path
       transform="translate(0 0)"
       d="M108.6,531.5H140c0,11.8.1,23.4-.1,35,0,.8-1.9,2.3-2.9,2.3-9.3.2-18.6.1-28.3.1C108.6,556.3,108.6,544.1,108.6,531.5Z"
       class="cls-1"
       id="path114" />
    <path
       transform="translate(0 0)"
       d="M185.6,478.1v37.3H154c0-11.8-.1-23.2.1-34.6a3.737,3.737,0,0,1,2.7-2.6C166.3,478,175.7,478.1,185.6,478.1Z"
       class="cls-1"
       id="path116" />
    <path
       transform="translate(0 0)"
       d="M200,515.7c0-12.1-.1-23.5.1-34.9,0-.9,2.1-2.5,3.2-2.6,8.3-.2,16.6-.1,24.9-.1,2.9,0,3.7,1.3,3.7,4-.1,10,.1,20-.1,29.9,0,1.3-1.3,3.6-2.1,3.6C220,515.8,210.2,515.7,200,515.7Z"
       class="cls-1"
       id="path118" />
    <path
       transform="translate(0 0)"
       d="M108.2,622c0-12.1-.1-23.3.1-34.6,0-1,1.9-2.8,2.9-2.8,8.5-.2,17-.1,25.4-.1,2.7,0,3.4,1.3,3.4,3.7-.1,10,.1,20-.2,29.9,0,1.3-1.9,3.7-3,3.7C127.6,622.1,118.3,622,108.2,622Z"
       class="cls-1"
       id="path120" />
    <path
       transform="translate(0 0)"
       d="M323.7,515.5H291.8c0-11.8-.1-23.2.1-34.7,0-.9,2-2.5,3.2-2.6q12.75-.3,25.5,0c1.1,0,3,2.1,3,3.2C323.8,492.6,323.7,503.8,323.7,515.5Z"
       class="cls-1"
       id="path122" />
    <path
       transform="translate(0 0)"
       d="M199.9,603.2c0-5,.1-10,0-15-.1-2.8,1-3.9,3.8-3.9,8.2.1,16.3.1,24.5,0,2.8,0,3.9,1,3.8,3.8q-.15,15,0,30c0,2.7-.9,3.9-3.8,3.9-8.2-.1-16.3-.1-24.5,0-2.8,0-3.9-1.1-3.8-3.8C200,613.2,199.9,608.2,199.9,603.2Z"
       class="cls-1"
       id="path124" />
    <path
       transform="translate(0 0)"
       d="M507.7,515.5H475.8c0-11.8-.1-23.2.1-34.7,0-.9,1.8-2.5,2.7-2.5,8.7-.2,17.3-.2,26,0,1.1,0,2.9,2.1,2.9,3.2C507.8,492.6,507.7,503.8,507.7,515.5Z"
       class="cls-1"
       id="path126" />
    <path
       transform="translate(0 0)"
       d="M108.5,669.3c-.1-2.4-.3-4.3-.3-6.3V635.5c0-2.6.6-4,3.6-4,8.2.1,16.3.1,24.5,0,2.8,0,3.8,1.1,3.8,3.8-.1,10.2.1,20.3-.2,30.5,0,1.2-1.9,3.2-3,3.2C127.6,669.5,118.3,669.3,108.5,669.3Z"
       class="cls-1"
       id="path128" />
    <path
       transform="translate(0 0)"
       d="M369.8,515.8c-10.2,0-19.7.1-29.1-.1-1,0-2.7-1.9-2.7-3q-.3-15.45,0-30.9c0-1.2,2.1-3.5,3.3-3.5q12.45-.45,24.9,0c1.2,0,3.4,1.8,3.4,2.9C369.9,492.4,369.8,503.7,369.8,515.8Z"
       class="cls-1"
       id="path130" />
    <path
       transform="translate(0 0)"
       d="M429.6,603.4c0-4.7.2-9.3-.1-14-.2-3.5.8-5.2,4.7-5,7.7.2,15.3.2,23,0,3.1-.1,4.5.9,4.5,4.2-.2,9.8-.1,19.7,0,29.5,0,3.1-1.2,4-4.2,4-7.8-.1-15.7-.2-23.5,0-3.6.1-4.6-1.4-4.5-4.7C429.8,612.7,429.6,608,429.6,603.4Z"
       class="cls-1"
       id="path132" />
    <path
       transform="translate(0 0)"
       d="M461.7,496.8c0,5.2-.1,10.3,0,15.5.1,2.6-.9,3.6-3.5,3.6-8.3-.1-16.6-.1-25,0-2.9,0-3.7-1.2-3.7-3.9.1-10,.1-20,0-29.9,0-2.7.8-4,3.7-3.9,8.1.1,16.3.1,24.5,0,3.2-.1,4,1.5,3.9,4.3C461.6,487.1,461.7,492,461.7,496.8Z"
       class="cls-1"
       id="path134" />
    <path
       transform="translate(0 0)"
       d="M337.9,603c0-4.8.1-9.7,0-14.5-.1-2.9.8-4.2,4-4.2q12,.15,24,0c3,0,4.2,1,4.1,4.1-.1,9.8-.1,19.6,0,29.5,0,2.9-.9,4.2-4,4.2q-12-.15-24,0c-3,.1-4.2-1-4.1-4.1C338,613,337.9,608,337.9,603Z"
       class="cls-1"
       id="path136" />
    <path
       transform="translate(0 0)"
       d="M553.6,515.5H521.7c0-11.8-.1-23.2.1-34.6,0-.9,2-2.6,3.1-2.6q12.75-.3,25.5,0c1.1,0,3.1,2,3.1,3.2C553.7,492.6,553.6,503.7,553.6,515.5Z"
       class="cls-1"
       id="path138" />
    <path
       transform="translate(0 0)"
       d="M108.7,478.1c9.6,0,18.9-.1,28.2.1,1.1,0,3,2.1,3.1,3.2.2,11.1.1,22.2.1,33.8H108.7Z"
       class="cls-1"
       id="path140" />
    <path
       transform="translate(0 0)"
       d="M415.7,515.5H383.9c0-11.8-.1-23.4.1-35,0-.8,1.9-2.3,2.9-2.3,8.5-.2,17-.2,25.4,0,1.1,0,3.1,1.7,3.1,2.6C415.7,492.2,415.7,503.7,415.7,515.5Z"
       class="cls-1"
       id="path142" />
    <path
       transform="translate(0 0)"
       d="M613.9,478.1c9.8,0,19.1-.1,28.4.1,1.1,0,3,2.1,3.1,3.2.2,11.1.1,22.3.1,33.9H613.9Z"
       class="cls-1"
       id="path144" />
    <path
       transform="translate(0 0)"
       d="M599.6,515.8c-10.2,0-19.6.1-29.1-.1-1,0-2.8-1.9-2.8-2.9q-.3-15.75,0-31.5c0-1.1,2.1-3,3.3-3,8.5-.3,17-.2,25.5,0,1.1,0,3,1.8,3,2.8C599.7,492.3,599.6,503.6,599.6,515.8Z"
       class="cls-1"
       id="path146" />
    <path
       transform="translate(0 0)"
       d="M277.8,515.7c-10,0-19.6.1-29.3-.1-.9,0-2.5-2-2.5-3.1-.2-10.3-.2-20.7,0-31,0-1.1,1.9-3.2,3-3.2q12.75-.45,25.5,0c1.1,0,3.1,1.7,3.1,2.6C277.9,492.2,277.8,503.7,277.8,515.7Z"
       class="cls-1"
       id="path148" />
    <path
       transform="translate(0 0)"
       d="M691.1,622c-10.1,0-19.6.1-29-.1-.9,0-2.5-1.8-2.5-2.8q-.3-15.75,0-31.5c0-1.1,2.1-3,3.3-3,8.3-.3,16.7-.2,25,0,1.1,0,3.1,1.3,3.1,2.1C691.2,598.2,691.1,609.9,691.1,622Z"
       class="cls-1"
       id="path150" />
    <path
       transform="translate(0 0)"
       d="M659.5,531.5h31.8v8.3c0,8.3-.1,16.6,0,24.9.1,3.2-1,4.4-4.3,4.3-7.8-.2-15.6-.1-23.4,0-2.5,0-4.1-.4-4.1-3.5Z"
       class="cls-1"
       id="path152" />
    <path
       transform="translate(0 0)"
       d="M691.2,651c0,4.8-.1,9.6,0,14.5.1,2.6-.7,4-3.6,3.9-8.1-.1-16.3-.1-24.4,0-2.8,0-3.8-1.1-3.7-3.9.1-10,.1-20,0-29.9,0-2.7.9-4,3.7-3.9,8.1.1,16.3.1,24.4,0,3,0,3.7,1.3,3.7,3.9C691.2,640.7,691.2,645.9,691.2,651Z"
       class="cls-1"
       id="path154" />
    <path
       transform="translate(0 0)"
       d="M691.2,515.4H659.5c0-11.8-.1-23.3.1-34.7,0-.9,2.1-2.5,3.3-2.5,8.3-.2,16.6-.2,25,0,1.1,0,3.1,1.7,3.1,2.6C691.3,492.2,691.2,503.7,691.2,515.4Z"
       class="cls-1"
       id="path156" />
  </g>
  <g
     id="g101">
    <rect
       height="78"
       width="438"
       y="77.1"
       x="1696.7"
       class="cls-4"
       id="rect87" />
    <path
       transform="translate(0 0)"
       d="M1715.4,133.3a27.229,27.229,0,0,1-15.3-5.1l3.6-5.9a20.826,20.826,0,0,0,11.6,4c4.9,0,7.3-1.6,7.3-4.4,0-3-3.5-4.5-9.3-6.7-8.6-3.3-11.7-6.2-11.7-12.5,0-7.1,5.6-10.9,13.6-10.9a23.412,23.412,0,0,1,13.5,4.4l-3.4,6a17.191,17.191,0,0,0-10.3-3.4c-3.8,0-5.5,1.5-5.5,3.6,0,2,1.4,3.4,7.4,5.8,8.9,3.4,13.5,5.9,13.5,13.4C1730.4,130.4,1723.2,133.3,1715.4,133.3Z"
       class="cls-5"
       id="path89" />
    <path
       transform="translate(0 0)"
       d="M1758.7,131.5a15.64,15.64,0,0,1-7.7,1.8c-5.5,0-9-3.4-9-10.6v-23h-5.7V92.6h5.7V81.2l7.7-4.1V92.6h9.9v7.1h-9.9v21.7c0,3.7,1.2,4.8,4.1,4.8a13.114,13.114,0,0,0,5.8-1.6Z"
       class="cls-5"
       id="path91" />
    <path
       transform="translate(0 0)"
       d="M1792.4,132.5v-3.8c-2.9,2.7-6.2,4.6-10.4,4.6-8.6,0-15.4-6.2-15.4-21.4,0-13.7,7.4-20.1,15.7-20.1a13.9,13.9,0,0,1,10,4.6V81.1l7.8-4v55.4Zm.1-28.3c-1.7-2.4-5.4-5.2-9.3-5.2-5.6,0-8.7,4.3-8.7,12.7,0,10,3.2,14.4,9,14.4,3.7,0,7-2.5,9-5.1Z"
       class="cls-5"
       id="path93" />
    <path
       transform="translate(0 0)"
       d="M1827.4,133.3c-10,0-17.6-8.3-17.6-20.7,0-13.1,7.8-20.8,17.8-20.8,10.2,0,17.8,8.1,17.8,20.6C1845.4,125.6,1837.6,133.3,1827.4,133.3Zm-.1-34.1c-5.9,0-9.6,5.2-9.6,13.1,0,8.7,4,13.5,10,13.5,5.9,0,9.8-6,9.8-13.3C1837.5,104.5,1833.6,99.2,1827.3,99.2Z"
       class="cls-5"
       id="path95" />
    <path
       transform="translate(0 0)"
       d="M1879,132.5v-3.8c-2,2.9-5.9,4.6-10,4.6-9.3,0-14.2-6.1-14.2-17.9V92.5h7.8v22.6c0,8.1,3,10.9,8.2,10.9s8.2-3.7,8.2-10.2V92.5h7.8v39.9Z"
       class="cls-5"
       id="path97" />
    <path
       transform="translate(0 0)"
       d="M1917.4,131.5a15.64,15.64,0,0,1-7.7,1.8c-5.5,0-9-3.4-9-10.6v-23H1895V92.6h5.7V81.2l7.7-4.1V92.6h9.9v7.1h-9.9v21.7c0,3.7,1.2,4.8,4.1,4.8a13.114,13.114,0,0,0,5.8-1.6Z"
       class="cls-5"
       id="path99" />
  </g>
  <g
     id="g107">
    <line
       y2="155.1"
       x2="2196.3"
       y1="155.1"
       x1="1698.3"
       class="cls-6"
       id="line103" />
    <polygon
       points="2188.9 185 2233.4 155.1 2188.9 125.2 2188.9 185"
       class="cls-5"
       id="polygon105" />
  </g>
  <g
     id="g113">
    <polyline
       points="1511.8 560.1 1422.9 560.1 1422.9 155.1 1492 155.1"
       class="cls-6"
       id="polyline109" />
    <polygon
       points="1472 180 1515.2 155.1 1472 130.2 1472 180"
       class="cls-5"
       id="polygon111" />
  </g>
  <g
     id="g127">
    <path
       transform="translate(0 0)"
       d="M2455.5,30.7a3.922,3.922,0,0,0-3.3-1.4H2280.5a1.072,1.072,0,0,0-1,1V342.6a1.072,1.072,0,0,0,1,1h229.6a1.071,1.071,0,0,0,1-1V89.8a4.221,4.221,0,0,0-1.3-3.2Zm1,14.5,41.4,42.7h-41.4Zm-167.9-6.7h158.9V90.4c0,.3.1.6.1,1s-.1.6-.1,1a4.527,4.527,0,0,0,4.451,4.6c.05,0,.1,0,.149,0h49.7V334.3H2288.6Z"
       class="cls-5"
       id="path115" />
    <path
       transform="translate(0 0)"
       d="M2465.8,138.2H2320.1c-3.7-2.9-1.6-6.9,1.6-6.9h145.8C2470.7,134,2468.9,138.2,2465.8,138.2Z"
       class="cls-5"
       id="path117" />
    <path
       transform="translate(0 0)"
       d="M2436.7,173.5H2320.2c-3.7-2.9-1.6-6.9,1.6-6.9h116.9C2441.3,170.2,2439.4,173.5,2436.7,173.5Z"
       class="cls-5"
       id="path119" />
    <path
       transform="translate(0 0)"
       d="M2465.8,209H2320.1c-3.7-2.9-1.6-6.9,1.6-6.9h145.8C2470.7,205,2468.9,209,2465.8,209Z"
       class="cls-5"
       id="path121" />
    <path
       transform="translate(0 0)"
       d="M2436.7,244.5H2320.2c-3.7-2.9-1.6-6.9,1.6-6.9h116.5C2441.4,240.5,2439.6,244.5,2436.7,244.5Z"
       class="cls-5"
       id="path123" />
    <path
       transform="translate(0 0)"
       d="M2465.8,280.1H2320.1c-3.7-2.9-1.6-6.9,1.6-6.9h145.8C2470.7,276,2468.9,280.1,2465.8,280.1Z"
       class="cls-5"
       id="path125" />
  </g>
  <g
     id="g92">
    <rect
       height="78"
       width="438"
       y="524.754"
       x="1696.701"
       class="cls-4"
       id="rect78" />
    <path
       transform="translate(0 0)"
       d="M1715.4,580.954a27.214,27.214,0,0,1-15.3-5.1l3.6-5.9a20.823,20.823,0,0,0,11.6,4c4.9,0,7.3-1.6,7.3-4.4,0-3-3.5-4.5-9.3-6.7-8.6-3.3-11.7-6.2-11.7-12.5,0-7.1,5.6-10.9,13.6-10.9a23.412,23.412,0,0,1,13.5,4.4l-3.4,6a17.191,17.191,0,0,0-10.3-3.4c-3.8,0-5.5,1.5-5.5,3.6,0,2,1.4,3.4,7.4,5.8,8.9,3.4,13.5,5.9,13.5,13.4C1730.4,578.054,1723.2,580.954,1715.4,580.954Z"
       class="cls-5"
       data-name="path80"
       id="path80-2" />
    <path
       transform="translate(0 0)"
       d="M1758.7,579.154a15.629,15.629,0,0,1-7.7,1.8c-5.5,0-9-3.4-9-10.6v-23h-5.7v-7.1h5.7v-11.4l7.7-4.1v15.5h9.9v7.1h-9.9v21.7c0,3.7,1.2,4.8,4.1,4.8a13.1,13.1,0,0,0,5.8-1.6Z"
       class="cls-5"
       data-name="path82"
       id="path82-2" />
    <path
       transform="translate(0 0)"
       d="M1792.4,580.154v-3.8c-2.9,2.7-6.2,4.6-10.4,4.6-8.6,0-15.4-6.2-15.4-21.4,0-13.7,7.4-20.1,15.7-20.1a13.9,13.9,0,0,1,10,4.6v-15.3l7.8-4v55.4Zm.1-28.3c-1.7-2.4-5.4-5.2-9.3-5.2-5.6,0-8.7,4.3-8.7,12.7,0,10,3.2,14.4,9,14.4,3.7,0,7-2.5,9-5.1Z"
       class="cls-5"
       data-name="path84"
       id="path84-2" />
    <path
       transform="translate(0 0)"
       d="M1843.8,562.954h-26.4c.8,7.7,5.2,10.9,10,10.9a14.129,14.129,0,0,0,8.7-3.2l4.6,5c-3.5,3.3-7.7,5.2-13.8,5.2-9.3,0-17.3-7.5-17.3-20.7,0-13.5,7.1-20.8,17.5-20.8,11.3,0,16.8,9.2,16.8,20A13.318,13.318,0,0,1,1843.8,562.954Zm-17.1-16.5c-5.2,0-8.4,3.6-9.1,10h18.5c-.3-5.4-2.9-10-9.4-10Z"
       class="cls-5"
       data-name="path86"
       id="path86-2" />
    <path
       transform="translate(0 0)"
       d="M1875.5,548.554a11.838,11.838,0,0,0-6-1.4c-4.9,0-7.8,3.5-7.8,10.3v22.8h-7.8v-39.9h7.8v3.8a10.934,10.934,0,0,1,9.1-4.6c3.2,0,5.2.6,6.8,1.7Z"
       class="cls-5"
       data-name="path88"
       id="path88-2" />
    <path
       transform="translate(0 0)"
       d="M1907.2,548.554a11.838,11.838,0,0,0-6-1.4c-4.9,0-7.8,3.5-7.8,10.3v22.8h-7.8v-39.9h7.8v3.8a10.934,10.934,0,0,1,9.1-4.6c3.2,0,5.2.6,6.8,1.7Z"
       class="cls-5"
       data-name="path90"
       id="path90-2" />
  </g>
</svg>
