<?xml version="1.0" encoding="UTF-8" standalone="no"?>
<svg
   xmlns:dc="http://purl.org/dc/elements/1.1/"
   xmlns:cc="http://creativecommons.org/ns#"
   xmlns:rdf="http://www.w3.org/1999/02/22-rdf-syntax-ns#"
   xmlns:svg="http://www.w3.org/2000/svg"
   xmlns="http://www.w3.org/2000/svg"
   xmlns:sodipodi="http://sodipodi.sourceforge.net/DTD/sodipodi-0.dtd"
   xmlns:inkscape="http://www.inkscape.org/namespaces/inkscape"
   inkscape:version="1.0 (4035a4f, 2020-05-01)"
   sodipodi:docname="redirection-error.svg"
   version="1.1"
   viewBox="0 0 3070.6 761.8"
   height="268.746mm"
   width="1083.239mm"
   data-name="Layer 1"
   id="Layer_1">
  <metadata
     id="metadata231">
    <rdf:RDF>
      <cc:Work
         rdf:about="">
        <dc:format>image/svg+xml</dc:format>
        <dc:type
           rdf:resource="http://purl.org/dc/dcmitype/StillImage" />
        <dc:title></dc:title>
        <dc:subject>
          <rdf:Bag>
            <rdf:li>stdin</rdf:li>
            <rdf:li>stdout</rdf:li>
            <rdf:li>stderr</rdf:li>
            <rdf:li>redirect</rdf:li>
            <rdf:li>pipe</rdf:li>
            <rdf:li>append</rdf:li>
          </rdf:Bag>
        </dc:subject>
      </cc:Work>
    </rdf:RDF>
  </metadata>
  <sodipodi:namedview
     inkscape:current-layer="Layer_1"
     inkscape:window-maximized="0"
     inkscape:window-y="25"
     inkscape:window-x="0"
     inkscape:cy="507.86646"
     inkscape:cx="2047.0659"
     inkscape:zoom="0.26794448"
     showgrid="false"
     id="namedview229"
     inkscape:window-height="480"
     inkscape:window-width="722"
     inkscape:pageshadow="2"
     inkscape:pageopacity="0"
     guidetolerance="10"
     gridtolerance="10"
     objecttolerance="10"
     borderopacity="1"
     bordercolor="#666666"
     pagecolor="#ffffff" />
  <defs
     id="defs12">
    <style
       id="style10">
      .cls-1, .cls-3 {
        fill: #fff;
      }

      .cls-2 {
        fill: #4c4c4c;
      }

      .cls-3 {
        stroke: #0088ce;
      }

      .cls-3, .cls-4, .cls-6 {
        stroke-miterlimit: 10;
      }

      .cls-3, .cls-6 {
        stroke-width: 6px;
      }

      .cls-4 {
        fill: #0088ce;
        stroke: #fff;
      }

      .cls-5, .cls-6 {
        fill: none;
      }

      .cls-6 {
        stroke: #4c4c4c;
      }
    </style>
  </defs>
  <rect
     id="rect14"
     height="761.8"
     width="3070.6"
     class="cls-1" />
  <g
     id="g24">
    <path
       id="path16"
       transform="translate(0 0)"
       d="M2515.9,171.3a3,3,0,0,0,1.8-.6l93.5-62.8a3.245,3.245,0,0,0-3.6-5.4l-93.5,62.8a3.232,3.232,0,0,0-.9,4.5A3.3,3.3,0,0,0,2515.9,171.3Z"
       class="cls-2" />
    <path
       id="path18"
       transform="translate(0 0)"
       d="M2488.2,214.5a3,3,0,0,0,1.8-.6l74.1-50a3.245,3.245,0,0,0-3.6-5.4l-74.1,50a3.232,3.232,0,0,0-.9,4.5A3.056,3.056,0,0,0,2488.2,214.5Z"
       class="cls-2" />
    <path
       id="path20"
       transform="translate(0 0)"
       d="M2327.8,266.8h320.1c8.9,0,16.2-7.8,16.2-17.3V64c0-9.6-7.3-17.3-16.2-17.3H2327.8c-8.9,0-16.2,7.8-16.2,17.3V249.6C2311.6,259.1,2318.9,266.8,2327.8,266.8ZM2321.3,64c0-4.2,2.9-7.6,6.5-7.6h320.1c3.6,0,6.5,3.4,6.5,7.6V249.6c0,4.2-2.9,7.6-6.5,7.6H2327.8c-3.6,0-6.5-3.4-6.5-7.6Z"
       class="cls-2" />
    <path
       id="path22"
       transform="translate(0 0)"
       d="M2665.3,18.5h-355A26.332,26.332,0,0,0,2284,44.8V265.3a26.332,26.332,0,0,0,26.3,26.3h115.4v21.9h-35.5a6.5,6.5,0,0,0,0,13h195.3a6.5,6.5,0,0,0,0-13H2550V291.6h115.3a26.332,26.332,0,0,0,26.3-26.3V44.8A26.332,26.332,0,0,0,2665.3,18.5Zm-226.6,295V294H2537v19.5Zm239.9-47.4a13.359,13.359,0,0,1-13.3,13.3h-355a13.359,13.359,0,0,1-13.3-13.3V44.8a13.359,13.359,0,0,1,13.3-13.3h355a13.359,13.359,0,0,1,13.3,13.3Z"
       class="cls-2" />
  </g>
  <path
     id="path26"
     transform="translate(0 0)"
     d="M1533,698.1H857.1c-38.1,0-68.9-25.4-68.9-56.7V124.3c0-31.3,30.9-56.7,68.9-56.7H1533c38.1,0,68.9,25.4,68.9,56.7V641.4C1601.9,672.7,1571.1,698.1,1533,698.1Z"
     class="cls-3" />
  <circle
     id="circle28"
     r="72"
     cy="286.1"
     cx="788.2"
     class="cls-4" />
  <circle
     id="circle30"
     r="72"
     cy="179.1"
     cx="1600.1"
     class="cls-4" />
  <circle
     id="circle32"
     r="72"
     cy="577.7"
     cx="1601.9"
     class="cls-4" />
  <path
     id="path34"
     transform="translate(0 0)"
     d="M787.6,313.2c-13.6,0-20.6-11.1-20.6-27s7.2-27.1,20.8-27.1,20.6,11.1,20.6,27S801.2,313.2,787.6,313.2Zm0-46.5c-9.1,0-12.7,8.3-12.7,19.3s3.7,19.5,12.8,19.5c9.2,0,12.7-8.3,12.7-19.3S796.8,266.7,787.6,266.7Z"
     class="cls-1" />
  <path
     id="path36"
     transform="translate(0 0)"
     d="M1597.5,198.8V158.6h-9.3v-5.5c5.4-.4,9.8-2.2,10.8-6.8h6.4v52.5Z"
     class="cls-1" />
  <path
     id="path38"
     transform="translate(0 0)"
     d="M1581.3,597.4c.5-15.4,9.8-22.2,20.2-28.3,7.1-4.2,8.9-6.5,8.9-10.2,0-4.2-2.8-6.9-10-6.9a19.416,19.416,0,0,0-12.7,5.2l-5-6a26.894,26.894,0,0,1,17.9-7.1c10.9,0,17.8,4.6,17.8,14.3,0,8.1-4,11.5-13.2,17-10,5.9-12.9,9.3-14.1,14.3h27.8v7.6l-37.6.1Z"
     class="cls-1" />
  <g
     id="g56">
    <rect
       id="rect40"
       height="78"
       width="544"
       y="343.8"
       x="923.1"
       class="cls-5" />
    <path
       id="path42"
       transform="translate(0 0)"
       d="M1044.9,380.4h-11.7v18.8h-10.6V346h23.3c10,0,18.3,5.5,18.3,16.9C1064.1,375.2,1055.9,380.4,1044.9,380.4Zm.6-24.1h-12.2V370h12.4c4.9,0,7.6-2.3,7.6-6.9C1053.2,358.5,1050.2,356.3,1045.5,356.3Z"
       class="cls-2" />
    <path
       id="path44"
       transform="translate(0 0)"
       d="M1105.1,399.2l-9.5-19.2h-10.7v19.2h-10.6V346h24.8c10,0,18.3,5.5,18.3,16.9,0,8-3.4,13-10.2,15.7l10.2,20.7-12.3-.1Zm-6.3-42.9h-13.9V370h13.9c4.9,0,7.6-2.3,7.6-6.9C1106.4,358.3,1103.5,356.3,1098.8,356.3Z"
       class="cls-2" />
    <path
       id="path46"
       transform="translate(0 0)"
       d="M1148.8,400c-14.5,0-23.1-11.2-23.1-27.4s8.6-27.4,23.1-27.4,23.1,11.2,23.1,27.4S1163.3,400,1148.8,400Zm0-44.3c-8.6,0-12.2,7.4-12.2,16.9s3.6,16.9,12.2,16.9,12.2-7.4,12.2-16.9S1157.4,355.7,1148.8,355.7Z"
       class="cls-2" />
    <path
       id="path48"
       transform="translate(0 0)"
       d="M1213.2,361.5a10.145,10.145,0,0,0-9.7-5.8c-8,0-12.5,7-12.5,16.9,0,9.6,4.6,16.9,12.6,16.9,4.8,0,7.6-2.1,10.4-6.8l9,5.3c-3.6,7.5-10,12-19.7,12-13.9,0-23.3-10.6-23.3-27.4,0-16.2,9.7-27.4,23.6-27.4,10,0,16.1,4.9,19.5,11.8Z"
       class="cls-2" />
    <path
       id="path50"
       transform="translate(0 0)"
       d="M1233.7,399.2V346h36.9v10.4h-26.3v9.2h15.3v10.3h-15.3v12.8h27.4v10.4l-38,.1Z"
       class="cls-2" />
    <path
       id="path52"
       transform="translate(0 0)"
       d="M1300.1,400c-8.9,0-16.6-3.7-20.7-9.7l7.7-6.8a17.3,17.3,0,0,0,13.6,6.1c6.3,0,9.3-1.7,9.3-5.8,0-3.4-1.8-4.9-11.9-7.2-9.8-2.3-16.6-5.4-16.6-15.9,0-9.7,8.5-15.6,19-15.6a25.26,25.26,0,0,1,19.4,8.4l-7.7,7.4c-3.4-3.5-7.2-5.5-12.1-5.5-5.7,0-7.6,2.4-7.6,4.8,0,3.3,2.3,4.4,10.7,6.4s17.8,4.9,17.8,16.4C1321,393.2,1314.6,400,1300.1,400Z"
       class="cls-2" />
    <path
       id="path54"
       transform="translate(0 0)"
       d="M1349.2,400c-8.9,0-16.6-3.7-20.7-9.7l7.7-6.8a17.3,17.3,0,0,0,13.6,6.1c6.3,0,9.3-1.7,9.3-5.8,0-3.4-1.8-4.9-11.9-7.2-9.8-2.3-16.6-5.4-16.6-15.9,0-9.7,8.5-15.6,19-15.6a25.26,25.26,0,0,1,19.4,8.4l-7.7,7.4c-3.4-3.5-7.2-5.5-12.1-5.5-5.7,0-7.6,2.4-7.6,4.8,0,3.3,2.3,4.4,10.7,6.4s17.8,4.9,17.8,16.4C1370.1,393.2,1363.7,400,1349.2,400Z"
       class="cls-2" />
  </g>
  <g
     id="g72">
    <rect
       id="rect58"
       height="78"
       width="438"
       y="100.6"
       x="1696.7"
       class="cls-5" />
    <path
       id="path60"
       transform="translate(0 0)"
       d="M1715.4,156.8a27.225,27.225,0,0,1-15.3-5.1l3.6-5.9a20.826,20.826,0,0,0,11.6,4c4.9,0,7.3-1.6,7.3-4.4,0-3-3.5-4.5-9.3-6.7-8.6-3.3-11.7-6.2-11.7-12.5,0-7.1,5.6-10.9,13.6-10.9a23.41,23.41,0,0,1,13.5,4.4l-3.4,6a17.188,17.188,0,0,0-10.3-3.4c-3.8,0-5.5,1.5-5.5,3.6,0,2,1.4,3.4,7.4,5.8,8.9,3.4,13.5,5.9,13.5,13.4C1730.4,153.9,1723.2,156.8,1715.4,156.8Z"
       class="cls-2" />
    <path
       id="path62"
       transform="translate(0 0)"
       d="M1758.7,155a15.643,15.643,0,0,1-7.7,1.8c-5.5,0-9-3.4-9-10.6v-23h-5.7v-7.1h5.7V104.7l7.7-4.1v15.5h9.9v7.1h-9.9v21.7c0,3.7,1.2,4.8,4.1,4.8a13.113,13.113,0,0,0,5.8-1.6Z"
       class="cls-2" />
    <path
       id="path64"
       transform="translate(0 0)"
       d="M1792.4,156v-3.8c-2.9,2.7-6.2,4.6-10.4,4.6-8.6,0-15.4-6.2-15.4-21.4,0-13.7,7.4-20.1,15.7-20.1a13.9,13.9,0,0,1,10,4.6V104.6l7.8-4V156Zm.1-28.3c-1.7-2.4-5.4-5.2-9.3-5.2-5.6,0-8.7,4.3-8.7,12.7,0,10,3.2,14.4,9,14.4,3.7,0,7-2.5,9-5.1Z"
       class="cls-2" />
    <path
       id="path66"
       transform="translate(0 0)"
       d="M1827.4,156.8c-10,0-17.6-8.3-17.6-20.7,0-13.1,7.8-20.8,17.8-20.8,10.2,0,17.8,8.1,17.8,20.6C1845.4,149.1,1837.6,156.8,1827.4,156.8Zm-.1-34.1c-5.9,0-9.6,5.2-9.6,13.1,0,8.7,4,13.5,10,13.5,5.9,0,9.8-6,9.8-13.3C1837.5,128,1833.6,122.7,1827.3,122.7Z"
       class="cls-2" />
    <path
       id="path68"
       transform="translate(0 0)"
       d="M1879,156v-3.8c-2,2.9-5.9,4.6-10,4.6-9.3,0-14.2-6.1-14.2-17.9V116h7.8v22.6c0,8.1,3,10.9,8.2,10.9s8.2-3.7,8.2-10.2V116h7.8v39.9l-7.8.1Z"
       class="cls-2" />
    <path
       id="path70"
       transform="translate(0 0)"
       d="M1917.4,155a15.643,15.643,0,0,1-7.7,1.8c-5.5,0-9-3.4-9-10.6v-23H1895v-7.1h5.7V104.7l7.7-4.1v15.5h9.9v7.1h-9.9v21.7c0,3.7,1.2,4.8,4.1,4.8a13.113,13.113,0,0,0,5.8-1.6Z"
       class="cls-2" />
  </g>
  <g
     id="g86">
    <rect
       id="rect74"
       height="78"
       width="438"
       y="198.8"
       x="187.9"
       class="cls-5" />
    <path
       id="path76"
       transform="translate(0 0)"
       d="M206.6,255a27.225,27.225,0,0,1-15.3-5.1l3.6-5.9a20.826,20.826,0,0,0,11.6,4c4.9,0,7.3-1.6,7.3-4.4,0-3-3.5-4.5-9.3-6.7-8.6-3.3-11.7-6.2-11.7-12.5,0-7.1,5.6-10.9,13.6-10.9a23.41,23.41,0,0,1,13.5,4.4l-3.4,6a17.188,17.188,0,0,0-10.3-3.4c-3.8,0-5.5,1.5-5.5,3.6,0,2,1.4,3.4,7.4,5.8,8.9,3.4,13.5,5.9,13.5,13.4C221.6,252.1,214.4,255,206.6,255Z"
       class="cls-2" />
    <path
       id="path78"
       transform="translate(0 0)"
       d="M249.9,253.2a15.643,15.643,0,0,1-7.7,1.8c-5.5,0-9-3.4-9-10.6v-23h-5.7v-7.1h5.7V202.9l7.7-4.1v15.5h9.9v7.1h-9.9v21.7c0,3.7,1.2,4.8,4.1,4.8a13.113,13.113,0,0,0,5.8-1.6Z"
       class="cls-2" />
    <path
       id="path80"
       transform="translate(0 0)"
       d="M283.6,254.2v-3.8c-2.9,2.7-6.2,4.6-10.4,4.6-8.6,0-15.4-6.2-15.4-21.4,0-13.7,7.4-20.1,15.7-20.1a13.9,13.9,0,0,1,10,4.6V202.8l7.8-4v55.4Zm.1-28.3c-1.7-2.4-5.4-5.2-9.3-5.2-5.6,0-8.7,4.3-8.7,12.7,0,10,3.2,14.4,9,14.4,3.7,0,7-2.5,9-5.1Z"
       class="cls-2" />
    <path
       id="path82"
       transform="translate(0 0)"
       d="M307.2,209.1a5.05,5.05,0,1,1,5-5A4.951,4.951,0,0,1,307.2,209.1Zm-3.9,45.1V214.3h7.8v39.9Z"
       class="cls-2" />
    <path
       id="path84"
       transform="translate(0 0)"
       d="M347.3,254.2V231.6c0-8.1-3-10.9-8.2-10.9s-8.2,3.7-8.2,10.2v23.3h-7.8V214.3h7.8v3.8c2-2.9,5.9-4.6,10-4.6,9.3,0,14.2,6.1,14.2,17.9v22.9l-7.8-.1Z"
       class="cls-2" />
  </g>
  <g
     id="g102">
    <rect
       id="rect88"
       height="78"
       width="438"
       y="497.7"
       x="1696.7"
       class="cls-5" />
    <path
       id="path90"
       transform="translate(0 0)"
       d="M1715.4,553.9a27.225,27.225,0,0,1-15.3-5.1l3.6-5.9a20.826,20.826,0,0,0,11.6,4c4.9,0,7.3-1.6,7.3-4.4,0-3-3.5-4.5-9.3-6.7-8.6-3.3-11.7-6.2-11.7-12.5,0-7.1,5.6-10.9,13.6-10.9a23.41,23.41,0,0,1,13.5,4.4l-3.4,6a17.188,17.188,0,0,0-10.3-3.4c-3.8,0-5.5,1.5-5.5,3.6,0,2,1.4,3.4,7.4,5.8,8.9,3.4,13.5,5.9,13.5,13.4C1730.4,551,1723.2,553.9,1715.4,553.9Z"
       class="cls-2" />
    <path
       id="path92"
       transform="translate(0 0)"
       d="M1758.7,552.1a15.643,15.643,0,0,1-7.7,1.8c-5.5,0-9-3.4-9-10.6v-23h-5.7v-7.1h5.7V501.8l7.7-4.1v15.5h9.9v7.1h-9.9V542c0,3.7,1.2,4.8,4.1,4.8a13.113,13.113,0,0,0,5.8-1.6Z"
       class="cls-2" />
    <path
       id="path94"
       transform="translate(0 0)"
       d="M1792.4,553.1v-3.8c-2.9,2.7-6.2,4.6-10.4,4.6-8.6,0-15.4-6.2-15.4-21.4,0-13.7,7.4-20.1,15.7-20.1a13.9,13.9,0,0,1,10,4.6V501.7l7.8-4v55.4Zm.1-28.3c-1.7-2.4-5.4-5.2-9.3-5.2-5.6,0-8.7,4.3-8.7,12.7,0,10,3.2,14.4,9,14.4,3.7,0,7-2.5,9-5.1Z"
       class="cls-2" />
    <path
       id="path96"
       transform="translate(0 0)"
       d="M1843.8,535.9h-26.4c.8,7.7,5.2,10.9,10,10.9a14.133,14.133,0,0,0,8.7-3.2l4.6,5c-3.5,3.3-7.7,5.2-13.8,5.2-9.3,0-17.3-7.5-17.3-20.7,0-13.5,7.1-20.8,17.5-20.8,11.3,0,16.8,9.2,16.8,20A13.321,13.321,0,0,1,1843.8,535.9Zm-17.1-16.5c-5.2,0-8.4,3.6-9.1,10h18.5C1835.8,524,1833.2,519.4,1826.7,519.4Z"
       class="cls-2" />
    <path
       id="path98"
       transform="translate(0 0)"
       d="M1875.5,521.5a11.833,11.833,0,0,0-6-1.4c-4.9,0-7.8,3.5-7.8,10.3v22.8h-7.8V513.3h7.8v3.8a10.932,10.932,0,0,1,9.1-4.6c3.2,0,5.2.6,6.8,1.7Z"
       class="cls-2" />
    <path
       id="path100"
       transform="translate(0 0)"
       d="M1907.2,521.5a11.833,11.833,0,0,0-6-1.4c-4.9,0-7.8,3.5-7.8,10.3v22.8h-7.8V513.3h7.8v3.8a10.932,10.932,0,0,1,9.1-4.6c3.2,0,5.2.6,6.8,1.7Z"
       class="cls-2" />
  </g>
  <g
     id="g108">
    <line
       id="line104"
       y2="178.6"
       x2="2196.3"
       y1="178.6"
       x1="1698.3"
       class="cls-6" />
    <polygon
       id="polygon106"
       points="2188.9 208.5 2233.4 178.6 2188.9 148.7 2188.9 208.5"
       class="cls-2" />
  </g>
  <g
     id="g114">
    <line
       id="line110"
       y2="577.7"
       x2="2416.6"
       y1="577.7"
       x1="1700.1"
       class="cls-6" />
    <polygon
       id="polygon112"
       points="2407.1 607.6 2463.9 577.7 2407.1 547.8 2407.1 607.6"
       class="cls-2" />
  </g>
  <g
     id="g120">
    <line
       id="line116"
       y2="286.1"
       x2="627.2"
       y1="286.1"
       x1="139.4"
       class="cls-6" />
    <polygon
       id="polygon118"
       points="617.7 316 674.5 286.1 617.7 256.2 617.7 316"
       class="cls-2" />
  </g>
  <g
     id="g212">
    <path
       id="path122"
       transform="translate(0 0)"
       d="M712.8,717.5c-2,.1-4,.4-5.9.4H87.2v-245H383c-1.2-5.8-2.5-10.9-3.4-16-3.4-19.9,6.4-37.7,24.9-45.7,15.5-6.8,31.8-8.4,48.3-8.5,17.2-.2,34.3.6,51.4-.4,9-.5,18.1-3.1,26.5-6.4,11.2-4.4,15.7-14.8,14.9-28.9-1.1-18.1-1.9-36.2-2.8-54.4-.1-1.6.2-3.3.3-5.5,5.6.5,10.8.9,16.5,1.3,0,4.2-.2,8.3,0,12.3.8,15.3,2,30.6,2.5,45.9.8,23.6-6.6,38.3-30.8,47.1-14.3,5.2-29.1,6.4-44.2,6.4-17.8,0-35.7-.3-53.4.8-8.2.5-16.6,3.4-24.2,6.9-15.1,6.9-15.4,20.3-12.3,32.2,3.4,12.8,3.6,12.7,16.7,12.7H705.8c2.3,0,4.6-.2,7-.3ZM400.5,689.6q97.5,0,194.9.1c4.3,0,5.9-1,5.7-5.6-.3-8.7-.4-17.3,0-26,.3-5.2-1.5-6.4-6.5-6.3-53.8.2-107.6.1-161.4.1q-113.7,0-227.4-.1c-4.6,0-6.1,1.2-6,5.9.3,8.5.1,17,.1,25.5,0,6.4,0,6.5,6.7,6.5Q303.5,689.55,400.5,689.6ZM415.4,642V605H384.3v37Zm198.5,47.3c1.7.1,3,.3,4.3.3,8.2,0,16.3.1,24.4-.2,1,0,2.7-2.2,2.8-3.4.3-7,.1-14,.1-21,0-13.1,0-13.1-12.9-13.1H613.8C613.9,664.7,613.9,676.7,613.9,689.3Zm-428.5.2V651.8c-9.7,0-19-.1-28.3.1-1.1,0-2.9,2.1-3,3.3-.2,10.3-.2,20.6,0,31,0,1.1,1.9,3.1,3,3.2C166.4,689.7,175.7,689.5,185.4,689.5Zm290.4-47.3c10.2,0,19.7.1,29.1-.1,1,0,2.7-1.9,2.7-3,.2-10.5.2-20.9,0-31.4,0-1-1.8-2.9-2.8-2.9-8.6-.2-17.3-.2-25.9,0-1,0-2.9,1.8-2.9,2.8C475.7,618.8,475.8,630.1,475.8,642.2ZM154,551.6c0,11.9-.1,23.4.1,34.8,0,.9,1.4,2.5,2.2,2.5,9.7.2,19.5.1,29.2.1V551.6Zm460.1,0v37.5h28.2c2.7,0,3.4-1.3,3.3-3.7-.1-7.1,0-14.3,0-21.4V551.6Zm-229.9.1v37.1h31.1V551.7Zm45.5,0c0,11.7.1,22.9,0,34,0,3.1,1.7,3.5,4.2,3.5,7.7-.1,15.3-.2,23,.1,4.2.2,5.1-1.6,5-5.3-.2-6.7-.1-13.3-.1-20V551.7Zm46.5-.1v37.1h31.1V551.6Zm45.6,37.5c10.1,0,19.7.1,29.3-.1a3.667,3.667,0,0,0,2.4-2.3c.2-11.6.1-23.2.1-34.8H521.9C521.8,564.3,521.8,576.2,521.8,589.1Zm45.8-37.4c0,11.9-.1,23.3.2,34.7,0,.9,2.3,2.6,3.6,2.6,8.1.2,16.3,0,24.4.2,3.2.1,3.9-1.5,3.9-4.3-.1-5.6,0-11.3,0-16.9V551.7ZM154,641.8h31.5V604.7c-9.9,0-19.5-.1-29.1.1a3.292,3.292,0,0,0-2.3,2.4C154,618.6,154,630,154,641.8Zm123.9.1c0-11.9.1-23.1-.2-34.4,0-1-2.2-2.7-3.4-2.8-8.3-.2-16.6-.1-24.9-.2-2.6,0-3.5,1-3.5,3.6.1,6.8,0,13.6,0,20.5v13.3Zm45.8.3c0-12.1.1-23.3-.1-34.6,0-1-1.9-2.8-2.9-2.8-8.6-.2-17.3-.2-25.9,0-1,0-2.8,1.8-2.9,2.8-.2,10.5-.2,21,0,31.4,0,1.1,1.7,3,2.7,3C304.1,642.3,313.5,642.2,323.7,642.2Zm229.8-.3c0-11.9.1-23.3-.1-34.8,0-.9-2.1-2.4-3.2-2.4-8.3-.2-16.6,0-24.9-.2-2.9,0-3.7,1.2-3.6,3.9.1,4.8,0,9.6,0,14.5v19Zm46.1-18.4c0-5-.1-10,0-15,.1-2.7-.8-4-3.7-3.9-8.2.1-16.3.1-24.5,0-2.7,0-3.9.9-3.9,3.8q.15,15,0,30c0,2.7.8,4,3.7,3.9,8.2-.1,16.3-.1,24.5,0,3.2.1,4-1.5,3.9-4.3C599.5,633.2,599.6,628.3,599.6,623.5Zm14.1-18.8v37.5c10,0,19.3.1,28.6-.1,1.1,0,3-2,3-3.1.2-10.3.2-20.7,0-31,0-1.1-1.7-3.1-2.7-3.1C633.3,604.6,623.8,604.7,613.7,604.7Zm-275.8-53c0,11.9-.1,23.3.2,34.8,0,.9,2.4,2.5,3.7,2.6,5.6.3,11.3.1,17,.1,11.1,0,11.1,0,11.1-10.9V551.8C359,551.7,348.9,551.7,337.9,551.7ZM292,589.1c10,0,19.8.1,29.5-.2.8,0,2.1-2.6,2.1-4.1.2-9,.1-18,.1-26.9v-6H292Zm-46-37.4c0,11.8-.1,23.1.1,34.4,0,1,2.1,2.8,3.3,2.9,5.8.3,11.6.1,17.4.1h10.7V551.7Zm-46.1,0c0,11.9-.1,23.3.2,34.8,0,.9,2.4,2.5,3.7,2.5,8,.2,16,0,24,.2,3.5.1,4.3-1.5,4.2-4.5-.2-4.7,0-9.3,0-14v-19Zm-91.3,0v37.4c9.7,0,19,.1,28.3-.1,1,0,2.9-1.5,2.9-2.3.2-11.6.1-23.2.1-35Zm77-53.4c-9.9,0-19.4-.1-28.8.1a3.74,3.74,0,0,0-2.7,2.6c-.2,11.4-.1,22.9-.1,34.6h31.6ZM200,535.9c10.2,0,20,.1,29.8-.2.8,0,2.1-2.3,2.1-3.6.2-10,.1-20,.1-29.9,0-2.6-.8-4-3.7-4-8.3.1-16.6-.1-24.9.1-1.1,0-3.2,1.7-3.2,2.6C199.9,512.4,200,523.8,200,535.9ZM108.2,642.2c10.1,0,19.4.1,28.7-.2,1.1,0,3-2.4,3-3.7.3-10,.1-20,.2-29.9,0-2.4-.7-3.7-3.4-3.7-8.5.1-17-.1-25.4.1-1,0-2.9,1.8-2.9,2.8C108.1,618.9,108.2,630.1,108.2,642.2ZM323.7,535.7c0-11.7.1-22.9-.1-34,0-1.1-1.9-3.2-3-3.2q-12.75-.45-25.5,0c-1.1,0-3.1,1.7-3.2,2.6-.2,11.5-.1,22.9-.1,34.7C302.5,535.7,312.8,535.7,323.7,535.7ZM199.9,623.4c0,5,.1,10,0,15-.1,2.8,1,3.9,3.8,3.8,8.2-.1,16.3-.1,24.5,0,2.9,0,3.8-1.1,3.8-3.9q-.15-15,0-30c0-2.8-1.1-3.9-3.8-3.8-8.2.1-16.3.1-24.5,0-2.8,0-3.8,1.1-3.8,3.9C200,613.4,199.9,618.4,199.9,623.4Zm307.8-87.7c0-11.7.1-22.8-.1-34,0-1.1-1.9-3.2-2.9-3.2-8.7-.3-17.3-.2-26,0-1,0-2.7,1.6-2.7,2.5-.2,11.5-.1,22.9-.1,34.7ZM108.5,689.5c9.8,0,19.1.1,28.4-.1,1.1,0,3-2.1,3-3.2.2-10.2.1-20.3.2-30.5,0-2.8-1-3.9-3.8-3.8-8.2.1-16.3.1-24.5,0-3-.1-3.6,1.4-3.6,4,.1,9.2,0,18.3,0,27.5C108.2,685.2,108.3,687.2,108.5,689.5ZM369.8,536c0-12.1.1-23.4-.2-34.7,0-1-2.2-2.8-3.4-2.9q-12.45-.45-24.9,0c-1.2,0-3.3,2.2-3.3,3.5-.3,10.3-.2,20.6,0,30.9a4.109,4.109,0,0,0,2.7,3C350.1,536.1,359.6,536,369.8,536Zm59.8,87.6c0,4.7.1,9.3,0,14-.1,3.3.8,4.8,4.5,4.7,7.8-.2,15.7-.2,23.5,0,3,.1,4.2-.9,4.2-4-.1-9.8-.1-19.7,0-29.5.1-3.4-1.3-4.3-4.5-4.2-7.7.1-15.3.2-23,0-3.9-.1-4.9,1.5-4.7,5C429.8,614.2,429.6,618.9,429.6,623.6ZM461.7,517c0-4.8-.1-9.6,0-14.5.1-2.8-.7-4.3-3.9-4.3-8.1.1-16.3.1-24.5,0-2.9,0-3.7,1.3-3.7,3.9.1,10,.1,20,0,29.9,0,2.7.8,3.9,3.7,3.9,8.3-.1,16.6-.1,25,0,2.6,0,3.5-1,3.5-3.6C461.6,527.3,461.7,522.1,461.7,517ZM337.9,623.2c0,5,.1,10,0,15-.1,3,1,4.1,4.1,4.1q12-.3,24,0c3.1.1,4-1.2,4-4.2-.1-9.8-.1-19.6,0-29.5,0-3.1-1.2-4.1-4.1-4.1q-12,.15-24,0c-3.1-.1-4.1,1.3-4,4.2C338,613.6,337.9,618.4,337.9,623.2Zm215.7-87.5c0-11.8.1-22.9-.1-34.1,0-1.1-2-3.1-3.1-3.2-8.5-.3-17-.2-25.5,0-1.1,0-3.1,1.7-3.1,2.6-.2,11.4-.1,22.9-.1,34.6C532.4,535.7,542.6,535.7,553.6,535.7ZM108.7,498.3v37.2h31.4c0-11.6.1-22.7-.1-33.8,0-1.1-2-3.2-3.1-3.2C127.6,498.2,118.3,498.3,108.7,498.3Zm307,37.4c0-11.8.1-23.2-.1-34.7,0-.9-2-2.5-3.1-2.6-8.5-.2-17-.2-25.4,0-1,0-2.9,1.5-2.9,2.3-.2,11.6-.1,23.1-.1,35Zm198.2-37.4v37.2h31.6c0-11.6.1-22.7-.1-33.9,0-1.1-2-3.2-3.1-3.2C633,498.2,623.7,498.3,613.9,498.3ZM599.6,536c0-12.2.1-23.5-.1-34.8,0-1-1.9-2.8-3-2.8-8.5-.2-17-.3-25.5,0-1.2,0-3.2,2-3.3,3-.3,10.5-.2,21,0,31.5,0,1,1.8,2.9,2.8,2.9C579.9,536.1,589.4,536,599.6,536Zm-321.8-.1c0-12,.1-23.5-.1-35,0-.9-2-2.6-3.1-2.6q-12.75-.3-25.5,0c-1.1,0-3,2.1-3,3.2-.2,10.3-.2,20.7,0,31,0,1.1,1.6,3.1,2.5,3.1C258.2,536,267.8,535.9,277.8,535.9ZM691.1,642.2c0-12.1.1-23.7-.1-35.3,0-.7-2-2.1-3.1-2.1-8.3-.2-16.7-.2-25,0-1.2,0-3.2,1.9-3.3,3q-.3,15.75,0,31.5a3.934,3.934,0,0,0,2.5,2.8C671.6,642.2,681,642.2,691.1,642.2Zm-31.6-90.5c0,11.7.1,22.8,0,33.9,0,3.1,1.6,3.5,4.1,3.5q11.7-.15,23.4,0c3.3.1,4.4-1,4.3-4.3-.2-8.3,0-16.6,0-24.9v-8.3C680.3,551.7,670.2,551.7,659.5,551.7Zm31.7,119.5c0-5.2-.1-10.3,0-15.5.1-2.6-.7-4-3.7-3.9-8.1.1-16.3.1-24.4,0-2.9,0-3.7,1.3-3.7,3.9.1,10,.1,20,0,29.9,0,2.7.9,3.9,3.7,3.9,8.1-.1,16.3-.1,24.4,0,3,0,3.7-1.3,3.6-3.9C691.1,680.9,691.2,676,691.2,671.2Zm0-135.6c0-11.7.1-23.2-.1-34.6,0-.9-2-2.5-3.1-2.6-8.3-.2-16.6-.2-25,0-1.2,0-3.3,1.6-3.3,2.5-.2,11.4-.1,22.9-.1,34.7Z"
       class="cls-2" />
    <path
       id="path124"
       transform="translate(0 0)"
       d="M400.5,689.6H206.6c-6.6,0-6.6,0-6.7-6.5,0-8.5.2-17-.1-25.5-.2-4.7,1.4-5.9,6-5.9q113.7.15,227.4.1c53.8,0,107.6.1,161.4-.1,5,0,6.8,1.1,6.5,6.3-.4,8.6-.4,17.3,0,26,.2,4.5-1.4,5.6-5.7,5.6Q498.05,689.45,400.5,689.6Z"
       class="cls-1" />
    <path
       id="path126"
       transform="translate(0 0)"
       d="M415.4,642H384.3V605h31.1Z"
       class="cls-1" />
    <path
       id="path128"
       transform="translate(0 0)"
       d="M613.9,689.3V651.9h18.8c12.9,0,12.9,0,12.9,13.1,0,7,.1,14-.1,21,0,1.2-1.8,3.4-2.8,3.4-8.1.3-16.3.2-24.4.2C616.9,689.6,615.6,689.4,613.9,689.3Z"
       class="cls-1" />
    <path
       id="path130"
       transform="translate(0 0)"
       d="M185.4,689.5c-9.7,0-19,.1-28.3-.1-1.1,0-3-2-3-3.2-.2-10.3-.2-20.6,0-31,0-1.2,1.9-3.2,3-3.3,9.3-.3,18.6-.1,28.3-.1Z"
       class="cls-1" />
    <path
       id="path132"
       transform="translate(0 0)"
       d="M475.8,642.2c0-12.1-.1-23.4.1-34.7,0-1,1.9-2.8,2.9-2.8,8.6-.2,17.3-.2,25.9,0,1,0,2.8,1.9,2.8,2.9.2,10.5.2,20.9,0,31.4,0,1.1-1.7,3-2.7,3C495.4,642.3,486,642.2,475.8,642.2Z"
       class="cls-1" />
    <path
       id="path134"
       transform="translate(0 0)"
       d="M154,551.6h31.5V589c-9.7,0-19.5.1-29.2-.1-.8,0-2.2-1.6-2.2-2.5C153.9,575,154,563.6,154,551.6Z"
       class="cls-1" />
    <path
       id="path136"
       transform="translate(0 0)"
       d="M614.1,551.6h31.5v33.8c0,2.4-.6,3.7-3.3,3.7-9.3-.1-18.5,0-28.2,0Z"
       class="cls-1" />
    <path
       id="path138"
       transform="translate(0 0)"
       d="M384.2,551.7h31.1v37.1H384.2Z"
       class="cls-1" />
    <path
       id="path140"
       transform="translate(0 0)"
       d="M429.7,551.7h32V564c0,6.7-.2,13.3.1,20,.1,3.7-.8,5.4-5,5.3-7.6-.3-15.3-.1-23-.1-2.5,0-4.2-.4-4.2-3.5C429.7,574.6,429.7,563.4,429.7,551.7Z"
       class="cls-1" />
    <path
       id="path142"
       transform="translate(0 0)"
       d="M476.2,551.6h31.1v37.1H476.2Z"
       class="cls-1" />
    <path
       id="path144"
       transform="translate(0 0)"
       d="M521.8,589.1V551.9h31.7c0,11.6.1,23.2-.1,34.8A3.292,3.292,0,0,1,551,589C541.5,589.2,531.9,589.1,521.8,589.1Z"
       class="cls-1" />
    <path
       id="path146"
       transform="translate(0 0)"
       d="M567.6,551.7h32V568c0,5.6-.1,11.3,0,16.9.1,2.8-.6,4.3-3.9,4.3-8.1-.2-16.3.1-24.4-.2-1.3,0-3.6-1.7-3.6-2.6C567.5,575,567.6,563.6,567.6,551.7Z"
       class="cls-1" />
    <path
       id="path148"
       transform="translate(0 0)"
       d="M154,641.8c0-11.8-.1-23.2.1-34.6a3.468,3.468,0,0,1,2.3-2.4c9.6-.2,19.2-.1,29.1-.1v37.1Z"
       class="cls-1" />
    <path
       id="path150"
       transform="translate(0 0)"
       d="M277.9,641.9H246V628.6c0-6.8.1-13.6,0-20.5,0-2.5.9-3.6,3.5-3.6,8.3.1,16.6-.1,24.9.2,1.2,0,3.4,1.8,3.4,2.8C277.9,618.8,277.9,630.1,277.9,641.9Z"
       class="cls-1" />
    <path
       id="path152"
       transform="translate(0 0)"
       d="M323.7,642.2c-10.2,0-19.7.1-29.1-.1-1,0-2.7-1.9-2.7-3-.2-10.5-.2-21,0-31.4a3.929,3.929,0,0,1,2.9-2.8c8.6-.2,17.3-.2,25.9,0,1,0,2.9,1.8,2.9,2.8C323.8,618.8,323.7,630.1,323.7,642.2Z"
       class="cls-1" />
    <path
       id="path154"
       transform="translate(0 0)"
       d="M553.5,641.9H521.6v-19c0-4.8.1-9.6,0-14.5-.1-2.7.7-4,3.6-3.9,8.3.1,16.6-.1,24.9.2,1.1,0,3.2,1.6,3.2,2.4C553.6,618.6,553.5,630,553.5,641.9Z"
       class="cls-1" />
    <path
       id="path156"
       transform="translate(0 0)"
       d="M599.6,623.5c0,4.8-.1,9.7,0,14.5.1,2.8-.7,4.3-3.9,4.3-8.2-.2-16.3-.1-24.5,0-2.9,0-3.7-1.2-3.7-3.9q.15-15,0-30c0-2.9,1.2-3.8,3.9-3.8,8.2.1,16.3.1,24.5,0,2.9,0,3.8,1.2,3.7,3.9C599.5,613.5,599.6,618.5,599.6,623.5Z"
       class="cls-1" />
    <path
       id="path158"
       transform="translate(0 0)"
       d="M613.7,604.7c10.1,0,19.6-.1,29,.1.9,0,2.6,2,2.7,3.1.2,10.3.2,20.7,0,31,0,1.1-2,3.1-3,3.1-9.3.3-18.6.1-28.6.1V623.4C613.7,617.5,613.7,611.5,613.7,604.7Z"
       class="cls-1" />
    <path
       id="path160"
       transform="translate(0 0)"
       d="M337.9,551.7h32v26.5c0,10.9,0,10.9-11.1,10.9-5.7,0-11.3.2-17-.1-1.3-.1-3.7-1.6-3.7-2.6C337.8,575,337.9,563.6,337.9,551.7Z"
       class="cls-1" />
    <path
       id="path162"
       transform="translate(0 0)"
       d="M292,589.1V551.9h31.7v6c0,9,.1,18-.1,26.9,0,1.4-1.3,4.1-2.1,4.1C311.8,589.2,302.1,589.1,292,589.1Z"
       class="cls-1" />
    <path
       id="path164"
       transform="translate(0 0)"
       d="M246,551.7h31.6v37.4H266.9c-5.8,0-11.6.2-17.4-.1-1.2-.1-3.3-1.8-3.3-2.9C245.9,574.9,246,563.6,246,551.7Z"
       class="cls-1" />
    <path
       id="path166"
       transform="translate(0 0)"
       d="M199.9,551.7h32v19c0,4.7-.1,9.3,0,14,.1,3-.7,4.6-4.2,4.5-8-.2-16,.1-24-.2-1.3,0-3.7-1.6-3.7-2.5C199.9,575.1,199.9,563.6,199.9,551.7Z"
       class="cls-1" />
    <path
       id="path168"
       transform="translate(0 0)"
       d="M108.6,551.7H140c0,11.8.1,23.4-.1,35,0,.8-1.9,2.3-2.9,2.3-9.3.2-18.6.1-28.3.1C108.6,576.5,108.6,564.3,108.6,551.7Z"
       class="cls-1" />
    <path
       id="path170"
       transform="translate(0 0)"
       d="M185.6,498.3v37.3H154c0-11.8-.1-23.2.1-34.6a3.74,3.74,0,0,1,2.7-2.6C166.3,498.2,175.7,498.3,185.6,498.3Z"
       class="cls-1" />
    <path
       id="path172"
       transform="translate(0 0)"
       d="M200,535.9c0-12.1-.1-23.5.1-34.9,0-.9,2.1-2.5,3.2-2.6,8.3-.2,16.6-.1,24.9-.1,2.9,0,3.7,1.3,3.7,4-.1,10,.1,20-.1,29.9,0,1.3-1.3,3.6-2.1,3.6C220,536,210.2,535.9,200,535.9Z"
       class="cls-1" />
    <path
       id="path174"
       transform="translate(0 0)"
       d="M108.2,642.2c0-12.1-.1-23.3.1-34.6,0-1,1.9-2.8,2.9-2.8,8.5-.2,17-.1,25.4-.1,2.7,0,3.4,1.3,3.4,3.7-.1,10,.1,20-.2,29.9,0,1.3-1.9,3.7-3,3.7C127.6,642.3,118.3,642.2,108.2,642.2Z"
       class="cls-1" />
    <path
       id="path176"
       transform="translate(0 0)"
       d="M323.7,535.7H291.8c0-11.8-.1-23.2.1-34.7,0-.9,2-2.5,3.2-2.6q12.75-.3,25.5,0c1.1,0,3,2.1,3,3.2C323.8,512.8,323.7,524,323.7,535.7Z"
       class="cls-1" />
    <path
       id="path178"
       transform="translate(0 0)"
       d="M199.9,623.4c0-5,.1-10,0-15-.1-2.8,1-3.9,3.8-3.9,8.2.1,16.3.1,24.5,0,2.8,0,3.9,1,3.8,3.8q-.15,15,0,30c0,2.7-.9,3.9-3.8,3.9-8.2-.1-16.3-.1-24.5,0-2.8,0-3.9-1.1-3.8-3.8C200,633.4,199.9,628.4,199.9,623.4Z"
       class="cls-1" />
    <path
       id="path180"
       transform="translate(0 0)"
       d="M507.7,535.7H475.8c0-11.8-.1-23.2.1-34.7,0-.9,1.8-2.5,2.7-2.5,8.7-.2,17.3-.2,26,0,1.1,0,2.9,2.1,2.9,3.2C507.8,512.8,507.7,524,507.7,535.7Z"
       class="cls-1" />
    <path
       id="path182"
       transform="translate(0 0)"
       d="M108.5,689.5c-.1-2.4-.3-4.3-.3-6.3V655.7c0-2.6.6-4,3.6-4,8.2.1,16.3.1,24.5,0,2.8,0,3.8,1.1,3.8,3.8-.1,10.2.1,20.3-.2,30.5,0,1.2-1.9,3.2-3,3.2C127.6,689.7,118.3,689.5,108.5,689.5Z"
       class="cls-1" />
    <path
       id="path184"
       transform="translate(0 0)"
       d="M369.8,536c-10.2,0-19.7.1-29.1-.1-1,0-2.7-1.9-2.7-3q-.3-15.45,0-30.9c0-1.2,2.1-3.5,3.3-3.5q12.45-.45,24.9,0c1.2,0,3.4,1.8,3.4,2.9C369.9,512.6,369.8,523.9,369.8,536Z"
       class="cls-1" />
    <path
       id="path186"
       transform="translate(0 0)"
       d="M429.6,623.6c0-4.7.2-9.3-.1-14-.2-3.5.8-5.2,4.7-5,7.7.2,15.3.2,23,0,3.1-.1,4.5.9,4.5,4.2-.2,9.8-.1,19.7,0,29.5,0,3.1-1.2,4-4.2,4-7.8-.1-15.7-.2-23.5,0-3.6.1-4.6-1.4-4.5-4.7C429.8,632.9,429.6,628.2,429.6,623.6Z"
       class="cls-1" />
    <path
       id="path188"
       transform="translate(0 0)"
       d="M461.7,517c0,5.2-.1,10.3,0,15.5.1,2.6-.9,3.6-3.5,3.6-8.3-.1-16.6-.1-25,0-2.9,0-3.7-1.2-3.7-3.9.1-10,.1-20,0-29.9,0-2.7.8-4,3.7-3.9,8.1.1,16.3.1,24.5,0,3.2-.1,4,1.5,3.9,4.3C461.6,507.3,461.7,512.2,461.7,517Z"
       class="cls-1" />
    <path
       id="path190"
       transform="translate(0 0)"
       d="M337.9,623.2c0-4.8.1-9.7,0-14.5-.1-2.9.8-4.2,4-4.2q12,.15,24,0c3,0,4.2,1,4.1,4.1-.1,9.8-.1,19.6,0,29.5,0,2.9-.9,4.2-4,4.2q-12-.15-24,0c-3,.1-4.2-1-4.1-4.1C338,633.2,337.9,628.2,337.9,623.2Z"
       class="cls-1" />
    <path
       id="path192"
       transform="translate(0 0)"
       d="M553.6,535.7H521.7c0-11.8-.1-23.2.1-34.6,0-.9,2-2.6,3.1-2.6q12.75-.3,25.5,0c1.1,0,3.1,2,3.1,3.2C553.7,512.8,553.6,523.9,553.6,535.7Z"
       class="cls-1" />
    <path
       id="path194"
       transform="translate(0 0)"
       d="M108.7,498.3c9.6,0,18.9-.1,28.2.1,1.1,0,3,2.1,3.1,3.2.2,11.1.1,22.2.1,33.8H108.7Z"
       class="cls-1" />
    <path
       id="path196"
       transform="translate(0 0)"
       d="M415.7,535.7H383.9c0-11.8-.1-23.4.1-35,0-.8,1.9-2.3,2.9-2.3,8.5-.2,17-.2,25.4,0,1.1,0,3.1,1.7,3.1,2.6C415.7,512.4,415.7,523.9,415.7,535.7Z"
       class="cls-1" />
    <path
       id="path198"
       transform="translate(0 0)"
       d="M613.9,498.3c9.8,0,19.1-.1,28.4.1,1.1,0,3,2.1,3.1,3.2.2,11.1.1,22.3.1,33.9H613.9Z"
       class="cls-1" />
    <path
       id="path200"
       transform="translate(0 0)"
       d="M599.6,536c-10.2,0-19.6.1-29.1-.1-1,0-2.8-1.9-2.8-2.9q-.3-15.75,0-31.5c0-1.1,2.1-3,3.3-3,8.5-.3,17-.2,25.5,0,1.1,0,3,1.8,3,2.8C599.7,512.5,599.6,523.8,599.6,536Z"
       class="cls-1" />
    <path
       id="path202"
       transform="translate(0 0)"
       d="M277.8,535.9c-10,0-19.6.1-29.3-.1-.9,0-2.5-2-2.5-3.1-.2-10.3-.2-20.7,0-31,0-1.1,1.9-3.2,3-3.2q12.75-.45,25.5,0c1.1,0,3.1,1.7,3.1,2.6C277.9,512.4,277.8,523.9,277.8,535.9Z"
       class="cls-1" />
    <path
       id="path204"
       transform="translate(0 0)"
       d="M691.1,642.2c-10.1,0-19.6.1-29-.1-.9,0-2.5-1.8-2.5-2.8q-.3-15.75,0-31.5c0-1.1,2.1-3,3.3-3,8.3-.3,16.7-.2,25,0,1.1,0,3.1,1.3,3.1,2.1C691.2,618.4,691.1,630.1,691.1,642.2Z"
       class="cls-1" />
    <path
       id="path206"
       transform="translate(0 0)"
       d="M659.5,551.7h31.8V560c0,8.3-.1,16.6,0,24.9.1,3.2-1,4.4-4.3,4.3-7.8-.2-15.6-.1-23.4,0-2.5,0-4.1-.4-4.1-3.5Z"
       class="cls-1" />
    <path
       id="path208"
       transform="translate(0 0)"
       d="M691.2,671.2c0,4.8-.1,9.6,0,14.5.1,2.6-.7,4-3.6,3.9-8.1-.1-16.3-.1-24.4,0-2.8,0-3.8-1.1-3.7-3.9.1-10,.1-20,0-29.9,0-2.7.9-4,3.7-3.9,8.1.1,16.3.1,24.4,0,3,0,3.7,1.3,3.7,3.9C691.2,660.9,691.2,666.1,691.2,671.2Z"
       class="cls-1" />
    <path
       id="path210"
       transform="translate(0 0)"
       d="M691.2,535.6H659.5c0-11.8-.1-23.3.1-34.7,0-.9,2.1-2.5,3.3-2.5,8.3-.2,16.6-.2,25,0,1.1,0,3.1,1.7,3.1,2.6C691.3,512.4,691.2,523.9,691.2,535.6Z"
       class="cls-1" />
  </g>
  <g
     id="g226">
    <path
       id="path214"
       transform="translate(0 0)"
       d="M2672,428.3a4.314,4.314,0,0,0-3.2-1.4H2505.7a4.439,4.439,0,0,0-4.4,4.4V727.1a4.439,4.439,0,0,0,4.4,4.4h215.7a4.439,4.439,0,0,0,4.4-4.4V485.6a4.767,4.767,0,0,0-1.2-3.1Zm1.2,14.1,40.1,41.3h-40.1Zm-163-6.6h154.2v50.4c0,.3.2.6.2.9s-.2.6-.2.9a4.439,4.439,0,0,0,4.4,4.4H2717V722.7H2510.2V435.8Z"
       class="cls-2" />
    <path
       id="path216"
       transform="translate(0 0)"
       d="M2682.3,532.6H2542.4a3.4,3.4,0,0,1,0-6.8h139.8a3.436,3.436,0,0,1,3.4,3.4A3.488,3.488,0,0,1,2682.3,532.6Z"
       class="cls-2" />
    <path
       id="path218"
       transform="translate(0 0)"
       d="M2653.8,566.9H2542.3a3.436,3.436,0,0,1-3.4-3.4,3.372,3.372,0,0,1,3.4-3.4h111.3a3.436,3.436,0,0,1,3.4,3.4A3.21,3.21,0,0,1,2653.8,566.9Z"
       class="cls-2" />
    <path
       id="path220"
       transform="translate(0 0)"
       d="M2682.3,601.3H2542.4a3.436,3.436,0,0,1-3.4-3.4,3.372,3.372,0,0,1,3.4-3.4h139.8a3.436,3.436,0,0,1,3.4,3.4A3.351,3.351,0,0,1,2682.3,601.3Z"
       class="cls-2" />
    <path
       id="path222"
       transform="translate(0 0)"
       d="M2653.8,635.7H2542.3a3.436,3.436,0,0,1-3.4-3.4,3.372,3.372,0,0,1,3.4-3.4h111.3a3.436,3.436,0,0,1,3.4,3.4A3.27,3.27,0,0,1,2653.8,635.7Z"
       class="cls-2" />
    <path
       id="path224"
       transform="translate(0 0)"
       d="M2682.3,670.2H2542.4a3.4,3.4,0,0,1,0-6.8h139.8a3.4,3.4,0,0,1,.1,6.8Z"
       class="cls-2" />
  </g>
</svg>
