<?xml version="1.0" encoding="UTF-8" standalone="no"?>
<svg
   xmlns:dc="http://purl.org/dc/elements/1.1/"
   xmlns:cc="http://creativecommons.org/ns#"
   xmlns:rdf="http://www.w3.org/1999/02/22-rdf-syntax-ns#"
   xmlns:svg="http://www.w3.org/2000/svg"
   xmlns="http://www.w3.org/2000/svg"
   xmlns:sodipodi="http://sodipodi.sourceforge.net/DTD/sodipodi-0.dtd"
   xmlns:inkscape="http://www.inkscape.org/namespaces/inkscape"
   inkscape:version="1.0 (4035a4f, 2020-05-01)"
   sodipodi:docname="process-states.svg"
   version="1.1"
   viewBox="0 0 595.276 353.319"
   height="353.319"
   width="595.276"
   data-name="Layer 1"
   id="b8c518a5-9109-42fa-add5-739d054e902e">
  <metadata
     id="metadata587">
    <rdf:RDF>
      <cc:Work
         rdf:about="">
        <dc:format>image/svg+xml</dc:format>
        <dc:type
           rdf:resource="http://purl.org/dc/dcmitype/StillImage" />
        <dc:title></dc:title>
        <dc:subject>
          <rdf:Bag>
            <rdf:li>system processes</rdf:li>
            <rdf:li>processes states</rdf:li>
            <rdf:li>process fork</rdf:li>
            <rdf:li>process zombie</rdf:li>
          </rdf:Bag>
        </dc:subject>
      </cc:Work>
    </rdf:RDF>
  </metadata>
  <sodipodi:namedview
     inkscape:current-layer="b8c518a5-9109-42fa-add5-739d054e902e"
     inkscape:window-maximized="0"
     inkscape:window-y="190"
     inkscape:window-x="218"
     inkscape:cy="177.00042"
     inkscape:cx="298.84536"
     inkscape:zoom="1.7530292"
     showgrid="false"
     id="namedview585"
     inkscape:window-height="480"
     inkscape:window-width="739"
     inkscape:pageshadow="2"
     inkscape:pageopacity="0"
     guidetolerance="10"
     gridtolerance="10"
     objecttolerance="10"
     borderopacity="1"
     bordercolor="#666666"
     pagecolor="#ffffff" />
  <defs
     id="defs12">
    <style
       id="style10">
      .f532dd3e-9107-41cb-9d7f-92f74a16e93f {
        fill: #e6e6e6;
      }

      .e656613d-52d6-4687-9e3b-ca915b8b0ff0 {
        fill: none;
        stroke: #000;
        stroke-miterlimit: 10;
      }

      .ba09c724-e517-41d0-9c43-41a4bf84afaf {
        fill: #be0000;
      }

      .bec9fab3-29d2-4e16-b44f-82b9f9964390 {
        fill: #fff;
      }
    </style>
  </defs>
  <rect
     id="rect14"
     height="56.842"
     width="88.421"
     y="149.392"
     x="21.105"
     class="f532dd3e-9107-41cb-9d7f-92f74a16e93f" />
  <rect
     id="rect16"
     height="56.842"
     width="88.421"
     y="149.392"
     x="176.895"
     class="f532dd3e-9107-41cb-9d7f-92f74a16e93f" />
  <rect
     id="rect18"
     height="56.842"
     width="88.421"
     y="149.392"
     x="332.684"
     class="f532dd3e-9107-41cb-9d7f-92f74a16e93f" />
  <rect
     id="rect20"
     height="56.842"
     width="88.421"
     y="22.023"
     x="176.895"
     class="f532dd3e-9107-41cb-9d7f-92f74a16e93f" />
  <rect
     id="rect22"
     height="56.842"
     width="88.421"
     y="22.023"
     x="332.684"
     class="f532dd3e-9107-41cb-9d7f-92f74a16e93f" />
  <rect
     id="rect24"
     height="56.842"
     width="88.421"
     y="276.76"
     x="176.895"
     class="f532dd3e-9107-41cb-9d7f-92f74a16e93f" />
  <rect
     id="rect26"
     height="56.842"
     width="88.421"
     y="276.76"
     x="280.754"
     class="f532dd3e-9107-41cb-9d7f-92f74a16e93f" />
  <rect
     id="rect28"
     height="56.842"
     width="88.421"
     y="276.76"
     x="384.614"
     class="f532dd3e-9107-41cb-9d7f-92f74a16e93f" />
  <rect
     id="rect30"
     height="56.842"
     width="88.421"
     y="276.76"
     x="488.474"
     class="f532dd3e-9107-41cb-9d7f-92f74a16e93f" />
  <rect
     id="rect32"
     height="56.842"
     width="88.421"
     y="149.392"
     x="488.474"
     class="f532dd3e-9107-41cb-9d7f-92f74a16e93f" />
  <g
     id="g38">
    <line
       id="line34"
       y2="149.392"
       x2="211.632"
       y1="84.248"
       x1="211.632"
       class="e656613d-52d6-4687-9e3b-ca915b8b0ff0" />
    <polygon
       id="polygon36"
       points="207.892 85.342 211.632 78.865 215.371 85.342 207.892 85.342" />
  </g>
  <g
     id="g44">
    <line
       id="line40"
       y2="276.76"
       x2="211.632"
       y1="211.616"
       x1="211.632"
       class="e656613d-52d6-4687-9e3b-ca915b8b0ff0" />
    <polygon
       id="polygon42"
       points="207.892 212.71 211.632 206.234 215.371 212.71 207.892 212.71" />
  </g>
  <g
     id="g50">
    <line
       id="line46"
       y2="144.009"
       x2="230.579"
       y1="78.865"
       x1="230.579"
       class="e656613d-52d6-4687-9e3b-ca915b8b0ff0" />
    <polygon
       id="polygon48"
       points="226.839 142.915 230.579 149.392 234.319 142.915 226.839 142.915" />
  </g>
  <g
     id="g66">
    <path
       id="path52"
       d="M201.806,60.582a3.5,3.5,0,0,0,2.348,1.02c.929,0,1.569-.47,1.569-1.11,0-.569-.339-.829-1.269-1l-1.289-.22c-1.209-.22-1.8-.819-1.8-1.779,0-1.259,1.009-2.1,2.578-2.1a4.672,4.672,0,0,1,2.809.91l-.61.9A3.633,3.633,0,0,0,203.9,56.4c-.839,0-1.389.419-1.389.989,0,.5.31.76,1.08.88l1.239.219c1.409.24,2.069.86,2.069,1.919,0,1.28-1.14,2.189-2.809,2.189a4.408,4.408,0,0,1-2.938-1.129Z" />
    <path
       id="path54"
       d="M208.455,58.383h-1.009v-.9h1.009V56.1l1.129-.239v1.619h1.4v.9h-1.4v2.539c0,.49.19.68.7.68a2.076,2.076,0,0,0,.68-.12v.949a3.554,3.554,0,0,1-.97.14c-1.009,0-1.539-.48-1.539-1.4Z" />
    <path
       id="path56"
       d="M214.194,57.4a2.595,2.595,0,1,1-2.518,2.589A2.5,2.5,0,0,1,214.194,57.4Zm1.4,2.6a1.416,1.416,0,1,0-2.8,0,1.413,1.413,0,1,0,2.8,0Z" />
    <path
       id="path58"
       d="M217.886,57.484H219v.72a1.887,1.887,0,0,1,1.559-.76,2.4,2.4,0,0,1,2.269,2.549,2.427,2.427,0,0,1-2.349,2.548,1.871,1.871,0,0,1-1.459-.649V64.61h-1.129Zm1.129,1.469v2.089a1.535,1.535,0,0,0,1.2.55,1.6,1.6,0,0,0,0-3.2A1.469,1.469,0,0,0,219.015,58.953Z" />
    <path
       id="path60"
       d="M224,57.484h1.109v.72a1.886,1.886,0,0,1,1.559-.76,2.561,2.561,0,0,1-.08,5.1,1.871,1.871,0,0,1-1.459-.649V64.61H224Zm1.129,1.469v2.089a1.535,1.535,0,0,0,1.2.55,1.6,1.6,0,0,0,0-3.2A1.469,1.469,0,0,0,225.125,58.953Z" />
    <path
       id="path62"
       d="M232.454,62.591a2.545,2.545,0,0,1-2.549-2.6,2.466,2.466,0,0,1,2.439-2.589,2.4,2.4,0,0,1,2.368,2.578v.28h-3.7a1.529,1.529,0,0,0,1.5,1.37,1.627,1.627,0,0,0,1.189-.47l.74.69A2.9,2.9,0,0,1,232.454,62.591Zm-1.419-3.018h2.608a1.37,1.37,0,0,0-1.309-1.249A1.345,1.345,0,0,0,231.035,59.573Z" />
    <path
       id="path64"
       d="M239.473,61.822a1.93,1.93,0,0,1-1.539.719,2.562,2.562,0,0,1,.07-5.1,1.911,1.911,0,0,1,1.459.66V55.345l1.129-.19v7.336h-1.119Zm-1.2-.23a1.5,1.5,0,0,0,1.19-.55V58.933a1.553,1.553,0,0,0-1.19-.539,1.6,1.6,0,0,0,0,3.2Z" />
  </g>
  <g
     id="g98">
    <path
       id="path68"
       d="M199.975,176.586h3.108a2.133,2.133,0,0,1,2.339,2.119,1.989,1.989,0,0,1-1.38,1.919l1.47,2.959h-1.329l-1.35-2.8h-1.659v2.8h-1.2Zm1.2,1.01v2.229h1.809a1.12,1.12,0,1,0,0-2.229Z" />
    <path
       id="path70"
       d="M207.554,181.554a1.079,1.079,0,0,0,1.1,1.2,1.263,1.263,0,0,0,1.1-.62v-3.558h1.129v5.008h-1.129v-.83a1.83,1.83,0,0,1-1.6.91,1.68,1.68,0,0,1-1.729-1.789v-3.3h1.129Z" />
    <path
       id="path72"
       d="M212.275,178.575H213.4v.82a1.818,1.818,0,0,1,1.589-.9,1.685,1.685,0,0,1,1.729,1.789v3.3h-1.129V180.6a1.078,1.078,0,0,0-1.1-1.2,1.286,1.286,0,0,0-1.09.6v3.579h-1.129Z" />
    <path
       id="path74"
       d="M218.1,178.575h1.129v.82a1.818,1.818,0,0,1,1.589-.9,1.685,1.685,0,0,1,1.729,1.789v3.3h-1.129V180.6a1.079,1.079,0,0,0-1.1-1.2,1.285,1.285,0,0,0-1.089.6v3.579H218.1Z" />
    <path
       id="path76"
       d="M223.665,182.143c0-.9.729-1.469,1.909-1.469a3.1,3.1,0,0,1,1.349.31v-.55c0-.66-.38-1-1.15-1a3.466,3.466,0,0,0-1.459.39l-.4-.82a4.8,4.8,0,0,1,2.078-.51c1.3,0,2.049.66,2.049,1.819v3.269h-1.119v-.51a2.1,2.1,0,0,1-1.489.59A1.579,1.579,0,0,1,223.665,182.143Zm2.079.73a1.786,1.786,0,0,0,1.179-.41v-.819a2.591,2.591,0,0,0-1.159-.24c-.64,0-1.04.28-1.04.72C224.724,182.583,225.124,182.873,225.744,182.873Z" />
    <path
       id="path78"
       d="M232,183.632a1.862,1.862,0,0,1-1.479-.7v.65h-1.109v-7.146l1.129-.19v3a1.948,1.948,0,0,1,1.539-.71,2.561,2.561,0,0,1-.08,5.1Zm-1.459-3.588v2.089a1.534,1.534,0,0,0,1.2.55,1.6,1.6,0,0,0,0-3.2A1.472,1.472,0,0,0,230.544,180.044Z" />
    <path
       id="path80"
       d="M236.654,183.583h-1.13v-7.146l1.13-.19Z" />
    <path
       id="path82"
       d="M240.363,183.683a2.546,2.546,0,0,1-2.549-2.6,2.467,2.467,0,0,1,2.439-2.589,2.4,2.4,0,0,1,2.369,2.579v.28h-3.7a1.529,1.529,0,0,0,1.5,1.369,1.624,1.624,0,0,0,1.189-.47l.74.69A2.9,2.9,0,0,1,240.363,183.683Zm-1.419-3.019h2.608a1.37,1.37,0,0,0-1.309-1.249A1.345,1.345,0,0,0,238.944,180.664Z" />
    <path
       id="path84"
       d="M206.9,188.477l.6.719a4.878,4.878,0,0,0,0,7.876l-.6.729a5.7,5.7,0,0,1,0-9.324Z" />
    <path
       id="path86"
       d="M208.63,190.575h1.129v1.09a1.486,1.486,0,0,1,1.379-1.18,1.339,1.339,0,0,1,.49.1v.99a1.593,1.593,0,0,0-.62-.12,1.373,1.373,0,0,0-1.249.83v3.3H208.63Z" />
    <path
       id="path88"
       d="M214.639,195.682a2.546,2.546,0,0,1-2.549-2.6,2.467,2.467,0,0,1,2.439-2.588,2.4,2.4,0,0,1,2.368,2.579v.28h-3.7a1.529,1.529,0,0,0,1.5,1.369,1.627,1.627,0,0,0,1.189-.47l.74.69A2.9,2.9,0,0,1,214.639,195.682Zm-1.419-3.017h2.608a1.37,1.37,0,0,0-1.309-1.25A1.346,1.346,0,0,0,213.22,192.665Z" />
    <path
       id="path90"
       d="M217.76,194.143c0-.9.73-1.469,1.909-1.469a3.1,3.1,0,0,1,1.35.31v-.55c0-.659-.38-1-1.15-1a3.462,3.462,0,0,0-1.459.39l-.4-.82a4.806,4.806,0,0,1,2.079-.51c1.3,0,2.049.66,2.049,1.819v3.269h-1.119v-.51a2.092,2.092,0,0,1-1.49.59A1.58,1.58,0,0,1,217.76,194.143Zm2.079.73a1.787,1.787,0,0,0,1.18-.41v-.819a2.593,2.593,0,0,0-1.16-.24c-.639,0-1.039.279-1.039.72C218.82,194.583,219.22,194.873,219.839,194.873Z" />
    <path
       id="path92"
       d="M227.088,194.913a1.925,1.925,0,0,1-1.539.719,2.562,2.562,0,0,1,.07-5.1,1.91,1.91,0,0,1,1.459.66v-2.758l1.13-.19v7.336h-1.12Zm-1.2-.23a1.5,1.5,0,0,0,1.189-.55v-2.108a1.552,1.552,0,0,0-1.189-.54,1.6,1.6,0,0,0,0,3.2Z" />
    <path
       id="path94"
       d="M230.889,195.613,229,190.575h1.259l1.27,3.718,1.4-3.718h1.229l-2.378,5.827A1.692,1.692,0,0,1,230,197.721a2.391,2.391,0,0,1-.57-.069v-.97a4.416,4.416,0,0,0,.44.04.8.8,0,0,0,.809-.58Z" />
    <path
       id="path96"
       d="M235.31,197.8l-.6-.719a4.878,4.878,0,0,0,0-7.876l.6-.729a5.7,5.7,0,0,1,0,9.324Z" />
  </g>
  <g
     id="g116">
    <path
       id="path100"
       d="M201.535,311.579a3.5,3.5,0,0,0,2.348,1.02c.929,0,1.569-.47,1.569-1.11,0-.569-.339-.829-1.269-1l-1.289-.22c-1.209-.22-1.8-.819-1.8-1.779,0-1.259,1.009-2.1,2.578-2.1a4.672,4.672,0,0,1,2.809.91l-.61.9a3.633,3.633,0,0,0-2.239-.809c-.839,0-1.389.42-1.389.989,0,.5.31.76,1.08.88l1.239.219c1.409.24,2.069.86,2.069,1.919,0,1.28-1.14,2.189-2.809,2.189a4.408,4.408,0,0,1-2.938-1.129Z" />
    <path
       id="path102"
       d="M208.844,313.488h-1.129v-7.146l1.129-.19Z" />
    <path
       id="path104"
       d="M212.554,313.588a2.545,2.545,0,0,1-2.549-2.6,2.466,2.466,0,0,1,2.438-2.589,2.4,2.4,0,0,1,2.369,2.578v.28h-3.7a1.53,1.53,0,0,0,1.5,1.37,1.628,1.628,0,0,0,1.19-.47l.739.69A2.9,2.9,0,0,1,212.554,313.588Zm-1.42-3.018h2.609a1.37,1.37,0,0,0-1.309-1.249A1.346,1.346,0,0,0,211.134,310.57Z" />
    <path
       id="path106"
       d="M218.313,313.588a2.545,2.545,0,0,1-2.548-2.6A2.466,2.466,0,0,1,218.2,308.4a2.4,2.4,0,0,1,2.369,2.578v.28h-3.7a1.53,1.53,0,0,0,1.5,1.37,1.624,1.624,0,0,0,1.189-.47l.74.69A2.9,2.9,0,0,1,218.313,313.588Zm-1.419-3.018H219.5a1.369,1.369,0,0,0-1.309-1.249A1.345,1.345,0,0,0,216.894,310.57Z" />
    <path
       id="path108"
       d="M221.725,308.481h1.109v.72a1.886,1.886,0,0,1,1.559-.76,2.561,2.561,0,0,1-.08,5.1,1.871,1.871,0,0,1-1.459-.649v2.718h-1.129Zm1.129,1.469v2.089a1.535,1.535,0,0,0,1.2.55,1.6,1.6,0,0,0,0-3.2A1.472,1.472,0,0,0,222.854,309.95Z" />
    <path
       id="path110"
       d="M227.694,306.772a.705.705,0,0,1,1.41,0,.705.705,0,0,1-1.41,0Zm1.27,6.716h-1.13v-5.007h1.13Z" />
    <path
       id="path112"
       d="M230.354,308.481h1.13v.82a1.817,1.817,0,0,1,1.589-.9,1.685,1.685,0,0,1,1.729,1.789v3.3h-1.13V310.51a1.077,1.077,0,0,0-1.1-1.2,1.284,1.284,0,0,0-1.089.6v3.578h-1.13Z" />
    <path
       id="path114"
       d="M235.944,310.979a2.417,2.417,0,0,1,2.339-2.538,1.883,1.883,0,0,1,1.469.68v-.64h1.12v5.177c0,1.289-.84,2-2.359,2a4.348,4.348,0,0,1-2.009-.48l.4-.839a3.416,3.416,0,0,0,1.559.43c.84,0,1.279-.38,1.279-1.11v-.849a1.94,1.94,0,0,1-1.529.709A2.4,2.4,0,0,1,235.944,310.979Zm2.609,1.6a1.5,1.5,0,0,0,1.189-.55v-2.1a1.551,1.551,0,0,0-1.189-.539,1.493,1.493,0,0,0-1.489,1.588A1.515,1.515,0,0,0,238.553,312.579Z" />
  </g>
  <g
     id="g134">
    <path
       id="path118"
       d="M303.333,311.579a3.5,3.5,0,0,0,2.349,1.02c.929,0,1.569-.47,1.569-1.11,0-.569-.34-.829-1.27-1l-1.289-.22c-1.209-.22-1.8-.819-1.8-1.779,0-1.259,1.008-2.1,2.578-2.1a4.671,4.671,0,0,1,2.808.91l-.609.9a3.633,3.633,0,0,0-2.239-.809c-.839,0-1.389.42-1.389.989,0,.5.31.76,1.079.88l1.239.219c1.41.24,2.07.86,2.07,1.919,0,1.28-1.14,2.189-2.809,2.189a4.406,4.406,0,0,1-2.938-1.129Z" />
    <path
       id="path120"
       d="M310.643,313.488h-1.129v-7.146l1.129-.19Z" />
    <path
       id="path122"
       d="M314.353,313.588a2.545,2.545,0,0,1-2.549-2.6,2.466,2.466,0,0,1,2.438-2.589,2.4,2.4,0,0,1,2.369,2.578v.28h-3.7a1.529,1.529,0,0,0,1.5,1.37,1.629,1.629,0,0,0,1.19-.47l.739.69A2.9,2.9,0,0,1,314.353,313.588Zm-1.42-3.018h2.608a1.37,1.37,0,0,0-1.309-1.249A1.344,1.344,0,0,0,312.933,310.57Z" />
    <path
       id="path124"
       d="M320.112,313.588a2.545,2.545,0,0,1-2.549-2.6A2.466,2.466,0,0,1,320,308.4a2.4,2.4,0,0,1,2.369,2.578v.28h-3.7a1.528,1.528,0,0,0,1.5,1.37,1.625,1.625,0,0,0,1.189-.47l.74.69A2.9,2.9,0,0,1,320.112,313.588Zm-1.42-3.018H321.3a1.37,1.37,0,0,0-1.309-1.249A1.346,1.346,0,0,0,318.692,310.57Z" />
    <path
       id="path126"
       d="M323.523,308.481h1.11v.72a1.884,1.884,0,0,1,1.558-.76,2.561,2.561,0,0,1-.08,5.1,1.873,1.873,0,0,1-1.459-.649v2.718h-1.129Zm1.129,1.469v2.089a1.536,1.536,0,0,0,1.2.55,1.6,1.6,0,0,0,0-3.2A1.474,1.474,0,0,0,324.652,309.95Z" />
    <path
       id="path128"
       d="M329.493,306.772a.7.7,0,0,1,1.409,0,.7.7,0,0,1-1.409,0Zm1.27,6.716h-1.13v-5.007h1.13Z" />
    <path
       id="path130"
       d="M332.153,308.481h1.129v.82a1.818,1.818,0,0,1,1.589-.9,1.686,1.686,0,0,1,1.73,1.789v3.3h-1.13V310.51a1.078,1.078,0,0,0-1.1-1.2,1.286,1.286,0,0,0-1.09.6v3.578h-1.129Z" />
    <path
       id="path132"
       d="M337.743,310.979a2.416,2.416,0,0,1,2.339-2.538,1.885,1.885,0,0,1,1.469.68v-.64h1.119v5.177c0,1.289-.839,2-2.358,2a4.348,4.348,0,0,1-2.009-.48l.4-.839a3.423,3.423,0,0,0,1.56.43c.84,0,1.279-.38,1.279-1.11v-.849a1.942,1.942,0,0,1-1.529.709A2.4,2.4,0,0,1,337.743,310.979Zm2.609,1.6a1.5,1.5,0,0,0,1.189-.55v-2.1a1.553,1.553,0,0,0-1.189-.539,1.493,1.493,0,0,0-1.49,1.588A1.515,1.515,0,0,0,340.352,312.579Z" />
  </g>
  <g
     id="g152">
    <path
       id="path136"
       d="M409.255,311.579a3.5,3.5,0,0,0,2.349,1.02c.928,0,1.568-.47,1.568-1.11,0-.569-.339-.829-1.269-1l-1.29-.22c-1.209-.22-1.8-.819-1.8-1.779,0-1.259,1.01-2.1,2.58-2.1a4.673,4.673,0,0,1,2.808.91l-.61.9a3.631,3.631,0,0,0-2.238-.809c-.84,0-1.39.42-1.39.989,0,.5.31.76,1.08.88l1.239.219c1.409.24,2.069.86,2.069,1.919,0,1.28-1.14,2.189-2.809,2.189a4.41,4.41,0,0,1-2.939-1.129Z" />
    <path
       id="path138"
       d="M416.564,313.488h-1.129v-7.146l1.129-.19Z" />
    <path
       id="path140"
       d="M420.273,313.588a2.545,2.545,0,0,1-2.548-2.6,2.466,2.466,0,0,1,2.438-2.589,2.4,2.4,0,0,1,2.369,2.578v.28h-3.7a1.529,1.529,0,0,0,1.5,1.37,1.624,1.624,0,0,0,1.189-.47l.741.69A2.9,2.9,0,0,1,420.273,313.588Zm-1.419-3.018h2.609a1.37,1.37,0,0,0-1.31-1.249A1.345,1.345,0,0,0,418.854,310.57Z" />
    <path
       id="path142"
       d="M426.033,313.588a2.545,2.545,0,0,1-2.549-2.6,2.467,2.467,0,0,1,2.439-2.589,2.4,2.4,0,0,1,2.369,2.578v.28h-3.7a1.529,1.529,0,0,0,1.5,1.37,1.625,1.625,0,0,0,1.189-.47l.74.69A2.9,2.9,0,0,1,426.033,313.588Zm-1.419-3.018h2.609a1.37,1.37,0,0,0-1.31-1.249A1.345,1.345,0,0,0,424.614,310.57Z" />
    <path
       id="path144"
       d="M429.444,308.481h1.11v.72a1.884,1.884,0,0,1,1.559-.76,2.561,2.561,0,0,1-.08,5.1,1.87,1.87,0,0,1-1.459-.649v2.718h-1.13Zm1.13,1.469v2.089a1.534,1.534,0,0,0,1.2.55,1.6,1.6,0,0,0,0-3.2A1.471,1.471,0,0,0,430.574,309.95Z" />
    <path
       id="path146"
       d="M435.414,306.772a.7.7,0,0,1,1.409,0,.7.7,0,0,1-1.409,0Zm1.27,6.716h-1.129v-5.007h1.129Z" />
    <path
       id="path148"
       d="M438.074,308.481h1.13v.82a1.817,1.817,0,0,1,1.589-.9,1.685,1.685,0,0,1,1.728,1.789v3.3h-1.128V310.51a1.078,1.078,0,0,0-1.1-1.2,1.285,1.285,0,0,0-1.089.6v3.578h-1.13Z" />
    <path
       id="path150"
       d="M443.664,310.979A2.416,2.416,0,0,1,446,308.441a1.885,1.885,0,0,1,1.47.68v-.64h1.119v5.177c0,1.289-.84,2-2.36,2a4.347,4.347,0,0,1-2.008-.48l.4-.839a3.419,3.419,0,0,0,1.559.43c.839,0,1.279-.38,1.279-1.11v-.849a1.942,1.942,0,0,1-1.529.709A2.4,2.4,0,0,1,443.664,310.979Zm2.608,1.6a1.5,1.5,0,0,0,1.19-.55v-2.1a1.552,1.552,0,0,0-1.19-.539,1.492,1.492,0,0,0-1.488,1.588A1.514,1.514,0,0,0,446.272,312.579Z" />
  </g>
  <g
     id="g170">
    <path
       id="path154"
       d="M513.114,311.579a3.5,3.5,0,0,0,2.349,1.02c.929,0,1.568-.47,1.568-1.11,0-.569-.339-.829-1.268-1l-1.29-.22c-1.209-.22-1.8-.819-1.8-1.779,0-1.259,1.01-2.1,2.579-2.1a4.674,4.674,0,0,1,2.809.91l-.611.9a3.631,3.631,0,0,0-2.238-.809c-.84,0-1.39.42-1.39.989,0,.5.311.76,1.08.88l1.24.219c1.409.24,2.068.86,2.068,1.919,0,1.28-1.14,2.189-2.809,2.189a4.41,4.41,0,0,1-2.938-1.129Z" />
    <path
       id="path156"
       d="M520.424,313.488h-1.13v-7.146l1.13-.19Z" />
    <path
       id="path158"
       d="M524.133,313.588a2.545,2.545,0,0,1-2.549-2.6,2.467,2.467,0,0,1,2.438-2.589,2.4,2.4,0,0,1,2.37,2.578v.28h-3.7a1.531,1.531,0,0,0,1.5,1.37,1.626,1.626,0,0,0,1.19-.47l.74.69A2.9,2.9,0,0,1,524.133,313.588Zm-1.419-3.018h2.608a1.37,1.37,0,0,0-1.309-1.249A1.345,1.345,0,0,0,522.714,310.57Z" />
    <path
       id="path160"
       d="M529.893,313.588a2.545,2.545,0,0,1-2.549-2.6,2.467,2.467,0,0,1,2.438-2.589,2.4,2.4,0,0,1,2.369,2.578v.28h-3.7a1.53,1.53,0,0,0,1.5,1.37,1.628,1.628,0,0,0,1.19-.47l.74.69A2.9,2.9,0,0,1,529.893,313.588Zm-1.419-3.018h2.608a1.37,1.37,0,0,0-1.31-1.249A1.345,1.345,0,0,0,528.474,310.57Z" />
    <path
       id="path162"
       d="M533.3,308.481h1.109v.72a1.886,1.886,0,0,1,1.56-.76,2.561,2.561,0,0,1-.08,5.1,1.869,1.869,0,0,1-1.459-.649v2.718H533.3Zm1.13,1.469v2.089a1.532,1.532,0,0,0,1.2.55,1.6,1.6,0,0,0,0-3.2A1.469,1.469,0,0,0,534.434,309.95Z" />
    <path
       id="path164"
       d="M539.273,306.772a.705.705,0,0,1,1.41,0,.705.705,0,0,1-1.41,0Zm1.27,6.716h-1.129v-5.007h1.129Z" />
    <path
       id="path166"
       d="M541.934,308.481h1.129v.82a1.817,1.817,0,0,1,1.589-.9,1.685,1.685,0,0,1,1.729,1.789v3.3h-1.129V310.51a1.078,1.078,0,0,0-1.1-1.2,1.285,1.285,0,0,0-1.089.6v3.578h-1.129Z" />
    <path
       id="path168"
       d="M547.523,310.979a2.417,2.417,0,0,1,2.339-2.538,1.885,1.885,0,0,1,1.47.68v-.64h1.119v5.177c0,1.289-.84,2-2.359,2a4.351,4.351,0,0,1-2.009-.48l.4-.839a3.419,3.419,0,0,0,1.559.43c.84,0,1.279-.38,1.279-1.11v-.849a1.94,1.94,0,0,1-1.529.709A2.4,2.4,0,0,1,547.523,310.979Zm2.609,1.6a1.5,1.5,0,0,0,1.189-.55v-2.1a1.55,1.55,0,0,0-1.189-.539,1.492,1.492,0,0,0-1.488,1.588A1.514,1.514,0,0,0,550.132,312.579Z" />
  </g>
  <g
     id="g182">
    <path
       id="path172"
       d="M54.875,173.477l.6.719a4.878,4.878,0,0,0,0,7.876l-.6.73a5.7,5.7,0,0,1,0-9.325Z" />
    <path
       id="path174"
       d="M56.605,175.576h1.13v.82a1.817,1.817,0,0,1,1.589-.9,1.685,1.685,0,0,1,1.729,1.789v3.3h-1.13V177.6a1.078,1.078,0,0,0-1.1-1.2,1.283,1.283,0,0,0-1.089.6v3.578h-1.13Z" />
    <path
       id="path176"
       d="M64.744,180.683a2.546,2.546,0,0,1-2.549-2.6,2.466,2.466,0,0,1,2.439-2.588A2.4,2.4,0,0,1,67,178.074v.28h-3.7a1.529,1.529,0,0,0,1.5,1.37,1.627,1.627,0,0,0,1.189-.47l.74.689A2.9,2.9,0,0,1,64.744,180.683Zm-1.419-3.018h2.608a1.37,1.37,0,0,0-1.309-1.249A1.345,1.345,0,0,0,63.325,177.665Z" />
    <path
       id="path178"
       d="M68.935,180.583l-1.349-5.007h1.079l.88,3.538,1.029-3.538h.96l1.029,3.548.87-3.548h1.059l-1.349,5.007h-1.09l-1.009-3.528-1.009,3.528Z" />
    <path
       id="path180"
       d="M75.755,182.8l-.6-.72a4.877,4.877,0,0,0,0-7.875l.6-.73a5.7,5.7,0,0,1,0,9.325Z" />
  </g>
  <g
     id="g214">
    <path
       id="path184"
       d="M358.479,176.586h3.109a2.133,2.133,0,0,1,2.339,2.119,1.989,1.989,0,0,1-1.38,1.919l1.47,2.959h-1.329l-1.35-2.8h-1.659v2.8h-1.2Zm1.2,1.01v2.229h1.808a1.12,1.12,0,1,0,0-2.229Z" />
    <path
       id="path186"
       d="M366.059,181.554a1.078,1.078,0,0,0,1.1,1.2,1.264,1.264,0,0,0,1.1-.62v-3.558h1.129v5.008h-1.129v-.83a1.831,1.831,0,0,1-1.6.91,1.68,1.68,0,0,1-1.729-1.789v-3.3h1.129Z" />
    <path
       id="path188"
       d="M370.779,178.575h1.13v.82a1.817,1.817,0,0,1,1.589-.9,1.685,1.685,0,0,1,1.729,1.789v3.3H374.1V180.6a1.079,1.079,0,0,0-1.1-1.2,1.285,1.285,0,0,0-1.089.6v3.579h-1.13Z" />
    <path
       id="path190"
       d="M376.6,178.575h1.129v.82a1.815,1.815,0,0,1,1.588-.9,1.686,1.686,0,0,1,1.73,1.789v3.3h-1.13V180.6a1.078,1.078,0,0,0-1.1-1.2,1.283,1.283,0,0,0-1.089.6v3.579H376.6Z" />
    <path
       id="path192"
       d="M382.279,176.866a.7.7,0,0,1,1.409,0,.7.7,0,0,1-1.409,0Zm1.27,6.717h-1.13v-5.008h1.13Z" />
    <path
       id="path194"
       d="M384.939,178.575h1.129v.82a1.818,1.818,0,0,1,1.589-.9,1.686,1.686,0,0,1,1.73,1.789v3.3h-1.13V180.6a1.078,1.078,0,0,0-1.1-1.2,1.286,1.286,0,0,0-1.09.6v3.579h-1.129Z" />
    <path
       id="path196"
       d="M390.529,181.074a2.417,2.417,0,0,1,2.339-2.539,1.885,1.885,0,0,1,1.469.68v-.64h1.119v5.177c0,1.29-.839,2-2.358,2a4.335,4.335,0,0,1-2.009-.48l.4-.839a3.411,3.411,0,0,0,1.56.43c.84,0,1.279-.38,1.279-1.11V182.9a1.94,1.94,0,0,1-1.529.709A2.4,2.4,0,0,1,390.529,181.074Zm2.609,1.6a1.5,1.5,0,0,0,1.189-.549v-2.1a1.556,1.556,0,0,0-1.189-.539,1.494,1.494,0,0,0-1.49,1.589A1.515,1.515,0,0,0,393.138,182.673Z" />
    <path
       id="path198"
       d="M361.458,188.477l.6.719a4.878,4.878,0,0,0,0,7.876l-.6.729a5.7,5.7,0,0,1,0-9.324Z" />
    <path
       id="path200"
       d="M363.189,188.437l1.129-.19v4.467l2.079-2.139h1.29l-2.29,2.319,2.429,2.689h-1.449l-2.059-2.309v2.309h-1.129Z" />
    <path
       id="path202"
       d="M370.588,195.682a2.546,2.546,0,0,1-2.549-2.6,2.467,2.467,0,0,1,2.439-2.588,2.4,2.4,0,0,1,2.369,2.579v.28h-3.7a1.531,1.531,0,0,0,1.5,1.369,1.626,1.626,0,0,0,1.19-.47l.74.69A2.9,2.9,0,0,1,370.588,195.682Zm-1.419-3.017h2.608a1.37,1.37,0,0,0-1.309-1.25A1.346,1.346,0,0,0,369.169,192.665Z" />
    <path
       id="path204"
       d="M374,190.575h1.13v1.09a1.484,1.484,0,0,1,1.379-1.18,1.338,1.338,0,0,1,.489.1v.99a1.588,1.588,0,0,0-.619-.12,1.372,1.372,0,0,0-1.249.83v3.3H374Z" />
    <path
       id="path206"
       d="M377.93,190.575h1.129v.82a1.816,1.816,0,0,1,1.588-.9,1.686,1.686,0,0,1,1.73,1.79v3.3h-1.13V192.6a1.078,1.078,0,0,0-1.1-1.2,1.283,1.283,0,0,0-1.089.6v3.579H377.93Z" />
    <path
       id="path208"
       d="M386.068,195.682a2.545,2.545,0,0,1-2.548-2.6,2.465,2.465,0,0,1,2.438-2.588,2.4,2.4,0,0,1,2.369,2.579v.28h-3.7a1.528,1.528,0,0,0,1.5,1.369,1.625,1.625,0,0,0,1.189-.47l.74.69A2.894,2.894,0,0,1,386.068,195.682Zm-1.42-3.017h2.609a1.37,1.37,0,0,0-1.309-1.25A1.346,1.346,0,0,0,384.648,192.665Z" />
    <path
       id="path210"
       d="M390.608,195.583h-1.129v-7.146l1.129-.19Z" />
    <path
       id="path212"
       d="M392.329,197.8l-.6-.719a4.877,4.877,0,0,0,0-7.876l.6-.729a5.7,5.7,0,0,1,0,9.324Z" />
  </g>
  <g
     id="g228">
    <path
       id="path216"
       d="M515.454,188.783l3.929-5.207-3.9.03v-1.02H520.9v.8l-3.907,5.207,3.968-.03v1.02h-5.508Z" />
    <path
       id="path218"
       d="M524.133,184.5a2.6,2.6,0,1,1-2.519,2.589A2.5,2.5,0,0,1,524.133,184.5Zm1.4,2.6a1.415,1.415,0,1,0-2.8,0,1.413,1.413,0,1,0,2.8,0Z" />
    <path
       id="path220"
       d="M527.824,184.575h1.13v.8a1.706,1.706,0,0,1,1.489-.88,1.574,1.574,0,0,1,1.469.97,1.847,1.847,0,0,1,1.659-.97,1.659,1.659,0,0,1,1.639,1.819v3.269h-1.129v-3.029a1.013,1.013,0,0,0-1.01-1.149,1.191,1.191,0,0,0-1.009.59c.01.109.02.21.02.319v3.269h-1.129v-3.029a1.013,1.013,0,0,0-1.01-1.149,1.161,1.161,0,0,0-.989.57v3.608h-1.13Z" />
    <path
       id="path222"
       d="M539.173,189.632a1.864,1.864,0,0,1-1.48-.7v.65h-1.109v-7.146l1.13-.19v3a1.947,1.947,0,0,1,1.539-.71,2.561,2.561,0,0,1-.08,5.1Zm-1.459-3.588v2.089a1.534,1.534,0,0,0,1.2.55,1.6,1.6,0,0,0,0-3.2A1.471,1.471,0,0,0,537.714,186.044Z" />
    <path
       id="path224"
       d="M542.554,182.866a.7.7,0,0,1,1.409,0,.7.7,0,0,1-1.409,0Zm1.269,6.717h-1.129v-5.008h1.129Z" />
    <path
       id="path226"
       d="M547.533,189.683a2.546,2.546,0,0,1-2.549-2.6,2.466,2.466,0,0,1,2.439-2.589,2.4,2.4,0,0,1,2.369,2.579v.28h-3.7a1.528,1.528,0,0,0,1.5,1.369,1.627,1.627,0,0,0,1.189-.47l.739.69A2.892,2.892,0,0,1,547.533,189.683Zm-1.42-3.019h2.609a1.37,1.37,0,0,0-1.309-1.249A1.346,1.346,0,0,0,546.113,186.664Z" />
  </g>
  <g
     id="g244">
    <path
       id="path230"
       d="m 169.51,115.594 a 2.19,2.19 0 0 0 1.459,0.621 c 0.477,0 0.837,-0.27 0.837,-0.621 0,-0.235 -0.153,-0.379 -0.531,-0.478 l -0.766,-0.207 c -0.7,-0.189 -1.053,-0.585 -1.053,-1.17 0,-0.873 0.657,-1.423 1.692,-1.423 a 2.848,2.848 0 0 1 1.837,0.667 l -0.558,0.63 a 2.274,2.274 0 0 0 -1.342,-0.531 c -0.459,0 -0.737,0.207 -0.737,0.531 0,0.261 0.134,0.387 0.522,0.5 l 0.765,0.207 c 0.747,0.207 1.107,0.567 1.107,1.135 a 1.643,1.643 0 0 1 -1.791,1.545 2.876,2.876 0 0 1 -2,-0.756 z" />
    <path
       id="path232"
       d="m 174.721,115.008 c -0.153,0.684 0.162,1.144 0.783,1.144 a 1.33,1.33 0 0 0 1.009,-0.5 l 0.7,-3.268 h 1.008 l -0.981,4.51 h -1 l 0.144,-0.684 a 1.874,1.874 0 0 1 -1.449,0.738 1.273,1.273 0 0 1 -1.261,-1.71 l 0.612,-2.854 h 1 z" />
    <path
       id="path234"
       d="m 178.879,115.594 a 2.188,2.188 0 0 0 1.458,0.621 c 0.477,0 0.837,-0.27 0.837,-0.621 0,-0.235 -0.153,-0.379 -0.53,-0.478 l -0.766,-0.207 c -0.7,-0.189 -1.053,-0.585 -1.053,-1.17 0,-0.873 0.657,-1.423 1.692,-1.423 a 2.852,2.852 0 0 1 1.837,0.667 l -0.558,0.63 a 2.279,2.279 0 0 0 -1.342,-0.531 c -0.459,0 -0.738,0.207 -0.738,0.531 0,0.261 0.135,0.387 0.522,0.5 l 0.765,0.207 c 0.747,0.207 1.108,0.567 1.108,1.135 a 1.643,1.643 0 0 1 -1.792,1.545 2.875,2.875 0 0 1 -2,-0.756 z" />
    <path
       id="path236"
       d="m 183.694,112.389 h 0.991 l -0.1,0.477 a 1.732,1.732 0 0 1 1.225,-0.5 1.881,1.881 0 0 1 1.747,2.043 2.44,2.44 0 0 1 -2.3,2.548 1.534,1.534 0 0 1 -1.377,-0.738 l -0.559,2.593 h -1 z m 0.747,1.206 -0.414,1.918 a 1.265,1.265 0 0 0 1.072,0.576 1.518,1.518 0 0 0 1.476,-1.594 1.185,1.185 0 0 0 -1.179,-1.287 1.352,1.352 0 0 0 -0.955,0.392 z" />
    <path
       id="path238"
       d="m 190.5,116.989 a 2.026,2.026 0 0 1 -2.125,-2.1 2.489,2.489 0 0 1 2.376,-2.565 1.849,1.849 0 0 1 1.882,1.989 3.725,3.725 0 0 1 -0.036,0.576 h -3.25 a 1.217,1.217 0 0 0 1.234,1.252 1.507,1.507 0 0 0 1.026,-0.37 l 0.549,0.667 a 2.71,2.71 0 0 1 -1.656,0.551 z m -1.072,-2.719 h 2.305 a 1.07,1.07 0 0 0 -1.035,-1.107 1.365,1.365 0 0 0 -1.271,1.107 z" />
    <path
       id="path240"
       d="m 194.134,112.389 h 1.009 l -0.144,0.675 a 1.859,1.859 0 0 1 1.44,-0.73 1.261,1.261 0 0 1 1.26,1.711 l -0.612,2.854 h -1 l 0.567,-2.62 c 0.153,-0.675 -0.162,-1.143 -0.783,-1.143 a 1.329,1.329 0 0 0 -1,0.486 l -0.712,3.277 h -1.008 z" />
    <path
       id="path242"
       d="m 201.533,116.467 a 1.707,1.707 0 0 1 -1.2,0.477 1.885,1.885 0 0 1 -1.755,-2.053 2.436,2.436 0 0 1 2.3,-2.538 1.558,1.558 0 0 1 1.36,0.693 l 0.54,-2.584 1.035,-0.171 -1.386,6.608 h -0.991 z m -0.793,-0.369 a 1.377,1.377 0 0 0 0.946,-0.378 l 0.414,-1.981 a 1.292,1.292 0 0 0 -1.062,-0.522 1.51,1.51 0 0 0 -1.468,1.593 1.184,1.184 0 0 0 1.17,1.29 z" />
  </g>
  <g
     id="g258">
    <path
       id="path246"
       d="M238.632,112.389h1.008l-.2.9a1.607,1.607,0,0,1,1.342-.973,1.123,1.123,0,0,1,.5.109l-.2.891a1.21,1.21,0,0,0-.594-.135,1.484,1.484,0,0,0-1.18.684l-.657,3.034h-1.008Z" />
    <path
       id="path248"
       d="M243.457,116.989a2.026,2.026,0,0,1-2.125-2.1,2.489,2.489,0,0,1,2.376-2.565,1.849,1.849,0,0,1,1.882,1.989,3.725,3.725,0,0,1-.036.576H242.3a1.217,1.217,0,0,0,1.234,1.252,1.507,1.507,0,0,0,1.026-.37l.549.667A2.71,2.71,0,0,1,243.457,116.989Zm-1.072-2.719h2.305a1.07,1.07,0,0,0-1.035-1.107A1.365,1.365,0,0,0,242.385,114.27Z" />
    <path
       id="path250"
       d="M246.534,115.594a2.188,2.188,0,0,0,1.458.621c.477,0,.837-.27.837-.621,0-.235-.153-.379-.531-.478l-.765-.207c-.7-.189-1.054-.585-1.054-1.17,0-.873.658-1.423,1.693-1.423a2.852,2.852,0,0,1,1.837.667l-.558.63a2.279,2.279,0,0,0-1.342-.531c-.459,0-.738.207-.738.531,0,.261.135.387.522.5l.765.207c.747.207,1.108.567,1.108,1.135A1.644,1.644,0,0,1,247.974,117a2.875,2.875,0,0,1-2-.756Z" />
    <path
       id="path252"
       d="M251.745,115.008c-.153.684.162,1.144.783,1.144a1.332,1.332,0,0,0,1.009-.5l.7-3.268h1.008l-.981,4.51h-1l.144-.684a1.874,1.874,0,0,1-1.45.738,1.273,1.273,0,0,1-1.26-1.71l.612-2.854h1Z" />
    <path
       id="path254"
       d="M256.479,112.389h1.008l-.162.765a1.777,1.777,0,0,1,1.4-.82,1.127,1.127,0,0,1,1.161.937,2.058,2.058,0,0,1,1.62-.937c.865,0,1.342.721,1.126,1.7l-.6,2.863h-1.008l.586-2.719c.126-.612-.154-1.044-.694-1.044a1.308,1.308,0,0,0-.99.576,2,2,0,0,1-.045.324l-.612,2.863h-1l.576-2.683c.136-.648-.144-1.08-.692-1.08a1.234,1.234,0,0,0-.928.5l-.711,3.259H255.5Z" />
    <path
       id="path256"
       d="M265.623,116.989a2.025,2.025,0,0,1-2.124-2.1,2.489,2.489,0,0,1,2.376-2.565,1.85,1.85,0,0,1,1.882,1.989,3.725,3.725,0,0,1-.036.576h-3.25a1.217,1.217,0,0,0,1.233,1.252,1.507,1.507,0,0,0,1.026-.37l.549.667A2.71,2.71,0,0,1,265.623,116.989Zm-1.071-2.719h2.3a1.069,1.069,0,0,0-1.035-1.107A1.365,1.365,0,0,0,264.552,114.27Z" />
  </g>
  <g
     id="g264">
    <line
       id="line260"
       y2="144.009"
       x2="65.316"
       y1="78.865"
       x1="65.316"
       class="e656613d-52d6-4687-9e3b-ca915b8b0ff0" />
    <polygon
       id="polygon262"
       points="61.576 142.915 65.316 149.392 69.056 142.915 61.576 142.915" />
  </g>
  <g
     id="g274">
    <path
       id="path266"
       d="M70.73,112.389l.189-.91a1.6,1.6,0,0,1,1.657-1.4,2.3,2.3,0,0,1,.81.135l-.18.864a1.728,1.728,0,0,0-.594-.108.641.641,0,0,0-.7.6l-.171.82h1.224l-.189.81H71.568l-.783,3.7h-1l.775-3.7h-.928l.189-.81Z" />
    <path
       id="path268"
       d="M75.474,112.316a1.981,1.981,0,0,1,2.017,2.1,2.518,2.518,0,0,1-2.431,2.575,2,2,0,0,1-2.026-2.107A2.506,2.506,0,0,1,75.474,112.316Zm1.035,2.116a1.114,1.114,0,0,0-1.1-1.251,1.535,1.535,0,0,0-1.387,1.665,1.117,1.117,0,0,0,1.09,1.261A1.534,1.534,0,0,0,76.509,114.432Z" />
    <path
       id="path270"
       d="M79.01,112.389h1.009l-.2.9a1.6,1.6,0,0,1,1.341-.973,1.123,1.123,0,0,1,.5.109l-.2.891a1.208,1.208,0,0,0-.594-.135,1.481,1.481,0,0,0-1.179.684l-.657,3.034H78.029Z" />
    <path
       id="path272"
       d="M82.853,110.462l1.026-.171-.846,4.06,2.188-1.962h1.26l-2.593,2.241,1.693,2.269H84.393l-1.459-2.053L82.5,116.9H81.494Z" />
  </g>
  <g
     id="g280">
    <line
       id="line276"
       y2="149.392"
       x2="532.684"
       y1="84.248"
       x1="532.684"
       class="e656613d-52d6-4687-9e3b-ca915b8b0ff0" />
    <polygon
       id="polygon278"
       points="528.944 85.342 532.684 78.865 536.424 85.342 528.944 85.342" />
  </g>
  <g
     id="g290">
    <path
       id="path282"
       d="M538.7,112.389h1.008l-.2.9a1.6,1.6,0,0,1,1.34-.973,1.117,1.117,0,0,1,.5.109l-.2.891a1.212,1.212,0,0,0-.6-.135,1.48,1.48,0,0,0-1.178.684l-.658,3.034h-1.008Z" />
    <path
       id="path284"
       d="M543.528,116.989a2.025,2.025,0,0,1-2.124-2.1,2.489,2.489,0,0,1,2.376-2.565,1.85,1.85,0,0,1,1.882,1.989,3.725,3.725,0,0,1-.036.576h-3.25a1.218,1.218,0,0,0,1.233,1.252,1.507,1.507,0,0,0,1.027-.37l.549.667A2.71,2.71,0,0,1,543.528,116.989Zm-1.071-2.719h2.3a1.07,1.07,0,0,0-1.035-1.107A1.366,1.366,0,0,0,542.457,114.27Z" />
    <path
       id="path286"
       d="M546.255,115.71c0-.882.693-1.449,1.773-1.449a2.905,2.905,0,0,1,1.332.315l.081-.378c.154-.693-.17-1.035-.962-1.035a3.412,3.412,0,0,0-1.225.279l-.243-.747a4.889,4.889,0,0,1,1.711-.369c1.314,0,1.963.7,1.719,1.836l-.6,2.737h-.99l.09-.405a1.968,1.968,0,0,1-1.234.459C546.822,116.953,546.255,116.467,546.255,115.71Zm1.809.532a1.646,1.646,0,0,0,1-.325l.171-.765a2.2,2.2,0,0,0-1.08-.234c-.585,0-.963.279-.963.7C547.191,116.017,547.506,116.242,548.064,116.242Z" />
    <path
       id="path288"
       d="M552.015,112.389h.99l-.1.477a1.73,1.73,0,0,1,1.225-.5,1.881,1.881,0,0,1,1.746,2.043,2.439,2.439,0,0,1-2.3,2.548,1.535,1.535,0,0,1-1.377-.738l-.558,2.593h-1Zm.747,1.206-.414,1.918a1.265,1.265,0,0,0,1.071.576A1.518,1.518,0,0,0,554.9,114.5a1.185,1.185,0,0,0-1.179-1.287A1.349,1.349,0,0,0,552.762,113.6Z" />
  </g>
  <g
     id="g296">
    <line
       id="line292"
       y2="149.392"
       x2="368.974"
       y1="84.248"
       x1="368.974"
       class="e656613d-52d6-4687-9e3b-ca915b8b0ff0" />
    <polygon
       id="polygon294"
       points="365.234 85.342 368.974 78.865 372.713 85.342 365.234 85.342" />
  </g>
  <g
     id="g302">
    <line
       id="line298"
       y2="144.009"
       x2="387.921"
       y1="78.865"
       x1="387.921"
       class="e656613d-52d6-4687-9e3b-ca915b8b0ff0" />
    <polygon
       id="polygon300"
       points="384.181 142.915 387.921 149.392 391.661 142.915 384.181 142.915" />
  </g>
  <g
     id="g318">
    <path
       id="path304"
       d="M335.583,115.594a2.188,2.188,0,0,0,1.458.621c.478,0,.837-.27.837-.621,0-.235-.152-.379-.53-.478l-.766-.207c-.7-.189-1.054-.585-1.054-1.17,0-.873.658-1.423,1.693-1.423a2.85,2.85,0,0,1,1.837.667l-.558.63a2.276,2.276,0,0,0-1.342-.531c-.459,0-.738.207-.738.531,0,.261.135.387.522.5l.765.207c.747.207,1.107.567,1.107,1.135A1.642,1.642,0,0,1,337.023,117a2.879,2.879,0,0,1-2-.756Z" />
    <path
       id="path306"
       d="M340.389,116.962l-.72-4.573h1.044l.45,3.421,1.972-3.421h1.1l-3.177,5.32a1.885,1.885,0,0,1-1.71,1.1,2.313,2.313,0,0,1-.631-.1l.181-.864a2.071,2.071,0,0,0,.405.054.859.859,0,0,0,.818-.468Z" />
    <path
       id="path308"
       d="M344.564,115.594a2.192,2.192,0,0,0,1.459.621c.477,0,.837-.27.837-.621,0-.235-.153-.379-.531-.478l-.766-.207c-.7-.189-1.052-.585-1.052-1.17,0-.873.657-1.423,1.692-1.423a2.852,2.852,0,0,1,1.837.667l-.559.63a2.274,2.274,0,0,0-1.341-.531c-.459,0-.739.207-.739.531,0,.261.136.387.523.5l.765.207c.748.207,1.108.567,1.108,1.135A1.644,1.644,0,0,1,346.005,117a2.875,2.875,0,0,1-2-.756Z" />
    <path
       id="path310"
       d="M351.873,115.692l.486.64a2.481,2.481,0,0,1-1.692.657,1.961,1.961,0,0,1-2-2.044,2.55,2.55,0,0,1,2.457-2.619,2.107,2.107,0,0,1,1.783.909l-.721.594a1.21,1.21,0,0,0-1.088-.6,1.559,1.559,0,0,0-1.432,1.638,1.15,1.15,0,0,0,1.161,1.234A1.525,1.525,0,0,0,351.873,115.692Z" />
    <path
       id="path312"
       d="M353.024,115.71c0-.882.694-1.449,1.774-1.449a2.908,2.908,0,0,1,1.332.315l.081-.378c.153-.693-.171-1.035-.963-1.035a3.412,3.412,0,0,0-1.225.279l-.243-.747a4.9,4.9,0,0,1,1.711-.369c1.315,0,1.963.7,1.72,1.836l-.6,2.737h-.99l.09-.405a1.97,1.97,0,0,1-1.233.459C353.592,116.953,353.024,116.467,353.024,115.71Zm1.81.532a1.648,1.648,0,0,0,1-.325l.171-.765a2.2,2.2,0,0,0-1.08-.234c-.585,0-.963.279-.963.7C353.961,116.017,354.275,116.242,354.834,116.242Z" />
    <path
       id="path314"
       d="M358.812,116.9H357.8l1.359-6.437,1.026-.171Z" />
    <path
       id="path316"
       d="M361.053,116.9h-1.009l1.359-6.437,1.027-.171Z" />
  </g>
  <g
     id="g332">
    <path
       id="path320"
       d="M394.462,112.389h1.009l-.2.9a1.607,1.607,0,0,1,1.341-.973,1.12,1.12,0,0,1,.5.109l-.2.891a1.21,1.21,0,0,0-.594-.135,1.484,1.484,0,0,0-1.18.684l-.657,3.034H393.48Z" />
    <path
       id="path322"
       d="M399.287,116.989a2.026,2.026,0,0,1-2.125-2.1,2.489,2.489,0,0,1,2.377-2.565,1.85,1.85,0,0,1,1.881,1.989,3.863,3.863,0,0,1-.035.576h-3.25a1.216,1.216,0,0,0,1.232,1.252,1.512,1.512,0,0,0,1.028-.37l.548.667A2.708,2.708,0,0,1,399.287,116.989Zm-1.072-2.719h2.305a1.07,1.07,0,0,0-1.036-1.107A1.366,1.366,0,0,0,398.215,114.27Z" />
    <path
       id="path324"
       d="M403.1,113.2h-.882l.179-.81h.873l.262-1.243,1.053-.216-.315,1.459h1.233l-.18.81H404.1l-.487,2.259c-.107.469.055.649.568.649a1.922,1.922,0,0,0,.512-.072l-.179.846a3.306,3.306,0,0,1-.766.09c-.936,0-1.359-.477-1.17-1.332Z" />
    <path
       id="path326"
       d="M406.783,115.008c-.152.684.162,1.144.783,1.144a1.328,1.328,0,0,0,1.008-.5l.7-3.268h1.008l-.98,4.51h-1l.144-.684a1.872,1.872,0,0,1-1.449.738,1.274,1.274,0,0,1-1.262-1.71l.614-2.854h1Z" />
    <path
       id="path328"
       d="M411.508,112.389h1.008l-.2.9a1.607,1.607,0,0,1,1.342-.973,1.123,1.123,0,0,1,.5.109l-.2.891a1.212,1.212,0,0,0-.6-.135,1.483,1.483,0,0,0-1.179.684l-.657,3.034h-1.008Z" />
    <path
       id="path330"
       d="M414.973,112.389h1.008l-.143.675a1.859,1.859,0,0,1,1.439-.73,1.261,1.261,0,0,1,1.261,1.711l-.612,2.854h-1l.567-2.62c.152-.675-.162-1.143-.783-1.143a1.334,1.334,0,0,0-1,.486L415,116.9h-1.008Z" />
  </g>
  <g
     id="g342">
    <path
       id="path334"
       d="M449.638,173.252a2.025,2.025,0,0,1-2.124-2.1,2.489,2.489,0,0,1,2.376-2.566,1.85,1.85,0,0,1,1.881,1.99,3.6,3.6,0,0,1-.036.576h-3.25a1.218,1.218,0,0,0,1.234,1.251,1.511,1.511,0,0,0,1.026-.369l.549.667A2.715,2.715,0,0,1,449.638,173.252Zm-1.072-2.718h2.305a1.07,1.07,0,0,0-1.035-1.108A1.366,1.366,0,0,0,448.566,170.534Z" />
    <path
       id="path336"
       d="M453.688,170.813l-1.126-2.161h1.117l.72,1.468,1.332-1.468H456.9l-2.116,2.224,1.189,2.287h-1.108l-.783-1.576-1.44,1.576h-1.17Z" />
    <path
       id="path338"
       d="M457.711,173.163H456.7l.982-4.511h1.008Zm.126-5.978a.72.72,0,0,1,.693-.7.556.556,0,0,1,.558.559.707.707,0,0,1-.7.693A.535.535,0,0,1,457.837,167.185Z" />
    <path
       id="path340"
       d="M460.294,169.462h-.883l.181-.81h.873l.261-1.242,1.053-.216-.315,1.458H462.7l-.179.81h-1.225l-.486,2.26c-.109.468.053.649.567.649a1.94,1.94,0,0,0,.513-.073l-.18.847a3.306,3.306,0,0,1-.766.09c-.935,0-1.359-.478-1.17-1.333Z" />
  </g>
  <g
     id="g352">
    <path
       id="path344"
       d="M382.762,233.2l-.225-4.51h.936l.1,3.187,1.584-3.187H386l.233,3.187,1.441-3.187h.955l-2.17,4.51H385.5l-.207-3.178-1.567,3.178Z" />
    <path
       id="path346"
       d="M388.558,232.012c0-.882.693-1.45,1.773-1.45a2.909,2.909,0,0,1,1.332.316l.081-.378c.153-.693-.171-1.036-.963-1.036a3.4,3.4,0,0,0-1.224.279l-.244-.747a4.9,4.9,0,0,1,1.711-.369c1.315,0,1.963.7,1.72,1.837l-.6,2.736h-.991l.09-.405a1.967,1.967,0,0,1-1.233.46C389.125,233.255,388.558,232.769,388.558,232.012Zm1.809.531a1.651,1.651,0,0,0,1-.324l.171-.765a2.2,2.2,0,0,0-1.08-.234c-.585,0-.963.279-.963.7C389.494,232.318,389.809,232.543,390.367,232.543Z" />
    <path
       id="path348"
       d="M394.345,233.2h-1.009l.981-4.51h1.009Zm.126-5.977a.719.719,0,0,1,.693-.7.555.555,0,0,1,.558.557.707.707,0,0,1-.7.693A.534.534,0,0,1,394.471,227.223Z" />
    <path
       id="path350"
       d="M396.928,229.5h-.882l.18-.81h.873l.261-1.243,1.053-.216-.314,1.459h1.233l-.181.81h-1.224l-.486,2.26c-.108.469.054.648.567.648a1.928,1.928,0,0,0,.513-.072l-.18.847a3.362,3.362,0,0,1-.765.089c-.936,0-1.359-.477-1.171-1.332Z" />
  </g>
  <g
     id="g360">
    <path
       id="path354"
       d="M291.874,161.522h1.008l-.2.9a1.6,1.6,0,0,1,1.341-.973,1.1,1.1,0,0,1,.5.109l-.2.891a1.211,1.211,0,0,0-.595-.136,1.483,1.483,0,0,0-1.179.685l-.657,3.034h-1.008Z" />
    <path
       id="path356"
       d="M295.735,164.142c-.153.684.162,1.144.783,1.144a1.33,1.33,0,0,0,1.008-.5l.7-3.269h1.008l-.981,4.511h-1l.144-.684a1.875,1.875,0,0,1-1.449.738,1.274,1.274,0,0,1-1.261-1.711l.613-2.854h1Z" />
    <path
       id="path358"
       d="M300.469,161.522h1.009l-.145.676a1.856,1.856,0,0,1,1.44-.73,1.262,1.262,0,0,1,1.261,1.711l-.612,2.854h-1l.566-2.62c.154-.675-.162-1.143-.783-1.143a1.332,1.332,0,0,0-1,.486l-.711,3.277h-1.009Z" />
  </g>
  <g
     id="g378">
    <path
       id="path362"
       d="M125.323,171.857a2.192,2.192,0,0,0,1.459.622c.477,0,.837-.271.837-.622,0-.234-.153-.378-.531-.477l-.766-.207c-.7-.189-1.053-.585-1.053-1.171,0-.873.657-1.422,1.692-1.422a2.843,2.843,0,0,1,1.837.667l-.558.629a2.281,2.281,0,0,0-1.342-.531c-.459,0-.738.208-.738.531,0,.262.135.388.523.5l.765.207c.747.207,1.107.567,1.107,1.134a1.644,1.644,0,0,1-1.791,1.549,2.877,2.877,0,0,1-2-.757Z" />
    <path
       id="path364"
       d="M132.632,171.956l.486.639a2.483,2.483,0,0,1-1.692.657,1.961,1.961,0,0,1-2-2.043,2.552,2.552,0,0,1,2.458-2.62,2.106,2.106,0,0,1,1.782.91l-.72.594a1.211,1.211,0,0,0-1.089-.6,1.56,1.56,0,0,0-1.432,1.638,1.151,1.151,0,0,0,1.162,1.233A1.524,1.524,0,0,0,132.632,171.956Z" />
    <path
       id="path366"
       d="M135.088,166.726l1.045-.171-.585,2.826a1.884,1.884,0,0,1,1.485-.783,1.264,1.264,0,0,1,1.26,1.711l-.612,2.854h-1l.567-2.62c.144-.675-.162-1.144-.783-1.144a1.356,1.356,0,0,0-1.035.522l-.676,3.242h-1.008Z" />
    <path
       id="path368"
       d="M141.29,173.252a2.025,2.025,0,0,1-2.125-2.1,2.489,2.489,0,0,1,2.377-2.566,1.85,1.85,0,0,1,1.881,1.99,3.725,3.725,0,0,1-.036.576h-3.25a1.217,1.217,0,0,0,1.234,1.251,1.511,1.511,0,0,0,1.026-.369l.549.667A2.715,2.715,0,0,1,141.29,173.252Zm-1.072-2.718h2.305a1.07,1.07,0,0,0-1.035-1.108A1.365,1.365,0,0,0,140.218,170.534Z" />
    <path
       id="path370"
       d="M147.185,172.73a1.7,1.7,0,0,1-1.2.478,1.885,1.885,0,0,1-1.755-2.053,2.437,2.437,0,0,1,2.305-2.539,1.556,1.556,0,0,1,1.359.694l.54-2.584,1.036-.171-1.387,6.608h-.99Zm-.792-.369a1.373,1.373,0,0,0,.945-.378l.414-1.981a1.3,1.3,0,0,0-1.062-.522,1.511,1.511,0,0,0-1.468,1.594A1.183,1.183,0,0,0,146.393,172.361Z" />
    <path
       id="path372"
       d="M150.7,171.272c-.153.684.162,1.144.783,1.144a1.333,1.333,0,0,0,1.009-.5l.7-3.268h1.008l-.981,4.511h-1l.144-.684a1.877,1.877,0,0,1-1.45.738,1.273,1.273,0,0,1-1.26-1.711l.612-2.854h1Z" />
    <path
       id="path374"
       d="M155.464,173.163h-1.008l1.359-6.437,1.026-.171Z" />
    <path
       id="path376"
       d="M159.1,173.252a2.025,2.025,0,0,1-2.125-2.1,2.489,2.489,0,0,1,2.377-2.566,1.85,1.85,0,0,1,1.881,1.99,3.725,3.725,0,0,1-.036.576h-3.25a1.217,1.217,0,0,0,1.234,1.251,1.511,1.511,0,0,0,1.026-.369l.549.667A2.715,2.715,0,0,1,159.1,173.252Zm-1.072-2.718h2.305a1.07,1.07,0,0,0-1.035-1.108A1.365,1.365,0,0,0,158.029,170.534Z" />
  </g>
  <g
     id="g418">
    <path
       id="path380"
       d="M275.665,191.042h.99l-.1.477a1.726,1.726,0,0,1,1.225-.5,1.881,1.881,0,0,1,1.746,2.043,2.44,2.44,0,0,1-2.305,2.548,1.535,1.535,0,0,1-1.377-.738l-.558,2.592h-1Zm.747,1.206L276,194.166a1.263,1.263,0,0,0,1.071.576,1.518,1.518,0,0,0,1.477-1.594,1.185,1.185,0,0,0-1.179-1.287A1.349,1.349,0,0,0,276.412,192.248Z" />
    <path
       id="path382"
       d="M281.038,191.042h1.008l-.2.9a1.6,1.6,0,0,1,1.341-.973,1.1,1.1,0,0,1,.5.109l-.2.891a1.211,1.211,0,0,0-.595-.136,1.483,1.483,0,0,0-1.179.685l-.657,3.034h-1.008Z" />
    <path
       id="path384"
       d="M285.862,195.642a2.026,2.026,0,0,1-2.124-2.1,2.489,2.489,0,0,1,2.376-2.565A1.85,1.85,0,0,1,288,192.968a3.725,3.725,0,0,1-.036.576h-3.25a1.217,1.217,0,0,0,1.233,1.251,1.513,1.513,0,0,0,1.027-.369l.549.667A2.719,2.719,0,0,1,285.862,195.642Zm-1.071-2.719H287.1a1.071,1.071,0,0,0-1.035-1.108A1.366,1.366,0,0,0,284.791,192.923Z" />
    <path
       id="path386"
       d="M290.92,195.642a2.026,2.026,0,0,1-2.124-2.1,2.489,2.489,0,0,1,2.376-2.565,1.849,1.849,0,0,1,1.882,1.989,3.725,3.725,0,0,1-.036.576h-3.25A1.217,1.217,0,0,0,291,194.8a1.511,1.511,0,0,0,1.027-.369l.549.667A2.719,2.719,0,0,1,290.92,195.642Zm-1.071-2.719h2.305a1.071,1.071,0,0,0-1.035-1.108A1.366,1.366,0,0,0,289.849,192.923Z" />
    <path
       id="path388"
       d="M294.556,191.042h1.008l-.162.765a1.777,1.777,0,0,1,1.4-.82,1.126,1.126,0,0,1,1.161.937,2.061,2.061,0,0,1,1.621-.937c.864,0,1.342.721,1.126,1.7l-.6,2.863h-1.009l.586-2.719c.126-.612-.154-1.044-.694-1.044a1.308,1.308,0,0,0-.99.576,2,2,0,0,1-.045.324l-.613,2.863h-1l.576-2.683c.135-.648-.144-1.08-.693-1.08a1.233,1.233,0,0,0-.927.5l-.711,3.259h-1.009Z" />
    <path
       id="path390"
       d="M302.278,191.042h.991l-.1.477a1.728,1.728,0,0,1,1.225-.5,1.881,1.881,0,0,1,1.747,2.043,2.441,2.441,0,0,1-2.305,2.548,1.536,1.536,0,0,1-1.378-.738l-.559,2.592h-1Zm.747,1.206-.414,1.918a1.264,1.264,0,0,0,1.072.576,1.518,1.518,0,0,0,1.476-1.594,1.185,1.185,0,0,0-1.18-1.287A1.35,1.35,0,0,0,303.025,192.248Z" />
    <path
       id="path392"
       d="M307.769,191.852h-.883l.18-.81h.873l.261-1.243,1.054-.216-.316,1.459h1.234l-.18.81h-1.224l-.487,2.259c-.108.469.054.649.568.649a1.965,1.965,0,0,0,.512-.072l-.179.846a3.306,3.306,0,0,1-.766.09c-.936,0-1.359-.478-1.17-1.332Z" />
    <path
       id="path394"
       d="M314.824,190.969a1.98,1.98,0,0,1,2.017,2.1,2.519,2.519,0,0,1-2.431,2.575,2,2,0,0,1-2.025-2.107A2.506,2.506,0,0,1,314.824,190.969Zm1.035,2.116a1.114,1.114,0,0,0-1.1-1.252,1.535,1.535,0,0,0-1.387,1.666,1.117,1.117,0,0,0,1.089,1.261A1.534,1.534,0,0,0,315.859,193.085Z" />
    <path
       id="path396"
       d="M318.36,191.042h1.009l-.2.9a1.6,1.6,0,0,1,1.342-.973,1.112,1.112,0,0,1,.5.109l-.2.891a1.2,1.2,0,0,0-.593-.136,1.485,1.485,0,0,0-1.18.685l-.657,3.034H317.38Z" />
    <path
       id="path398"
       d="M276.083,201.042h1.008l-.2.9a1.6,1.6,0,0,1,1.341-.973,1.109,1.109,0,0,1,.5.109l-.2.891a1.207,1.207,0,0,0-.594-.136,1.482,1.482,0,0,0-1.179.685l-.658,3.034H275.1Z" />
    <path
       id="path400"
       d="M280.908,205.642a2.027,2.027,0,0,1-2.125-2.1,2.489,2.489,0,0,1,2.377-2.565,1.85,1.85,0,0,1,1.882,1.989,3.717,3.717,0,0,1-.037.576h-3.25a1.218,1.218,0,0,0,1.234,1.252,1.511,1.511,0,0,0,1.026-.369l.549.666A2.716,2.716,0,0,1,280.908,205.642Zm-1.072-2.719h2.305a1.071,1.071,0,0,0-1.035-1.108A1.367,1.367,0,0,0,279.836,202.923Z" />
    <path
       id="path402"
       d="M283.985,204.246a2.188,2.188,0,0,0,1.458.621c.477,0,.837-.269.837-.621,0-.233-.153-.378-.53-.476l-.766-.208c-.7-.189-1.053-.585-1.053-1.17,0-.873.657-1.423,1.692-1.423a2.847,2.847,0,0,1,1.837.667l-.558.63a2.281,2.281,0,0,0-1.342-.532c-.459,0-.738.208-.738.532,0,.261.135.387.522.5l.765.207c.747.207,1.108.567,1.108,1.135a1.643,1.643,0,0,1-1.792,1.547,2.874,2.874,0,0,1-2-.755Z" />
    <path
       id="path404"
       d="M291.293,204.346l.487.638a2.482,2.482,0,0,1-1.693.658,1.961,1.961,0,0,1-2-2.043,2.551,2.551,0,0,1,2.457-2.62,2.106,2.106,0,0,1,1.783.909l-.72.594a1.211,1.211,0,0,0-1.089-.6,1.559,1.559,0,0,0-1.432,1.639,1.151,1.151,0,0,0,1.162,1.233A1.526,1.526,0,0,0,291.293,204.346Z" />
    <path
       id="path406"
       d="M293.75,199.115l1.044-.171-.585,2.827a1.887,1.887,0,0,1,1.486-.784,1.265,1.265,0,0,1,1.26,1.711l-.612,2.854h-1l.567-2.62c.144-.675-.162-1.143-.784-1.143a1.354,1.354,0,0,0-1.035.522l-.675,3.241h-1.008Z" />
    <path
       id="path408"
       d="M299.952,205.642a2.026,2.026,0,0,1-2.125-2.1,2.489,2.489,0,0,1,2.377-2.565,1.85,1.85,0,0,1,1.882,1.989,3.854,3.854,0,0,1-.036.576H298.8a1.218,1.218,0,0,0,1.234,1.252,1.515,1.515,0,0,0,1.027-.369l.548.666A2.714,2.714,0,0,1,299.952,205.642Zm-1.072-2.719h2.306a1.071,1.071,0,0,0-1.036-1.108A1.368,1.368,0,0,0,298.88,202.923Z" />
    <path
       id="path410"
       d="M305.847,205.12a1.707,1.707,0,0,1-1.2.477,1.885,1.885,0,0,1-1.755-2.053,2.437,2.437,0,0,1,2.3-2.539,1.559,1.559,0,0,1,1.36.694l.54-2.584,1.036-.171-1.387,6.608h-.99Zm-.792-.369a1.376,1.376,0,0,0,.945-.379l.414-1.98a1.294,1.294,0,0,0-1.062-.522,1.51,1.51,0,0,0-1.468,1.593A1.183,1.183,0,0,0,305.055,204.751Z" />
    <path
       id="path412"
       d="M309.365,203.661c-.152.685.162,1.144.783,1.144a1.33,1.33,0,0,0,1.009-.5l.7-3.268h1.008l-.98,4.51h-1l.144-.685a1.869,1.869,0,0,1-1.449.738,1.273,1.273,0,0,1-1.261-1.709l.613-2.854h1Z" />
    <path
       id="path414"
       d="M314.126,205.552h-1.008l1.36-6.437,1.026-.171Z" />
    <path
       id="path416"
       d="M317.763,205.642a2.027,2.027,0,0,1-2.125-2.1,2.489,2.489,0,0,1,2.377-2.565,1.849,1.849,0,0,1,1.881,1.989,3.725,3.725,0,0,1-.036.576h-3.25a1.218,1.218,0,0,0,1.234,1.252,1.514,1.514,0,0,0,1.026-.369l.549.666A2.718,2.718,0,0,1,317.763,205.642Zm-1.072-2.719H319a1.071,1.071,0,0,0-1.035-1.108A1.366,1.366,0,0,0,316.691,202.923Z" />
  </g>
  <g
     id="g446">
    <path
       id="path420"
       d="M175.407,229.547a2.025,2.025,0,0,1-2.124-2.1,2.489,2.489,0,0,1,2.376-2.566,1.851,1.851,0,0,1,1.882,1.99,3.725,3.725,0,0,1-.036.576h-3.25a1.217,1.217,0,0,0,1.233,1.251,1.515,1.515,0,0,0,1.027-.369l.548.667A2.713,2.713,0,0,1,175.407,229.547Zm-1.071-2.718h2.3a1.07,1.07,0,0,0-1.036-1.108A1.365,1.365,0,0,0,174.336,226.829Z" />
    <path
       id="path422"
       d="M178.25,224.947H179.3l.513,3.313,1.936-3.313h1.08l-2.8,4.511h-.963Z" />
    <path
       id="path424"
       d="M184.929,229.547a2.025,2.025,0,0,1-2.124-2.1,2.489,2.489,0,0,1,2.376-2.566,1.851,1.851,0,0,1,1.882,1.99,3.725,3.725,0,0,1-.036.576h-3.25a1.217,1.217,0,0,0,1.233,1.251,1.515,1.515,0,0,0,1.027-.369l.548.667A2.713,2.713,0,0,1,184.929,229.547Zm-1.071-2.718h2.305a1.07,1.07,0,0,0-1.036-1.108A1.365,1.365,0,0,0,183.858,226.829Z" />
    <path
       id="path426"
       d="M188.565,224.947h1.008l-.144.676a1.858,1.858,0,0,1,1.441-.73,1.261,1.261,0,0,1,1.26,1.711l-.612,2.854h-1l.566-2.62c.154-.675-.162-1.144-.783-1.144a1.329,1.329,0,0,0-1,.487l-.711,3.277h-1.009Z" />
    <path
       id="path428"
       d="M193.938,225.757h-.882l.18-.81h.873l.261-1.242,1.053-.216-.315,1.458h1.234l-.18.81h-1.225l-.486,2.26c-.108.468.054.649.567.649a1.94,1.94,0,0,0,.513-.073l-.18.846a3.248,3.248,0,0,1-.765.091c-.936,0-1.359-.478-1.17-1.333Z" />
    <path
       id="path430"
       d="M200.994,224.875a1.981,1.981,0,0,1,2.017,2.1,2.518,2.518,0,0,1-2.431,2.574,2,2,0,0,1-2.026-2.106A2.506,2.506,0,0,1,200.994,224.875Zm1.035,2.116a1.115,1.115,0,0,0-1.1-1.252,1.536,1.536,0,0,0-1.387,1.666,1.117,1.117,0,0,0,1.09,1.261A1.534,1.534,0,0,0,202.029,226.991Z" />
    <path
       id="path432"
       d="M204.53,224.947h1.009l-.2.9a1.6,1.6,0,0,1,1.341-.973,1.122,1.122,0,0,1,.5.108l-.2.892a1.2,1.2,0,0,0-.594-.136,1.483,1.483,0,0,0-1.179.685l-.657,3.034h-1.009Z" />
    <path
       id="path434"
       d="M183.354,238.152a2.188,2.188,0,0,0,1.458.621c.478,0,.837-.27.837-.621,0-.234-.152-.378-.53-.477l-.766-.207c-.7-.189-1.053-.586-1.053-1.171,0-.873.657-1.422,1.692-1.422a2.845,2.845,0,0,1,1.837.667l-.558.629a2.281,2.281,0,0,0-1.342-.531c-.459,0-.738.208-.738.531,0,.262.135.388.522.5l.766.207c.747.207,1.107.567,1.107,1.134a1.643,1.643,0,0,1-1.792,1.548,2.871,2.871,0,0,1-2-.756Z" />
    <path
       id="path436"
       d="M188.2,239.458h-1.008l.981-4.511h1.008Zm.126-5.978a.72.72,0,0,1,.693-.7.556.556,0,0,1,.558.558.707.707,0,0,1-.7.694A.535.535,0,0,1,188.322,233.48Z" />
    <path
       id="path438"
       d="M189.726,237.441a2.427,2.427,0,0,1,2.295-2.53,1.584,1.584,0,0,1,1.369.693l.144-.657h.981l-1.017,4.9a1.9,1.9,0,0,1-2.026,1.594,3.546,3.546,0,0,1-2.016-.657l.459-.711a2.606,2.606,0,0,0,1.512.549,1.025,1.025,0,0,0,1.1-.882l.153-.73a1.743,1.743,0,0,1-1.207.478A1.87,1.87,0,0,1,189.726,237.441Zm2.161,1.206a1.373,1.373,0,0,0,.945-.378l.414-1.972a1.312,1.312,0,0,0-1.071-.522,1.5,1.5,0,0,0-1.459,1.585A1.178,1.178,0,0,0,191.887,238.647Z" />
    <path
       id="path440"
       d="M195.747,234.947h1.008l-.144.676a1.858,1.858,0,0,1,1.441-.73,1.261,1.261,0,0,1,1.26,1.711l-.612,2.854h-1l.567-2.621c.153-.674-.163-1.143-.784-1.143a1.329,1.329,0,0,0-1,.487l-.711,3.277h-1.008Z" />
    <path
       id="path442"
       d="M199.994,238.269c0-.882.694-1.449,1.774-1.449a2.908,2.908,0,0,1,1.332.315l.081-.379c.153-.693-.171-1.035-.963-1.035a3.4,3.4,0,0,0-1.224.279l-.244-.747a4.9,4.9,0,0,1,1.711-.369c1.314,0,1.963.7,1.72,1.837l-.6,2.737h-.991l.09-.406a1.968,1.968,0,0,1-1.233.459C200.562,239.511,199.994,239.026,199.994,238.269Zm1.81.531a1.649,1.649,0,0,0,1-.324l.171-.765a2.2,2.2,0,0,0-1.08-.234c-.585,0-.963.279-.963.7C200.931,238.576,201.246,238.8,201.8,238.8Z" />
    <path
       id="path444"
       d="M205.782,239.458h-1.009l1.36-6.437,1.026-.171Z" />
  </g>
  <g
     id="g474">
    <path
       id="path448"
       d="M358.479,48.941h3.109a2.132,2.132,0,0,1,2.339,2.119,1.988,1.988,0,0,1-1.379,1.919l1.469,2.959h-1.329l-1.35-2.8H359.68v2.8h-1.2Zm1.2,1.01V52.18h1.808a1.12,1.12,0,1,0,0-2.229Z" />
    <path
       id="path450"
       d="M366.06,53.909a1.078,1.078,0,0,0,1.1,1.2,1.263,1.263,0,0,0,1.1-.62V50.93h1.13v5.008h-1.13v-.83a1.829,1.829,0,0,1-1.6.91,1.68,1.68,0,0,1-1.729-1.789v-3.3h1.13Z" />
    <path
       id="path452"
       d="M370.78,50.93h1.129v.82a1.818,1.818,0,0,1,1.589-.9,1.686,1.686,0,0,1,1.73,1.789v3.3H374.1V52.959a1.078,1.078,0,0,0-1.1-1.2,1.286,1.286,0,0,0-1.09.6v3.579H370.78Z" />
    <path
       id="path454"
       d="M376.6,50.93h1.129v.82a1.817,1.817,0,0,1,1.589-.9,1.685,1.685,0,0,1,1.729,1.789v3.3h-1.129V52.959a1.078,1.078,0,0,0-1.1-1.2,1.285,1.285,0,0,0-1.089.6v3.579H376.6Z" />
    <path
       id="path456"
       d="M382.279,49.221a.7.7,0,0,1,1.409,0,.7.7,0,0,1-1.409,0Zm1.27,6.717H382.42V50.93h1.129Z" />
    <path
       id="path458"
       d="M384.939,50.93h1.13v.82a1.817,1.817,0,0,1,1.589-.9,1.685,1.685,0,0,1,1.729,1.789v3.3h-1.129V52.959a1.078,1.078,0,0,0-1.1-1.2,1.285,1.285,0,0,0-1.089.6v3.579h-1.13Z" />
    <path
       id="path460"
       d="M390.529,53.429a2.417,2.417,0,0,1,2.339-2.539,1.885,1.885,0,0,1,1.47.68v-.64h1.119v5.177c0,1.289-.84,2-2.359,2a4.338,4.338,0,0,1-2.009-.48l.4-.839a3.407,3.407,0,0,0,1.559.43c.84,0,1.279-.38,1.279-1.11v-.849a1.94,1.94,0,0,1-1.529.709A2.4,2.4,0,0,1,390.529,53.429Zm2.609,1.6a1.5,1.5,0,0,0,1.189-.549v-2.1a1.555,1.555,0,0,0-1.189-.539,1.493,1.493,0,0,0-1.489,1.589A1.514,1.514,0,0,0,393.138,55.028Z" />
    <path
       id="path462"
       d="M365.734,60.832l.6.719a4.878,4.878,0,0,0,0,7.876l-.6.729a5.7,5.7,0,0,1,0-9.324Z" />
    <path
       id="path464"
       d="M368.564,65.908a1.078,1.078,0,0,0,1.1,1.2,1.263,1.263,0,0,0,1.1-.62V62.93h1.13v5.008h-1.13v-.83a1.831,1.831,0,0,1-1.6.91,1.68,1.68,0,0,1-1.729-1.789v-3.3h1.129Z" />
    <path
       id="path466"
       d="M373.365,66.6a2.89,2.89,0,0,0,1.609.569c.6,0,1.009-.27,1.009-.67,0-.31-.21-.479-.689-.569l-.89-.151c-.969-.179-1.449-.629-1.449-1.379,0-.939.77-1.549,1.939-1.549a3.52,3.52,0,0,1,1.969.6l-.53.739a2.734,2.734,0,0,0-1.509-.479c-.519,0-.859.22-.859.59,0,.319.18.459.709.55l.88.159c1,.19,1.479.65,1.479,1.4a1.835,1.835,0,0,1-2.039,1.629,3.353,3.353,0,0,1-2.159-.68Z" />
    <path
       id="path468"
       d="M380.443,68.037a2.545,2.545,0,0,1-2.548-2.6,2.466,2.466,0,0,1,2.438-2.588,2.4,2.4,0,0,1,2.369,2.579v.28H379a1.529,1.529,0,0,0,1.5,1.369,1.624,1.624,0,0,0,1.189-.47l.741.69A2.9,2.9,0,0,1,380.443,68.037Zm-1.419-3.017h2.609a1.371,1.371,0,0,0-1.31-1.25A1.346,1.346,0,0,0,379.024,65.02Z" />
    <path
       id="path470"
       d="M383.854,62.93h1.13v1.09a1.485,1.485,0,0,1,1.379-1.18,1.339,1.339,0,0,1,.49.1v.99a1.593,1.593,0,0,0-.62-.12,1.371,1.371,0,0,0-1.249.83v3.3h-1.13Z" />
    <path
       id="path472"
       d="M388.055,70.156l-.6-.719a4.878,4.878,0,0,0,0-7.876l.6-.729a5.7,5.7,0,0,1,0,9.324Z" />
  </g>
  <g
     id="g480">
    <circle
       id="circle476"
       r="7.994"
       cy="36.787"
       cx="221.105"
       class="ba09c724-e517-41d0-9c43-41a4bf84afaf" />
    <path
       id="path478"
       d="M218.3,34.255h5.609v1.323h-2.026v4.979h-1.549V35.578H218.3Z"
       class="bec9fab3-29d2-4e16-b44f-82b9f9964390" />
  </g>
  <g
     id="g486">
    <circle
       id="circle482"
       r="7.994"
       cy="36.787"
       cx="376.895"
       class="ba09c724-e517-41d0-9c43-41a4bf84afaf" />
    <path
       id="path484"
       d="M374.435,33.255h3.06a2.045,2.045,0,0,1,2.224,2.007,1.9,1.9,0,0,1-1.17,1.765l1.323,2.53h-1.728L377,37.243h-1.017v2.314h-1.548Zm1.548,1.278v1.494h1.369a.749.749,0,1,0,0-1.494Z"
       class="bec9fab3-29d2-4e16-b44f-82b9f9964390" />
  </g>
  <g
     id="g492">
    <circle
       id="circle488"
       r="7.994"
       cy="163.392"
       cx="221.105"
       class="ba09c724-e517-41d0-9c43-41a4bf84afaf" />
    <path
       id="path490"
       d="M218.645,159.86h3.061a2.045,2.045,0,0,1,2.223,2.007,1.9,1.9,0,0,1-1.17,1.765l1.324,2.53h-1.729l-1.144-2.314h-1.016v2.314h-1.549Zm1.549,1.278v1.494h1.368a.749.749,0,1,0,0-1.494Z"
       class="bec9fab3-29d2-4e16-b44f-82b9f9964390" />
  </g>
  <g
     id="g498">
    <circle
       id="circle494"
       r="7.994"
       cy="291.76"
       cx="221.105"
       class="ba09c724-e517-41d0-9c43-41a4bf84afaf" />
    <path
       id="path496"
       d="M218.487,288.229h1.549v2.736l2.349-2.736h1.846l-2.755,2.961,2.917,3.34h-2.026l-2.331-2.863v2.863h-1.549Z"
       class="bec9fab3-29d2-4e16-b44f-82b9f9964390" />
  </g>
  <g
     id="g504">
    <circle
       id="circle500"
       r="7.994"
       cy="291.76"
       cx="324.965"
       class="ba09c724-e517-41d0-9c43-41a4bf84afaf" />
    <path
       id="path502"
       d="M322.9,288.229h2.566a3.151,3.151,0,1,1,0,6.3H322.9Zm1.549,1.323v3.655h1.017a1.684,1.684,0,0,0,1.566-1.81,1.712,1.712,0,0,0-1.566-1.845Z"
       class="bec9fab3-29d2-4e16-b44f-82b9f9964390" />
  </g>
  <g
     id="g510">
    <circle
       id="circle506"
       r="7.994"
       cy="291.76"
       cx="428.825"
       class="ba09c724-e517-41d0-9c43-41a4bf84afaf" />
    <path
       id="path508"
       d="M426.841,293.032a3.458,3.458,0,0,0,2.044.838c.666,0,1.071-.27,1.071-.658,0-.369-.216-.54-.828-.657l-1.342-.234a1.67,1.67,0,0,1-1.548-1.683c0-1.224.936-1.99,2.5-1.99a4.27,4.27,0,0,1,2.583.829l-.783,1.125a3.007,3.007,0,0,0-1.881-.693c-.612,0-.964.252-.964.594,0,.315.207.486.711.567l1.261.216c1.18.207,1.8.819,1.8,1.782,0,1.225-1.045,2.062-2.693,2.062a4.471,4.471,0,0,1-2.727-.954Z"
       class="bec9fab3-29d2-4e16-b44f-82b9f9964390" />
  </g>
  <g
     id="g516">
    <circle
       id="circle512"
       r="7.994"
       cy="291.76"
       cx="532.684"
       class="ba09c724-e517-41d0-9c43-41a4bf84afaf" />
    <path
       id="path514"
       d="M531.911,288.229h1.548v6.3h-1.548Z"
       class="bec9fab3-29d2-4e16-b44f-82b9f9964390" />
  </g>
  <g
     id="g522">
    <circle
       id="circle518"
       r="7.994"
       cy="163.392"
       cx="376.895"
       class="ba09c724-e517-41d0-9c43-41a4bf84afaf" />
    <path
       id="path520"
       d="M374.435,159.86h3.06a2.045,2.045,0,0,1,2.224,2.007,1.9,1.9,0,0,1-1.17,1.765l1.323,2.53h-1.728L377,163.848h-1.017v2.314h-1.548Zm1.548,1.278v1.494h1.369a.749.749,0,1,0,0-1.494Z"
       class="bec9fab3-29d2-4e16-b44f-82b9f9964390" />
  </g>
  <g
     id="g528">
    <circle
       id="circle524"
       r="7.994"
       cy="163.392"
       cx="532.684"
       class="ba09c724-e517-41d0-9c43-41a4bf84afaf" />
    <path
       id="path526"
       d="M530.142,165.153l3.124-4.024-3.106.027v-1.3h5.086v1.008l-3.105,4.024,3.132-.027v1.3h-5.131Z"
       class="bec9fab3-29d2-4e16-b44f-82b9f9964390" />
  </g>
  <g
     id="g534">
    <circle
       id="circle530"
       r="7.994"
       cy="62.198"
       cx="532.684"
       class="ba09c724-e517-41d0-9c43-41a4bf84afaf" />
    <path
       id="path532"
       d="M529.372,65.968l2.4-3.25-2.3-3.051h1.846l1.35,1.908,1.35-1.908H535.8l-2.25,3.051,2.439,3.25h-1.845l-1.5-2.124-1.5,2.124Z"
       class="bec9fab3-29d2-4e16-b44f-82b9f9964390" />
  </g>
  <g
     id="g540">
    <polyline
       id="polyline536"
       points="376.895 206.234 376.895 241.497 230.579 241.497 230.579 271.378"
       class="e656613d-52d6-4687-9e3b-ca915b8b0ff0" />
    <polygon
       id="polygon538"
       points="226.839 270.284 230.579 276.76 234.319 270.284 226.839 270.284" />
  </g>
  <g
     id="g546">
    <polyline
       id="polyline542"
       points="376.895 206.234 376.895 241.497 324.691 241.497 324.691 271.378"
       class="e656613d-52d6-4687-9e3b-ca915b8b0ff0" />
    <polygon
       id="polygon544"
       points="320.951 270.284 324.691 276.76 328.43 270.284 320.951 270.284" />
  </g>
  <g
     id="g552">
    <polyline
       id="polyline548"
       points="376.895 206.234 376.895 241.497 428.825 241.497 428.825 271.378"
       class="e656613d-52d6-4687-9e3b-ca915b8b0ff0" />
    <polygon
       id="polygon550"
       points="425.085 270.284 428.825 276.76 432.564 270.284 425.085 270.284" />
  </g>
  <g
     id="g558">
    <polyline
       id="polyline554"
       points="376.895 206.234 376.895 241.497 532.684 241.497 532.684 271.378"
       class="e656613d-52d6-4687-9e3b-ca915b8b0ff0" />
    <polygon
       id="polygon556"
       points="528.944 270.284 532.684 276.76 536.424 270.284 528.944 270.284" />
  </g>
  <g
     id="g564">
    <line
       id="line560"
       y2="177.813"
       x2="171.513"
       y1="177.813"
       x1="109.526"
       class="e656613d-52d6-4687-9e3b-ca915b8b0ff0" />
    <polygon
       id="polygon562"
       points="170.418 181.552 176.895 177.813 170.418 174.073 170.418 181.552" />
  </g>
  <g
     id="g570">
    <line
       id="line566"
       y2="177.813"
       x2="483.092"
       y1="177.813"
       x1="421.105"
       class="e656613d-52d6-4687-9e3b-ca915b8b0ff0" />
    <polygon
       id="polygon568"
       points="481.997 181.552 488.474 177.813 481.997 174.073 481.997 181.552" />
  </g>
  <g
     id="g576">
    <line
       id="line572"
       y2="170.01"
       x2="327.302"
       y1="170.01"
       x1="265.316"
       class="e656613d-52d6-4687-9e3b-ca915b8b0ff0" />
    <polygon
       id="polygon574"
       points="326.208 173.749 332.684 170.01 326.208 166.27 326.208 173.749" />
  </g>
  <g
     id="g582">
    <line
       id="line578"
       y2="184.849"
       x2="332.684"
       y1="184.849"
       x1="270.698"
       class="e656613d-52d6-4687-9e3b-ca915b8b0ff0" />
    <polygon
       id="polygon580"
       points="271.792 188.588 265.316 184.849 271.792 181.109 271.792 188.588" />
  </g>
</svg>
