<?xml version="1.0" encoding="UTF-8" standalone="no"?>
<svg
   xmlns:dc="http://purl.org/dc/elements/1.1/"
   xmlns:cc="http://creativecommons.org/ns#"
   xmlns:rdf="http://www.w3.org/1999/02/22-rdf-syntax-ns#"
   xmlns:svg="http://www.w3.org/2000/svg"
   xmlns="http://www.w3.org/2000/svg"
   xmlns:sodipodi="http://sodipodi.sourceforge.net/DTD/sodipodi-0.dtd"
   xmlns:inkscape="http://www.inkscape.org/namespaces/inkscape"
   inkscape:version="1.0 (4035a4f, 2020-05-01)"
   sodipodi:docname="Figure 14.3_RPM file name elements_UPDATED.svg"
   version="1.1"
   viewBox="0 0 308.473 66.486"
   height="23.455mm"
   width="108.822mm"
   data-name="Layer 1"
   id="Layer_1">
  <metadata
     id="metadata153">
    <rdf:RDF>
      <cc:Work
         rdf:about="">
        <dc:format>image/svg+xml</dc:format>
        <dc:type
           rdf:resource="http://purl.org/dc/dcmitype/StillImage" />
        <dc:title></dc:title>
        <dc:subject>
          <rdf:Bag>
            <rdf:li>rpm</rdf:li>
            <rdf:li>package</rdf:li>
            <rdf:li>version</rdf:li>
          </rdf:Bag>
        </dc:subject>
      </cc:Work>
    </rdf:RDF>
  </metadata>
  <sodipodi:namedview
     inkscape:current-layer="Layer_1"
     inkscape:window-maximized="0"
     inkscape:window-y="25"
     inkscape:window-x="0"
     inkscape:cy="44.324409"
     inkscape:cx="205.64787"
     inkscape:zoom="2.6671805"
     showgrid="false"
     id="namedview151"
     inkscape:window-height="480"
     inkscape:window-width="709"
     inkscape:pageshadow="2"
     inkscape:pageopacity="0"
     guidetolerance="10"
     gridtolerance="10"
     objecttolerance="10"
     borderopacity="1"
     bordercolor="#666666"
     pagecolor="#ffffff" />
  <defs
     id="defs12">
    <style
       id="style10">
      .cls-1 {
        fill: #f0f0f0;
      }

      .cls-2 {
        fill: #d9e8f7;
      }

      .cls-3 {
        fill: #161616;
      }

      .cls-4 {
        fill: none;
        stroke: #161616;
        stroke-miterlimit: 10;
        stroke-width: 0.5px;
      }
    </style>
  </defs>
  <rect
     id="rect14"
     height="66.486"
     width="308.473"
     class="cls-1" />
  <rect
     id="rect16"
     height="13.291"
     width="53.674"
     y="37.209"
     x="204"
     class="cls-2" />
  <rect
     id="rect18"
     height="13.291"
     width="51.967"
     y="37.209"
     x="146.958"
     class="cls-2" />
  <rect
     id="rect20"
     height="13.291"
     width="33.437"
     y="37.209"
     x="105.036"
     class="cls-2" />
  <rect
     id="rect22"
     height="13.291"
     width="76.416"
     y="37.209"
     x="20.512"
     class="cls-2" />
  <g
     id="g32">
    <path
       id="path24"
       transform="translate(-146.973 -13.563)"
       d="M199,30.15h.779l2.8,5.867,1.209-5.867h.71l-1.479,7h-.68l-2.868-5.986-1.24,5.986h-.708Z"
       class="cls-3" />
    <path
       id="path26"
       transform="translate(-146.973 -13.563)"
       d="M204.725,35.848a1.654,1.654,0,0,1,1.869-1.57,2.758,2.758,0,0,1,1.609.47l.13-.59c.2-.9-.181-1.359-1.109-1.359a3.357,3.357,0,0,0-1.4.37l-.2-.571a4.44,4.44,0,0,1,1.729-.4c1.308,0,1.959.72,1.7,1.9l-.68,3.048h-.71l.1-.46a2.238,2.238,0,0,1-1.42.531C205.375,37.217,204.725,36.677,204.725,35.848Zm3.158.319.211-.93a2.233,2.233,0,0,0-1.43-.42c-.73,0-1.25.4-1.25.95,0,.57.42.9,1.14.9A2.063,2.063,0,0,0,207.883,36.167Z"
       class="cls-3" />
    <path
       id="path28"
       transform="translate(-146.973 -13.563)"
       d="M210.874,32.269h.71l-.16.749a1.907,1.907,0,0,1,1.489-.819,1.3,1.3,0,0,1,1.329.989,2.229,2.229,0,0,1,1.74-.989c.989,0,1.539.81,1.3,1.889l-.659,3.058h-.71l.64-2.978c.18-.8-.2-1.369-.9-1.369a1.741,1.741,0,0,0-1.359.809,2.057,2.057,0,0,1-.05.48l-.66,3.058h-.719l.629-2.908c.191-.849-.179-1.439-.888-1.439a1.63,1.63,0,0,0-1.289.719l-.79,3.628h-.72Z"
       class="cls-3" />
    <path
       id="path30"
       transform="translate(-146.973 -13.563)"
       d="M218.385,34.987a2.666,2.666,0,0,1,2.509-2.8,1.988,1.988,0,0,1,1.958,2.149,4.858,4.858,0,0,1-.03.53h-3.738a1.582,1.582,0,0,0,1.549,1.738,2.125,2.125,0,0,0,1.29-.429l.38.519a2.922,2.922,0,0,1-1.7.54A2.133,2.133,0,0,1,218.385,34.987Zm3.788-.639a1.392,1.392,0,0,0-1.329-1.519,1.824,1.824,0,0,0-1.69,1.519Z"
       class="cls-3" />
  </g>
  <g
     id="g98">
    <path
       id="path34"
       transform="translate(-146.973 -13.563)"
       d="M168.99,57.47c0-2.975,1.773-4.769,4.181-4.769a3.561,3.561,0,0,1,2.574,1.132l-.793.881a2.4,2.4,0,0,0-1.781-.783c-1.633,0-2.729,1.334-2.729,3.5,0,2.2,1.1,3.55,2.751,3.55a2.535,2.535,0,0,0,1.951-.957l.793.854a3.609,3.609,0,0,1-2.883,1.333C170.784,62.211,168.99,60.488,168.99,57.47Z"
       class="cls-3" />
    <path
       id="path36"
       transform="translate(-146.973 -13.563)"
       d="M177.313,58.632a3.413,3.413,0,1,1,3.408,3.579A3.375,3.375,0,0,1,177.313,58.632Zm5.388,0c0-1.475-.768-2.454-1.98-2.454s-1.98.979-1.98,2.454.769,2.432,1.98,2.432S182.7,60.1,182.7,58.632Z"
       class="cls-3" />
    <path
       id="path38"
       transform="translate(-146.973 -13.563)"
       d="M186.843,55.2H188l.125,1.588h.034a3.5,3.5,0,0,1,2.982-1.756,2.873,2.873,0,0,1,1.343.28l-.306,1.186a3.479,3.479,0,0,0-1.253-.219,3.033,3.033,0,0,0-2.684,1.882v3.884h-1.4Z"
       class="cls-3" />
    <path
       id="path40"
       transform="translate(-146.973 -13.563)"
       d="M194.224,58.609a3.455,3.455,0,0,1,3.51-3.579,2.969,2.969,0,0,1,3.152,3.231,4.909,4.909,0,0,1-.064.757h-5.631V58h4.762l-.3.34c0-1.483-.717-2.226-1.877-2.226a2.222,2.222,0,0,0-2.181,2.5,2.312,2.312,0,0,0,2.525,2.51,3.721,3.721,0,0,0,2-.6l.488.882a4.836,4.836,0,0,1-2.664.813A3.475,3.475,0,0,1,194.224,58.609Z"
       class="cls-3" />
    <path
       id="path42"
       transform="translate(-146.973 -13.563)"
       d="M202.742,59.444V55.2h1.4v4.064c0,1.183.395,1.747,1.425,1.747a2.408,2.408,0,0,0,1.916-1.129V55.2h1.395v6.845h-1.152l-.111-1.141h-.056a3.227,3.227,0,0,1-2.486,1.309C203.466,62.211,202.742,61.227,202.742,59.444Z"
       class="cls-3" />
    <path
       id="path44"
       transform="translate(-146.973 -13.563)"
       d="M212.889,59.335V56.312H211V55.271l1.941-.073.183-2.169h1.157V55.2h3.23v1.114h-3.23v3.027c0,1.176.417,1.747,1.656,1.747a4.39,4.39,0,0,0,1.559-.292l.283,1.018a6.306,6.306,0,0,1-2.166.4C213.57,62.211,212.889,61.053,212.889,59.335Z"
       class="cls-3" />
    <path
       id="path46"
       transform="translate(-146.973 -13.563)"
       d="M222.8,56.312h-3.06V55.2h4.456v6.845h-1.4Zm-.454-3.444a1.04,1.04,0,0,1,2.079,0,1.041,1.041,0,0,1-2.079,0Z"
       class="cls-3" />
    <path
       id="path48"
       transform="translate(-146.973 -13.563)"
       d="M230.218,59.647V53.225h-2.352V52.111h3.747v7.62a1.177,1.177,0,0,0,1.289,1.333,3.071,3.071,0,0,0,1.226-.287l.336,1.035a4.5,4.5,0,0,1-1.887.4C231.045,62.211,230.218,61.3,230.218,59.647Z"
       class="cls-3" />
    <path
       id="path50"
       transform="translate(-146.973 -13.563)"
       d="M236.247,61.146l.621-.9a4.968,4.968,0,0,0,2.916.9c1.05,0,1.552-.417,1.552-.932,0-.485-.284-.791-2.008-1.146-1.807-.375-2.656-1-2.656-2.036,0-1.144,1.029-2,2.924-2a5.246,5.246,0,0,1,2.813.89l-.654.87a4.131,4.131,0,0,0-2.28-.7c-1.019,0-1.412.4-1.412.871,0,.536.546.746,1.889,1.032,2.227.488,2.786,1.062,2.786,2.133,0,1.145-1.11,2.086-3.13,2.086A6.1,6.1,0,0,1,236.247,61.146Z"
       class="cls-3" />
    <path
       id="path52"
       transform="translate(-146.973 -13.563)"
       d="M244.854,56.91h6.132v1.021h-6.132Z"
       class="cls-3" />
    <path
       id="path54"
       transform="translate(-146.973 -13.563)"
       d="M253.044,59.763a2.667,2.667,0,0,1,1.857-2.33v-.056a2.516,2.516,0,0,1-1.344-2.09c0-1.409,1.189-2.339,2.83-2.339,1.757,0,2.81.987,2.81,2.4a2.7,2.7,0,0,1-1.338,2.079v.056a2.5,2.5,0,0,1,1.731,2.327c0,1.35-1.176,2.4-3.253,2.4C254.31,62.211,253.044,61.184,253.044,59.763Zm5.228,0c0-1.123-1.151-1.432-2.632-1.937a2.146,2.146,0,0,0-1.355,1.8c0,.928.833,1.577,2.085,1.577C257.562,61.2,258.272,60.637,258.272,59.759Zm-.261-4.336a1.468,1.468,0,0,0-1.657-1.459,1.361,1.361,0,0,0-1.538,1.323c0,.977.943,1.4,2.2,1.8A2.134,2.134,0,0,0,258.011,55.423Z"
       class="cls-3" />
    <path
       id="path56"
       transform="translate(-146.973 -13.563)"
       d="M263.457,60.9a1.264,1.264,0,1,1,1.263,1.309A1.253,1.253,0,0,1,263.457,60.9Z"
       class="cls-3" />
    <path
       id="path58"
       transform="translate(-146.973 -13.563)"
       d="M269.661,60.95l.682-.9a3.554,3.554,0,0,0,2.462,1.011c1.153,0,2.009-.565,2.009-1.478,0-.991-.821-1.646-3.092-1.646V56.908c2.018,0,2.789-.665,2.789-1.544,0-.794-.683-1.291-1.691-1.291a3.274,3.274,0,0,0-2.118.865l-.726-.864a4.433,4.433,0,0,1,2.9-1.126c1.749,0,3.042.84,3.042,2.314,0,1.037-.756,1.715-1.852,2.09v.056a2.427,2.427,0,0,1,2.156,2.243c0,1.6-1.507,2.56-3.313,2.56A4.376,4.376,0,0,1,269.661,60.95Z"
       class="cls-3" />
    <path
       id="path60"
       transform="translate(-146.973 -13.563)"
       d="M278.285,61.228c2.9-2.537,4.572-4.089,4.572-5.522,0-.981-.6-1.633-1.814-1.633a2.986,2.986,0,0,0-2.052,1.024l-.784-.777a4.014,4.014,0,0,1,3.013-1.372,2.664,2.664,0,0,1,2.973,2.686c0,1.633-1.643,3.283-3.886,5.3.547-.045,1.139-.078,1.653-.078h2.716v1.186h-6.391Z"
       class="cls-3" />
    <path
       id="path62"
       transform="translate(-146.973 -13.563)"
       d="M286.853,56.91h6.133v1.021h-6.133Z"
       class="cls-3" />
    <path
       id="path64"
       transform="translate(-146.973 -13.563)"
       d="M294.86,60.95l.683-.9A3.549,3.549,0,0,0,298,61.064c1.153,0,2.009-.565,2.009-1.478,0-.991-.82-1.646-3.092-1.646V56.908c2.019,0,2.789-.665,2.789-1.544,0-.794-.682-1.291-1.69-1.291a3.27,3.27,0,0,0-2.118.865l-.726-.864a4.431,4.431,0,0,1,2.9-1.126c1.749,0,3.042.84,3.042,2.314,0,1.037-.757,1.715-1.852,2.09v.056a2.426,2.426,0,0,1,2.155,2.243c0,1.6-1.507,2.56-3.311,2.56A4.378,4.378,0,0,1,294.86,60.95Z"
       class="cls-3" />
    <path
       id="path66"
       transform="translate(-146.973 -13.563)"
       d="M303.811,60.9h2.53V54.707h-2v-.893a6.322,6.322,0,0,0,2.354-.7h1.036V60.9h2.247v1.147h-6.172Z"
       class="cls-3" />
    <path
       id="path68"
       transform="translate(-146.973 -13.563)"
       d="M313.857,60.9a1.263,1.263,0,1,1,1.262,1.309A1.253,1.253,0,0,1,313.857,60.9Z"
       class="cls-3" />
    <path
       id="path70"
       transform="translate(-146.973 -13.563)"
       d="M320.222,58.609a3.455,3.455,0,0,1,3.511-3.579,2.969,2.969,0,0,1,3.151,3.231,4.909,4.909,0,0,1-.064.757h-5.631V58h4.762l-.3.34c0-1.483-.717-2.226-1.877-2.226a2.222,2.222,0,0,0-2.181,2.5,2.312,2.312,0,0,0,2.525,2.51,3.721,3.721,0,0,0,2-.6l.488.882a4.834,4.834,0,0,1-2.664.813A3.475,3.475,0,0,1,320.222,58.609Z"
       class="cls-3" />
    <path
       id="path72"
       transform="translate(-146.973 -13.563)"
       d="M331.016,59.647V53.225h-2.352V52.111h3.747v7.62a1.178,1.178,0,0,0,1.29,1.333,3.063,3.063,0,0,0,1.225-.287l.336,1.035a4.5,4.5,0,0,1-1.886.4C331.843,62.211,331.016,61.3,331.016,59.647Z"
       class="cls-3" />
    <path
       id="path74"
       transform="translate(-146.973 -13.563)"
       d="M337.163,61.238l.759-.858a2.6,2.6,0,0,0,1.725.684c1.364,0,2.565-.963,2.565-3.787,0-2.2-.849-3.242-2.157-3.242a1.7,1.7,0,0,0-1.753,1.813,1.573,1.573,0,0,0,1.754,1.738,2.887,2.887,0,0,0,2.163-1.183l.055,1.023a3.606,3.606,0,0,1-2.5,1.179,2.53,2.53,0,0,1-2.769-2.757,2.91,2.91,0,0,1,3.027-2.9c1.916,0,3.477,1.393,3.477,4.329,0,3.519-1.822,4.934-3.764,4.934A3.736,3.736,0,0,1,337.163,61.238Z"
       class="cls-3" />
    <path
       id="path76"
       transform="translate(-146.973 -13.563)"
       d="M347.456,60.9a1.264,1.264,0,1,1,1.263,1.309A1.253,1.253,0,0,1,347.456,60.9Z"
       class="cls-3" />
    <path
       id="path78"
       transform="translate(-146.973 -13.563)"
       d="M356.249,58.492,353.9,55.2h1.519l.984,1.391c.23.381.51.79.778,1.159h.055c.235-.369.5-.789.721-1.17l.907-1.38h1.47l-2.372,3.426,2.556,3.419h-1.53l-1.077-1.459c-.284-.381-.587-.835-.87-1.228h-.057c-.261.4-.528.81-.791,1.24l-1.007,1.447h-1.471Z"
       class="cls-3" />
    <path
       id="path80"
       transform="translate(-146.973 -13.563)"
       d="M362.242,59.763a2.67,2.67,0,0,1,1.857-2.33v-.056a2.519,2.519,0,0,1-1.343-2.09c0-1.409,1.188-2.339,2.83-2.339,1.756,0,2.81.987,2.81,2.4a2.708,2.708,0,0,1-1.337,2.079v.056a2.5,2.5,0,0,1,1.729,2.327c0,1.35-1.176,2.4-3.252,2.4C363.509,62.211,362.242,61.184,362.242,59.763Zm5.228,0c0-1.123-1.15-1.432-2.632-1.937a2.147,2.147,0,0,0-1.354,1.8c0,.928.833,1.577,2.085,1.577C366.761,61.2,367.47,60.637,367.47,59.759Zm-.26-4.336a1.468,1.468,0,0,0-1.657-1.459,1.361,1.361,0,0,0-1.539,1.323c0,.977.944,1.4,2.2,1.8A2.134,2.134,0,0,0,367.21,55.423Z"
       class="cls-3" />
    <path
       id="path82"
       transform="translate(-146.973 -13.563)"
       d="M370.734,57.882c0-3.518,1.812-4.934,3.764-4.934a3.689,3.689,0,0,1,2.582.984l-.759.86a2.588,2.588,0,0,0-1.724-.7c-1.376,0-2.566.961-2.566,3.786,0,2.2.838,3.254,2.158,3.254a1.711,1.711,0,0,0,1.741-1.826,1.563,1.563,0,0,0-1.741-1.736,2.888,2.888,0,0,0-2.175,1.182l-.056-1.023a3.682,3.682,0,0,1,2.5-1.179,2.539,2.539,0,0,1,2.78,2.756,2.914,2.914,0,0,1-3.039,2.9C372.284,62.211,370.734,60.819,370.734,57.882Z"
       class="cls-3" />
    <path
       id="path84"
       transform="translate(-146.973 -13.563)"
       d="M378.956,62.954h6.724v1.139h-6.724Z"
       class="cls-3" />
    <path
       id="path86"
       transform="translate(-146.973 -13.563)"
       d="M387.534,57.882c0-3.518,1.811-4.934,3.764-4.934a3.689,3.689,0,0,1,2.582.984l-.76.86a2.583,2.583,0,0,0-1.723-.7c-1.376,0-2.567.961-2.567,3.786,0,2.2.838,3.254,2.158,3.254a1.711,1.711,0,0,0,1.742-1.826,1.564,1.564,0,0,0-1.743-1.736,2.886,2.886,0,0,0-2.174,1.182l-.055-1.023a3.68,3.68,0,0,1,2.5-1.179,2.538,2.538,0,0,1,2.779,2.756,2.913,2.913,0,0,1-3.038,2.9C389.083,62.211,387.534,60.819,387.534,57.882Z"
       class="cls-3" />
    <path
       id="path88"
       transform="translate(-146.973 -13.563)"
       d="M399.971,56.141c.012-.51.045-1.168.072-1.678h-.067c-.294.452-.626.9-.926,1.357l-2.132,2.743H402.6v1.1h-7.151v-.941l4.263-5.61h1.568v8.927h-1.306Z"
       class="cls-3" />
    <path
       id="path90"
       transform="translate(-146.973 -13.563)"
       d="M406.255,60.9a1.263,1.263,0,1,1,1.263,1.309A1.253,1.253,0,0,1,406.255,60.9Z"
       class="cls-3" />
    <path
       id="path92"
       transform="translate(-146.973 -13.563)"
       d="M413.639,55.2h1.155l.125,1.588h.033a3.5,3.5,0,0,1,2.983-1.756,2.865,2.865,0,0,1,1.341.28l-.305,1.186a3.479,3.479,0,0,0-1.253-.219,3.033,3.033,0,0,0-2.684,1.882v3.884h-1.395Z"
       class="cls-3" />
    <path
       id="path94"
       transform="translate(-146.973 -13.563)"
       d="M421.342,55.2h1.141l.111.827h.045a3.5,3.5,0,0,1,2.28-.995c1.809,0,2.808,1.367,2.808,3.49,0,2.329-1.457,3.691-3.076,3.691a3.028,3.028,0,0,1-1.947-.849h-.033l.066,1.247v2.23h-1.4Zm4.956,3.327c0-1.433-.522-2.331-1.755-2.331a2.591,2.591,0,0,0-1.806.914v3.239a2.571,2.571,0,0,0,1.648.7C425.475,61.048,426.3,60.143,426.3,58.525Z"
       class="cls-3" />
    <path
       id="path96"
       transform="translate(-146.973 -13.563)"
       d="M429.243,55.2h1.087l.112.887h.033a1.661,1.661,0,0,1,1.542-1.055c.654,0,1.079.393,1.267,1.166a1.72,1.72,0,0,1,1.581-1.166c.963,0,1.524.772,1.524,2.138v4.875h-1.358V57.267c0-.692-.193-1.045-.637-1.045-.421,0-.655.315-.975.953v4.868h-1.206V57.267c0-.692-.178-1.045-.621-1.045-.419,0-.693.315-.99.953v4.868h-1.359Z"
       class="cls-3" />
  </g>
  <path
     id="path100"
     transform="translate(-146.973 -13.563)"
     d="M208.009,45.45l2.769-5.322-2.769,5.322-2.769,5.322Z"
     class="cls-4" />
  <g
     id="g116">
    <path
       id="path102"
       transform="translate(-146.973 -13.563)"
       d="M258.244,30.15H259l1.04,6.277L263.7,30.15h.821l-4.149,7h-.909Z"
       class="cls-3" />
    <path
       id="path104"
       transform="translate(-146.973 -13.563)"
       d="M264.175,34.987a2.666,2.666,0,0,1,2.509-2.8,1.988,1.988,0,0,1,1.958,2.149,4.858,4.858,0,0,1-.03.53h-3.738a1.582,1.582,0,0,0,1.549,1.738,2.128,2.128,0,0,0,1.29-.429l.38.519a2.922,2.922,0,0,1-1.7.54A2.132,2.132,0,0,1,264.175,34.987Zm3.788-.639a1.393,1.393,0,0,0-1.33-1.519,1.824,1.824,0,0,0-1.689,1.519Z"
       class="cls-3" />
    <path
       id="path106"
       transform="translate(-146.973 -13.563)"
       d="M270.374,32.269h.72l-.2.889a1.735,1.735,0,0,1,1.469-.978,1.5,1.5,0,0,1,.51.089l-.15.66a1.233,1.233,0,0,0-.55-.11,1.682,1.682,0,0,0-1.4.909l-.75,3.418h-.72Z"
       class="cls-3" />
    <path
       id="path108"
       transform="translate(-146.973 -13.563)"
       d="M272.585,36.387l.44-.46a2.085,2.085,0,0,0,1.579.73,1.046,1.046,0,0,0,1.159-.9c0-.34-.2-.53-.739-.69l-.77-.2c-.77-.221-1.129-.62-1.129-1.25a1.521,1.521,0,0,1,1.719-1.438,2.886,2.886,0,0,1,1.909.739l-.44.489a2.479,2.479,0,0,0-1.509-.629c-.62,0-1.029.31-1.029.77,0,.359.189.559.7.7l.78.22c.839.24,1.189.589,1.189,1.2a1.689,1.689,0,0,1-1.849,1.579A2.684,2.684,0,0,1,272.585,36.387Z"
       class="cls-3" />
    <path
       id="path110"
       transform="translate(-146.973 -13.563)"
       d="M278.264,32.269h.71l-1.06,4.877h-.72Zm.15-1.67a.6.6,0,0,1,.57-.579.461.461,0,0,1,.459.47.584.584,0,0,1-.569.58A.449.449,0,0,1,278.414,30.6Z"
       class="cls-3" />
    <path
       id="path112"
       transform="translate(-146.973 -13.563)"
       d="M279.694,34.968a2.684,2.684,0,0,1,2.559-2.788,2.1,2.1,0,0,1,2.109,2.278,2.7,2.7,0,0,1-2.569,2.788A2.115,2.115,0,0,1,279.694,34.968Zm3.949-.51a1.464,1.464,0,0,0-1.419-1.639,2,2,0,0,0-1.82,2.139,1.471,1.471,0,0,0,1.429,1.639A1.983,1.983,0,0,0,283.643,34.458Z"
       class="cls-3" />
    <path
       id="path114"
       transform="translate(-146.973 -13.563)"
       d="M286.164,32.269h.709l-.149.709a1.945,1.945,0,0,1,1.529-.779,1.448,1.448,0,0,1,1.449,1.949l-.639,3h-.72l.619-2.848c.2-.9-.21-1.5-1.019-1.5a1.735,1.735,0,0,0-1.33.679l-.8,3.668h-.72Z"
       class="cls-3" />
  </g>
  <path
     id="path118"
     transform="translate(-146.973 -13.563)"
     d="M271.505,45.45l2.769-5.322-2.769,5.322-2.769,5.322Z"
     class="cls-4" />
  <g
     id="g134">
    <path
       id="path120"
       transform="translate(-146.973 -13.563)"
       d="M315.6,30.15h2.629a1.734,1.734,0,0,1,1.938,1.769,2.195,2.195,0,0,1-1.889,2.189l.91,3.038H318.4l-.88-2.988H315.5l-.64,2.988h-.749Zm2.138,3.368a1.554,1.554,0,0,0,1.68-1.548,1.14,1.14,0,0,0-1.3-1.14h-1.909l-.58,2.688Z"
       class="cls-3" />
    <path
       id="path122"
       transform="translate(-146.973 -13.563)"
       d="M320.618,34.987a2.666,2.666,0,0,1,2.509-2.8,1.988,1.988,0,0,1,1.959,2.149,4.858,4.858,0,0,1-.03.53h-3.738a1.581,1.581,0,0,0,1.549,1.738,2.125,2.125,0,0,0,1.289-.429l.38.519a2.918,2.918,0,0,1-1.7.54A2.132,2.132,0,0,1,320.618,34.987Zm3.788-.639a1.392,1.392,0,0,0-1.33-1.519,1.825,1.825,0,0,0-1.688,1.519Z"
       class="cls-3" />
    <path
       id="path124"
       transform="translate(-146.973 -13.563)"
       d="M327.277,29.931l.741-.151-1.53,7.366h-.719Z"
       class="cls-3" />
    <path
       id="path126"
       transform="translate(-146.973 -13.563)"
       d="M328.268,34.987a2.666,2.666,0,0,1,2.509-2.8,1.988,1.988,0,0,1,1.958,2.149,4.62,4.62,0,0,1-.03.53h-3.737a1.582,1.582,0,0,0,1.549,1.738,2.13,2.13,0,0,0,1.29-.429l.379.519a2.923,2.923,0,0,1-1.7.54A2.133,2.133,0,0,1,328.268,34.987Zm3.789-.639a1.393,1.393,0,0,0-1.33-1.519,1.826,1.826,0,0,0-1.69,1.519Z"
       class="cls-3" />
    <path
       id="path128"
       transform="translate(-146.973 -13.563)"
       d="M333.5,35.848a1.655,1.655,0,0,1,1.869-1.57,2.761,2.761,0,0,1,1.61.47l.13-.59c.2-.9-.181-1.359-1.11-1.359a3.353,3.353,0,0,0-1.4.37l-.2-.571a4.436,4.436,0,0,1,1.728-.4c1.309,0,1.959.72,1.7,1.9l-.679,3.048h-.71l.1-.46a2.238,2.238,0,0,1-1.42.531C334.149,37.217,333.5,36.677,333.5,35.848Zm3.158.319.211-.93a2.232,2.232,0,0,0-1.429-.42c-.731,0-1.25.4-1.25.95,0,.57.42.9,1.139.9A2.059,2.059,0,0,0,336.656,36.167Z"
       class="cls-3" />
    <path
       id="path130"
       transform="translate(-146.973 -13.563)"
       d="M338.4,36.387l.439-.46a2.085,2.085,0,0,0,1.579.73,1.046,1.046,0,0,0,1.159-.9c0-.34-.2-.53-.739-.69l-.769-.2c-.77-.221-1.13-.62-1.13-1.25a1.521,1.521,0,0,1,1.718-1.438,2.889,2.889,0,0,1,1.911.739l-.441.489a2.474,2.474,0,0,0-1.509-.629c-.62,0-1.029.31-1.029.77,0,.359.189.559.7.7l.78.22c.839.24,1.189.589,1.189,1.2a1.689,1.689,0,0,1-1.849,1.579A2.678,2.678,0,0,1,338.4,36.387Z"
       class="cls-3" />
    <path
       id="path132"
       transform="translate(-146.973 -13.563)"
       d="M343.309,34.987a2.666,2.666,0,0,1,2.508-2.8,1.988,1.988,0,0,1,1.959,2.149,4.858,4.858,0,0,1-.03.53h-3.738a1.581,1.581,0,0,0,1.549,1.738,2.127,2.127,0,0,0,1.289-.429l.381.519a2.925,2.925,0,0,1-1.7.54A2.132,2.132,0,0,1,343.309,34.987Zm3.787-.639a1.392,1.392,0,0,0-1.329-1.519,1.823,1.823,0,0,0-1.689,1.519Z"
       class="cls-3" />
  </g>
  <path
     id="path136"
     transform="translate(-146.973 -13.563)"
     d="M322.529,45.45l2.768-5.322-2.768,5.322-2.769,5.322Z"
     class="cls-4" />
  <g
     id="g146">
    <path
       id="path138"
       transform="translate(-146.973 -13.563)"
       d="M379.568,30.15h.91l1.218,7h-.769l-.359-2.2h-3.039l-1.269,2.2h-.85Zm.9,4.188-.58-3.5-2.009,3.5Z"
       class="cls-3" />
    <path
       id="path140"
       transform="translate(-146.973 -13.563)"
       d="M383.579,32.269h.72l-.2.889a1.735,1.735,0,0,1,1.469-.978,1.492,1.492,0,0,1,.509.089l-.149.66a1.236,1.236,0,0,0-.55-.11,1.683,1.683,0,0,0-1.4.909l-.749,3.418h-.72Z"
       class="cls-3" />
    <path
       id="path142"
       transform="translate(-146.973 -13.563)"
       d="M386.27,35.048a2.776,2.776,0,0,1,2.648-2.839,2.229,2.229,0,0,1,1.829.93l-.54.45a1.525,1.525,0,0,0-1.319-.72,2.065,2.065,0,0,0-1.909,2.139,1.526,1.526,0,0,0,1.5,1.589,2.134,2.134,0,0,0,1.318-.48l.34.47a2.748,2.748,0,0,1-1.769.649A2.077,2.077,0,0,1,386.27,35.048Z"
       class="cls-3" />
    <path
       id="path144"
       transform="translate(-146.973 -13.563)"
       d="M392.439,29.931l.75-.151-.67,3.259a1.989,1.989,0,0,1,1.579-.84,1.448,1.448,0,0,1,1.449,1.949l-.64,3h-.719l.62-2.848c.2-.9-.21-1.5-1.02-1.5a1.728,1.728,0,0,0-1.379.739l-.75,3.608h-.719Z"
       class="cls-3" />
  </g>
  <path
     id="path148"
     transform="translate(-146.973 -13.563)"
     d="M380.355,45.45l2.769-5.322-2.769,5.322-2.768,5.322Z"
     class="cls-4" />
</svg>
